<?xml version="1.0" standalone="no"?>
<!DOCTYPE svg PUBLIC "-//W3C//DTD SVG 1.1//EN" "http://www.w3.org/Graphics/SVG/1.1/DTD/svg11.dtd" >
<!--
2013-9-30: Created.
-->
<svg>
<metadata>
Created by iconfont
</metadata>
<defs>

<font id="iconfont" horiz-adv-x="1024" >
  <font-face
    font-family="iconfont"
    font-weight="500"
    font-stretch="normal"
    units-per-em="1024"
    ascent="896"
    descent="-128"
  />
    <missing-glyph />
    
    <glyph glyph-name="APPyuchuli" unicode="&#58881;" d="M807.957 576.642V798.637c0 32.709-26.508 59.204-59.2 59.204h-473.61c-32.691 0-59.199-26.494-59.199-59.204V-30.16c0-32.695 26.508-59.199 59.199-59.199h473.61c32.692 0 59.2 26.504 59.2 59.199V576.642zM728.15 61.881H295.753L295.757 751h432.397-0.004v-689.119zM511.96-56.2c-21.316 0-38.621 17.281-38.621 38.603 0 21.316 17.305 38.597 38.621 38.597 21.32 0 38.595-17.281 38.595-38.597 0-21.322-17.275-38.603-38.595-38.603zM660.432 316.295L562 414.727V554c0 27.5-22.5 50-50 50s-50-22.5-50-50v-160c0-0.343 0.019-0.682 0.026-1.024 0.01-0.451 0.013-0.902 0.034-1.352a49 49 0 0 1 0.126-1.768c0.018-0.217 0.029-0.435 0.05-0.652 0.056-0.58 0.13-1.155 0.206-1.729 0.031-0.238 0.057-0.477 0.092-0.716 0.074-0.503 0.163-1.002 0.252-1.5 0.058-0.327 0.112-0.655 0.177-0.981 0.076-0.383 0.163-0.761 0.248-1.141 0.102-0.461 0.205-0.921 0.32-1.38 0.057-0.222 0.119-0.442 0.178-0.664a48.791 48.791 0 0 1 0.567-1.974 49.534 49.534 0 0 1 12.308-20.398l113.137-113.137c19.445-19.445 51.265-19.445 70.711 0 19.445 19.446 19.445 51.265 0 70.711z"  horiz-adv-x="1024" />

    
    <glyph glyph-name="beiqindanwei" unicode="&#58882;" d="M918.052 27.196h-0.184V454.282c-3.135 78.544-4.277 83.104-79.981 85.214h-248.61V754.385c1.57 71.526 1.57 85.214-80.036 85.214H221.177c-81.934 0-79.657-5.702-79.974-85.214v-727.19h-35.255c-25.859 0-46.914-22.173-46.914-49.403 0-27.702 20.609-49.392 46.914-49.392h812.103c25.859 0 46.914 22.157 46.914 49.392 0.001 27.698-20.587 49.404-46.913 49.404z m-421.652 0H235.038V740.803H496.4v-713.607z m327.643 2.166h-4.56v-1.632H589.221V443.869a49.227 49.227 0 0 1 15.88-2.644h218.965l-0.023-411.863z m0 0M306.414 559.628H409.52c27.085 0 49.043 21.95 49.043 49.035s-21.957 49.035-49.043 49.035H306.414c-27.079 0-49.035-21.95-49.035-49.035s21.956-49.035 49.035-49.035z m0 0M306.13 516.082h103.106c32.693 0 49.035-16.344 49.035-49.037 0-32.692-16.342-49.035-49.035-49.035H306.13c-32.693 0-49.035 16.344-49.035 49.035 0 32.693 16.342 49.037 49.035 49.037z m0 0"  horiz-adv-x="1024" />

    
    <glyph glyph-name="benyuezhiban" unicode="&#58883;" d="M170.353-60c-25.257 0-48.963 9.786-66.752 27.555C85.802-14.666 76 9.035 76 34.293V649.224C76 701.483 118.326 744 170.353 744H275v35.877c0 26.907 21.756 48.797 48.497 48.797 26.745 0 48.503-21.89 48.503-48.797V744h279v35.877c0 26.907 21.98 48.797 48.998 48.797 27.02 0 49.002-21.89 49.002-48.797V744h104.019C905.392 744 948 701.504 948 649.269v-614.976C948-17.7 905.392-60 853.019-60H170.353zM850 37V470H173v-433h677z m0 530v79H748.996c-0.313-26.641-22.171-48.215-48.994-48.215-26.825 0-48.685 21.574-48.998 48.215H371.997c-0.31-26.641-21.946-48.215-48.497-48.215-26.55 0-48.186 21.574-48.496 48.215H173v-79h677zM381.148 255.37l45.94-29.244c22.078-14.011 35.424-38.397 35.424-64.528v-41.6H221.673v41.6c0 26.131 13.396 50.471 35.519 64.574l45.892 29.148c-16.648 20.66-27.498 51.082-27.498 73.205 0 36.734 29.778 66.507 66.507 66.507 36.733 0 66.507-29.774 66.507-66.507 0.001-22.073-10.849-52.495-27.452-73.155zM520.322 297c-17.391 0-33.592 9.547-42.281 24.61-8.694 15.047-8.694 33.839 0.006 48.898C486.732 385.56 502.933 395 520.322 395h246.074c26.907 0 48.798-21.879 48.798-48.787 0-26.905-21.891-48.979-48.798-48.979l-246.07-0.234h-0.004zM596.356 120c-17.374 0-33.565 9.296-42.257 24.341a48.445 48.445 0 0 0-0.005 48.526C562.787 207.921 578.979 217 596.356 217h170.089c26.905 0 48.794-21.595 48.794-48.501 0-26.905-21.889-48.499-48.794-48.499H596.356z"  horiz-adv-x="1024" />

    
    <glyph glyph-name="anquankeshihuachengxian" unicode="&#58884;" d="M511.59 446.207c-21.039 0-38.232-17.645-38.232-39.364 0-21.943 17.193-39.589 38.232-39.589 21.266 0 38.231 17.645 38.231 39.365 0 21.943-17.192 39.588-38.231 39.588zM511.999 544.154c-128.614 0-225.278-92.16-225.278-137.625 0-45.469 96.254-137.629 225.278-137.629 132.3 0 225.281 93.801 225.281 137.629 0 45.466-91.75 137.625-225.281 137.625zM512 294.297c-59.801 0-108.543 49.969-108.543 112.231 0 61.847 48.742 112.23 108.543 112.23s108.543-49.972 108.543-112.23c0-61.852-48.742-112.231-108.543-112.231zM512-75.6c-8.327 0-27.827 0-88.098 33.902-37.432 21.056-77.416 48.089-112.587 76.119-45.146 35.979-81.643 72.652-108.476 109.003-35.681 48.335-53.773 95.789-53.773 141.042V688.333c0 26.158 20.162 47.895 46.246 49.859l38.094 2.868c0.284 0.021 0.199 0.018 0.351 0.027 2.582 0.223 41.755 3.915 109.743 26.385 72.114 26.752 121.464 56.618 121.956 56.917 0.34 0.208 0.633 0.382 0.978 0.582l20.481 11.879a49.999 49.999 0 0 0 47.447 1.47l23.758-11.879a46.512 46.512 0 0 0 4.918-2.818c1.487-0.954 47.288-30.083 120.929-56.226 0.369-0.131 0.735-0.266 1.101-0.405 62.517-23.86 102.057-25.678 105.288-25.788 1.509 0.024 2.287-0.042 3.872-0.172l34.813-2.868c25.935-2.137 45.895-23.809 45.895-49.831v-403.867c0-45.291-18.242-92.791-54.221-141.181-26.957-36.257-63.64-72.904-109.028-108.928-35.101-27.857-75.073-54.854-112.554-76.016C539.015-75.6 520.084-75.6 512-75.6zM249.066 642.143v-357.676c0-44.069 42.152-104.067 115.648-164.611 62.259-51.287 124.086-84.669 146.975-93.803 23.055 9.416 84.979 43.125 147.058 94.083 73.838 60.609 116.187 120.506 116.187 164.331V642.042c-21.894 2.003-65.672 8.744-124.969 31.313-72.084 25.645-121.013 53.874-136.422 63.291-14.46-8.467-65.477-37.124-136.162-63.263a52.59 52.59 0 0 0-1.606-0.563c-65.526-21.726-108.93-28.593-126.709-30.677z"  horiz-adv-x="1024" />

    
    <glyph glyph-name="beiqinrenwu" unicode="&#58885;" d="M851.254-99.334c-27.842 0-50.254 22.695-50.254 50.591V141.663C801 215.309 740.778 275 667.341 275H356.749C283.312 275 223 215.309 223 141.663v-190.406c0-27.896-22.158-50.591-50-50.591-27.841 0-50 22.695-50 50.591V141.663c0 62.686 24.146 121.427 68.37 165.766C235.603 351.776 294.2 376 356.749 376h310.502c62.542 0 121.14-24.224 165.379-68.57C876.854 263.083 901 204.342 901 141.663v-190.406c0-13.464-4.827-26.183-14.357-35.755-9.526-9.567-21.881-14.836-35.389-14.836z m-128.254 0c-27.842 0-50 22.695-50 50.591v88.389c0 27.892 22.158 50.583 50 50.583s50-22.691 50-50.583v-88.389c0-27.896-22.158-50.591-50-50.591z m-421.499 0c-27.843 0-50.501 22.695-50.501 50.591v88.389c0 27.892 22.658 50.583 50.501 50.583 27.841 0 50.499-22.691 50.499-50.583v-88.389c0-27.896-22.658-50.591-50.499-50.591z m210.547 502.447c-61.841 0-119.998 24.162-163.756 68.033-43.749 43.864-67.842 102.151-67.842 164.123 0 61.914 24.093 120.168 67.841 164.031 43.759 43.872 101.916 68.034 163.757 68.034 61.837 0 119.992-24.162 163.75-68.033 43.749-43.863 67.841-102.15 67.841-164.123s-24.092-120.26-67.841-164.123c-43.699-43.813-101.853-67.942-163.75-67.942z m0 363.047c-72.02 0-130.613-58.759-130.613-130.983s58.593-130.983 130.613-130.983c72.017 0 130.607 58.759 130.607 130.983S584.065 766.16 512.048 766.16z"  horiz-adv-x="1024" />

    
    <glyph glyph-name="caidanguanli" unicode="&#58886;" d="M139.532 6.289c-42.575 0-77.211 34.638-77.211 77.213 0 42.574 34.637 77.21 77.211 77.21 42.575 0 77.212-34.636 77.212-77.21 0-42.576-34.637-77.213-77.212-77.213zM339.285 12c-38.922 0-70.586 33.346-70.586 74.596 0 41.145 31.665 74.404 70.586 74.404h552.07c38.828 0 70.418-33.259 70.418-74.404 0-41.25-31.665-74.596-70.585-74.596H339.285zM139.532 302.173c-42.575 0-77.211 34.839-77.211 77.414S96.879 457 139.357 457h0.253c42.498 0 77.135-34.839 77.135-77.413-0.001-42.575-34.638-77.414-77.213-77.414zM339.285 307c-38.922 0-70.586 33.801-70.586 74.998 0 41.199 31.665 75.002 70.586 75.002h551.904c38.92 0 70.585-33.803 70.585-75.002 0-41.196-31.665-74.998-70.585-74.998H339.285zM139.438 607.288c-42.575 0-77.211 34.638-77.211 77.213 0 42.575 34.637 77.211 77.211 77.211 42.575 0 77.212-34.636 77.212-77.211 0-42.576-34.637-77.213-77.212-77.213zM339.285 613c-38.922 0-70.586 33.304-70.586 74.503 0 41.196 31.665 74.497 70.586 74.497h551.904c38.92 0 70.585-33.301 70.585-74.497 0-41.199-31.665-74.503-70.585-74.503H339.285z"  horiz-adv-x="1024" />

    
    <glyph glyph-name="banshizhinan" unicode="&#58887;" d="M512 734c47.294 0 93.12-9.24 136.205-27.464 41.666-17.623 79.107-42.873 111.282-75.049s57.426-69.616 75.049-111.283C852.76 477.12 862 431.294 862 384s-9.24-93.12-27.464-136.205c-17.623-41.666-42.873-79.107-75.049-111.282s-69.616-57.426-111.282-75.049C605.12 43.24 559.294 34 512 34s-93.12 9.24-136.205 27.464c-41.666 17.623-79.107 42.873-111.283 75.049s-57.426 69.616-75.049 111.282C171.24 290.88 162 336.706 162 384s9.24 93.12 27.464 136.205c17.623 41.666 42.873 79.107 75.049 111.283s69.616 57.426 111.283 75.049C418.88 724.76 464.706 734 512 734m0 100C263.472 834 62 632.528 62 384s201.472-450 450-450 450 201.472 450 450S760.528 834 512 834zM598.974 470.974l-37.507-136.441-136.441-37.507 37.507 136.441 136.441 37.507m114.513 134.443c-1.759 0-3.568-0.236-5.394-0.738l-283.035-77.804a80 80 0 0 1-55.934-55.934L291.32 187.906c-3.609-13.131 6.54-25.324 19.192-25.324 1.759 0 3.568 0.236 5.394 0.738l283.035 77.804a80 80 0 0 1 55.934 55.934l77.804 283.035c3.61 13.131-6.539 25.325-19.192 25.324z"  horiz-adv-x="1024" />

    
    <glyph glyph-name="bumenniandumubiaoguanli" unicode="&#58888;" d="M862 734v-700H162V734h700m20 100H142c-44 0-80-36-80-80v-740c0-44 36-80 80-80h740c44 0 80 36 80 80V754c0 44-36 80-80 80zM746.384 552.693l-168.666 0.676c-27.847 0.111-41.758-33.553-22.067-53.244l50.815-50.759-107.494-107.524-62.63 62.645c-19.526 19.526-51.178 19.526-70.704 0l-104.496-104.5c-19.526-19.526-19.524-51.185 0.002-70.711 9.763-9.763 22.56-14.645 35.356-14.645s25.593 4.882 35.356 14.645L401 298.42l62.645-62.645c19.527-19.525 51.184-19.525 70.711 0l142.878 142.878 46.971-47.421C743.854 311.585 777 325.5 777 353.288V521.503c0 17.177-13.439 31.121-30.616 31.19z"  horiz-adv-x="1024" />

    
    <glyph glyph-name="chengshijiedaojianshe" unicode="&#58889;" d="M63-65V48.101c0 38.231 26 70.515 61 80.168V540.34C124 600.873 173.271 650 233.804 650H307v73.351C307 783.884 356.282 833 416.815 833h190.374C667.722 833 717 783.884 717 723.351V528h73.2c60.533 0 109.8-49.433 109.8-109.966V128.27c35-9.653 61-41.935 61-80.164V-65H63z m823 75v39.733c0 4.104-2.695 7.267-6.799 7.267H145.897c-4.709 0-7.897-3.655-7.897-8.365V10h748zM521 132V418.034C521 478.567 569.868 528 630.402 528H643V719.448C643 741.06 624.895 758 603.284 758H420.718C399.106 758 381 741.06 381 719.448V678h131.001c20.537 0 37.245-16.463 37.245-37s-16.708-37-37.245-37H381v-76h55.007c20.538 0 37.246-16.462 37.246-37s-16.708-37-37.246-37H381v-110h55.007c20.538 0 37.246-16.462 37.246-37s-16.708-37-37.246-37H381v-138h140z m-214 0V576h-64.576C218.211 576 198 555.933 198 531.72V528h55.223C273.635 528 290 511.657 290 491.245v-0.455A36.66 36.66 0 0 0 253.223 454H198v-48h55.223c20.412 0 37.019-16.587 37.019-36.999 0-20.413-16.607-37.001-37.019-37.001H198v-48h55.223C273.635 284 290 267.492 290 247.08v-0.45c0-20.413-16.365-37.63-36.777-37.63H198v-77h109z m519 0V414.577C826 436.189 807.906 454 786.294 454h-152.44c-13.482 0-25.397-7.446-32.454-17.326l0.62-43.674h47.125v-0.109c20.537 0 37.245-16.908 37.245-37.446 0-20.537-16.708-37.445-37.245-37.445H594v-49h192.291c20.538 0 37.246-16.962 37.246-37.499S806.829 194 786.291 194H594v-62h232z"  horiz-adv-x="1024" />

    
    <glyph glyph-name="chuhangjiaotong" unicode="&#58890;" d="M815.325 357.758c-5.735 0-11.325-0.273-17.325-0.82v-0.027L676.576 697.17c-10.904 31.379-37.505 54.599-70.107 60.974l-93.767 18.778C489.812 781.399 467.676 766 463.21 744h0.016c-4.463-23 10.467-45.471 33.344-49.944l80.901-16.029c11.188-2.187 20.371-9.807 24.109-20.576L640.739 545H355.594l11.469 41.32 59.902-11.351C437.378 573.048 447 580.676 447 591.26v-0.028c1 30.802-17.058 58.898-45.703 70.261l-58.482 23.271c-9.701 3.848-18.969 8.488-27.906 13.879l-41.088 24.811c-30.85 18.608-70.042-4.289-69.002-40.302l1.227-42.091c0.432-14.977 11.275-27.618 26.01-30.334l51.772-9.543-69.795-243.509a188.8 188.8 0 0 1-5.624 0.082c-98.031 0-177.492-82.195-177.492-183.609 0-101.418 79.461-183.609 177.492-183.609s177.496 82.191 177.496 183.609a188.997 188.997 0 0 1-10.57 62.559l302.13 201.78 41.777-110.141c-48.824-32.715-81.097-89.566-81.097-154.199 0-101.418 79.461-183.609 177.492-183.609s177.336 82.191 177.336 183.609c0 101.416-79.617 183.611-177.648 183.611zM205.437 76.602c-52.467 0-95 42.533-95 95s42.533 95 95 95 95-42.533 95-95-42.533-95-95-95zM329.98 308.11c-10.511 10.214-22.199 19.211-34.843 26.554L332.355 460h223.376L329.98 308.11z m484.63-231.508c-52.467 0-95 42.533-95 95s42.533 95 95 95 95-42.533 95-95-42.533-95-95-95z"  horiz-adv-x="1024" />

    
    <glyph glyph-name="chazhongguolv" unicode="&#58891;" d="M827.142-66c-17.001 0-33.625 7.119-45.609 19.168L663.846 71.642c-25.126 25.366-25.126 66.667-0.014 92.016l5.511 5.617-11.138 11.205c-64.99-53.273-146.344-82.492-230.217-82.492-201.584 0-365.585 164.988-365.585 367.782 0 49.616 9.67 97.769 28.742 143.117 18.419 43.796 44.782 83.134 78.356 116.922 33.579 33.792 72.677 60.327 116.207 78.867 45.083 19.202 92.953 28.938 142.28 28.938 201.585 0 365.586-165.013 365.586-367.842 0.061-79.496-25.934-157.738-73.382-221.405l12.365-12.425 0.994 0.987c12.001 12.037 28.685 18.962 45.733 18.962 17.296 0 33.55-6.747 45.768-18.999L942.69 114.503c12.099-12.034 19.005-28.789 18.905-45.922-0.093-17.09-7.165-33.731-19.403-45.67l-69.03-69.737C860.838-59.025 844.591-66 827.346-66h-0.204z m0.61 99.438l34.741 34.959-83.711 84.296-34.74-34.959 83.71-84.296zM427.989 744.283c-152.604 0-276.756-125.068-276.756-278.673 0-153.57 124.152-278.61 276.756-278.61h5.923c149.872 3 270.829 127.001 270.829 278.61 0.001 153.605-124.149 278.673-276.752 278.673zM342.659 327c-24.51 0-44.451 19.919-44.451 44.531 0.095 24.415 20 44.469 44.372 44.469H524v-1.402c8-1.941 14.957-5.973 20.753-11.81 8.363-8.423 12.969-19.491 12.926-31.365-0.131-24.251-19.926-44.423-44.158-44.423H342.659z m-71.915 140c-24.473 0-44.384 20.389-44.384 45 0.087 24.361 19.945 43 44.266 45H596v-2.354c19-4.966 33.508-22.414 33.582-43.051-0.045-24.391-19.9-43.595-44.228-44.595h-314.61z"  horiz-adv-x="1024" />

    
    <glyph glyph-name="chengxiangshequjianshe" unicode="&#58892;" d="M95.122-3c-7.577 0-14.583 2.624-19.939 7.982-5.352 5.35-8.183 12.143-8.183 19.719v4.591C67 44.923 79.486 58 95.122 58H127V413H86.888c-13.694 0-25.821 9.219-29.491 22.417-3.574 12.896 1.673 26.601 12.792 33.84l288.976 288.964a30.878 30.878 0 0 0 25.206 12.978 30.872 30.872 0 0 0 25.2-12.979L701.08 466.581l0.196-0.22c8.131-9.153 10.343-22.366 5.635-33.662-4.727-11.313-15.676-19.038-27.898-19.684l-0.265-0.015H648v-355h113V206h-77.644l-0.795-0.081c-9.117 1.479-17.303 6.615-22.459 14.275-5.155 7.67-6.93 17.174-4.87 26.17l0.122 0.508 108.747 312.804 0.325 0.624c5.494 10.652 16.351 17.265 28.333 17.265l0.374-0.004c12.146-0.144 22.99-7.014 28.305-17.929l0.26-0.536 107.286-308.89c2.14-6.248 2.056-12.655-0.195-18.755C927.456 216.882 915.413 206 900.544 206H823v-148h126v-2.12c4-1.39 7.444-3.578 10.364-6.477 5.312-5.261 8.636-12.589 8.636-20.098v-4.604c0-7.583-3.093-14.378-8.456-19.728-5.348-5.349-12.611-7.973-20.187-7.973H95.122zM587 58V413H188.167l0.049-355H587z m271.281 209l-65.568 188.922L727.159 267h131.122zM606.706 474L384.37 696.437 162.016 474h444.69zM599 258.513H329c-18.15 0-33 14.85-33 33s14.85 33 33 33h270c18.15 0 33-14.85 33-33s-14.85-33-33-33zM600 132.513H330c-18.15 0-33 14.85-33 33s14.85 33 33 33h270c18.15 0 33-14.85 33-33s-14.85-33-33-33z"  horiz-adv-x="1024" />

    
    <glyph glyph-name="changsuoguanli" unicode="&#58893;" d="M190.191 755.46l0.373 0.398a383.655 383.655 0 0 0 29.359 32.061c10.292 10.006 18.073 17.375 23.373 22.035a161.627 161.627 0 0 0 23.398 16.056c8.29 4.66 19.393 6.991 33.334 6.991h429.904c8.616 0 18.556-1.848 29.841-5.497 11.279-3.694 22.205-11.213 32.851-22.564 5.275-6.664 12.27-15.018 20.892-25.044a7047.777 7047.777 0 0 0 24.869-29.026l0.288-0.353c11.651-14.289 1.369-35.713-17.068-35.713l-613.673-0.018c-21.134-0.001-32.189 25.25-17.741 40.674zM862 563v-137.5H162V563h700m20 100H142c-44 0-80-36-80-80v-177.5c0-44 36-80 80-80h740c44 0 80 36 80 80V583c0 44-36 80-80 80zM862 171v-137.5H162V171h700m20 100H142c-44 0-80-36-80-80v-177.5c0-44 36-80 80-80h740c44 0 80 36 80 80V191c0 44-36 80-80 80z"  horiz-adv-x="1024" />

    
    <glyph glyph-name="duanxinyuchuli" unicode="&#58894;" d="M812.917 732.562H211.083c-85.261 0-150.459-65.198-150.459-140.429v-416.267c0-75.231 60.183-135.414 140.429-140.429h441.824c22.159 0 40.123 17.964 40.123 40.123s-17.964 40.123-40.123 40.123H191.02c-19.388 0-35.105 15.717-35.105 35.105L390 330l36.739-28.753c25.078-15.045 55.171-25.075 85.261-25.075 30.093 0 60.183 10.03 85.26 30.089l275.839 205.63v-163.753c0-24.929 20.209-45.138 45.138-45.138s45.138 20.209 45.138 45.138V592.134c0.001 80.246-70.212 140.428-150.458 140.428zM150.901 261.124V511.891l165.503-125.384-165.503-125.383z m471.435 170.522l-80.242-60.183c-15.049-15.048-45.138-15.048-60.183 0l-75.231 55.168-245.75 185.566c5.015 20.06 25.078 30.09 50.153 30.09h601.834c25.079 0 45.139-10.03 55.168-30.09L622.336 431.646zM785 92c-27.614 0-50 22.386-50 50V282c0 27.614 22.386 50 50 50s50-22.386 50-50v-140c0-27.614-22.386-50-50-50zM749.65 177.35c19.526 19.526 51.185 19.526 70.711 0l98.995-98.995c19.526-19.526 19.526-51.184 0-70.711-19.526-19.526-51.184-19.526-70.711 0L749.65 106.64c-19.527 19.526-19.527 51.184 0 70.71z"  horiz-adv-x="1024" />

    
    <glyph glyph-name="ditubiaozhu" unicode="&#58895;" d="M512 103.566c26.833 0 53.665 13.232 69.106 39.695C655.099 270.077 762 468.913 762 559.2c0 138.071-111.929 250-250 250s-250-111.929-250-250c0-90.287 106.901-289.123 180.894-415.939 15.441-26.463 42.274-39.695 69.106-39.695zM362 559.2c0 40.066 15.603 77.735 43.934 106.066 28.331 28.331 66 43.934 106.066 43.934s77.735-15.603 106.066-43.934C646.397 636.935 662 599.266 662 559.2c0-3.898-1.495-41.28-53.267-151.874-24.737-52.841-57.926-115.87-96.733-183.771-38.807 67.901-71.996 130.93-96.733 183.771C363.495 517.92 362 555.302 362 559.2zM932.864 60.878l-54.286 190.05C868.765 285.272 837.374 309 801.656 309H742c-27.614 0-50-22.486-50-50.1v0.05c0-27.614 22.386-49.95 50-49.95h29.484c8.93 0 16.777-6.02 19.231-14.606l31.429-109.95c3.65-12.776-5.943-25.444-19.23-25.444H221.088c-13.288 0-22.881 12.618-19.23 25.394l31.429 110.05c2.452 8.586 10.3 14.556 19.229 14.556H282c27.614 0 50 22.286 50 49.9v0.05c0 27.614-22.386 50.05-50 50.05h-59.656c-35.718 0-67.109-23.778-76.922-58.122l-54.286-189.95C76.535 9.822 114.908-41 168.058-41h687.883c53.151 0 91.524 50.772 76.923 101.878zM512 552.8m-50 0a50 50 0 1 1 100 0 50 50 0 1 1-100 0Z"  horiz-adv-x="1024" />

    
    <glyph glyph-name="canyindanwei" unicode="&#58896;" d="M735.168-63c-30.947 0-65.185 9.042-91.586 24.149-39.173 22.298-61.666 57.454-61.666 96.408 0 2.081 0.149 3.732 0.256 4.935l0.05 0.543 28.603 286.186c-16.912 11.608-32.99 27.833-47.125 47.659l0.044 0.193C532.837 441.34 517 493.323 517 547.402V743.317c0 19.625 10.373 37.966 27.36 47.865a54.757 54.757 0 0 0 27.616 7.475c9.734 0 19.203-2.584 27.594-7.474 16.987-9.895 27.43-28.237 27.43-47.867V547.31c0-30.478 8.895-60.262 24.927-83.866 9.87-14.437 19.396-21.866 23.576-24.362 13.521-1.407 26.26-7.858 35.51-18.14l0.132-0.139c10.301-11.631 15.284-27.017 13.677-42.228l-31.798-317.989c6.337-5.238 24.922-12.954 42.143-12.954 12.114 0 27.262 3.843 36.837 9.346l0.219 0.125c2.293 1.285 3.924 2.439 5.007 3.319L745.406 378.65c-1.487 15.386 3.501 30.757 13.68 42.251 9.102 10.269 21.854 16.764 35.552 18.245 4.17 2.467 13.634 9.864 23.482 24.288C834.595 488.361 843 517.35 843 547.272V742.81c-1 20.165 9.733 39.022 27.036 49.311a55.517 55.517 0 0 0 28.334 7.791c9.944 0 19.9-2.693 28.474-7.787C944.157 781.829 954 762.972 954 742.807v-195.404c0-54.611-16.839-108.04-47.131-150.445-14.143-19.83-30.294-36.073-47.189-47.705l28.601-286.495c0.114-1.285 0.252-3.046 0.252-5.095 0-39.976-21.984-74.401-61.885-96.933l-0.419-0.253c-27.891-15.023-59.3-23.475-90.82-23.475h-0.241z m-446.889 0c-30.942 0-65.179 9.042-91.585 24.148-39.172 22.296-61.663 57.454-61.663 96.409 0 1.394 0 3.134 0.185 5.219l29.319 292.644c-25.871 20.226-47.796 48.334-63.906 82.086l-0.141 0.302C80.09 482.14 69.463 531.383 69.754 580.217c0.018 65.333 21.895 127.258 61.604 174.389 19.087 22.997 42.369 41.648 69.205 55.438C227.607 823.89 257.929 831.2 288.279 831.2c30.327 0 59.794-7.128 87.583-21.185 26.079-13.144 49.428-31.794 69.364-55.418 39.711-47.096 61.577-109.085 61.577-174.555 0-51.725-10.388-101.253-30.043-143.226-16.186-34.187-38.341-62.316-64.62-82.235l29.119-291.918c0.115-1.284 0.271-3.043 0.271-5.093 0-39.98-21.974-74.406-61.874-96.938l-0.446-0.27C351.355-54.587 319.995-63 288.518-63h-0.239z m-42.431 122.313c6.328-5.287 25.013-13.097 42.338-13.097 12.036 0 27.334 3.882 37.203 9.441 2.382 1.335 4.052 2.525 5.143 3.423l-31.92 319.574c-2.483 24.352 11.055 47.12 33.692 56.607 22.191 9.339 36.502 31.797 44.593 48.99 12.765 27.064 19.791 61.345 19.791 96.543 0 39.675-12.692 76.511-35.738 103.723-20.465 24.269-46.294 37.613-72.764 37.613s-52.302-13.345-72.738-37.576c-23.068-27.337-35.77-64.184-35.77-103.76 0-67.147 27.794-128.691 66.089-146.338 21.443-9.893 34.296-32.338 31.991-55.855l-31.91-319.288zM734.638 492C704.175 492 680 516.845 680 547.31V743.128c0 19.634 10.252 37.977 27.243 47.87 8.388 4.886 17.816 7.47 27.548 7.47a55.023 55.023 0 0 0 27.687-7.473c16.985-9.89 27.522-28.233 27.522-47.867V547.31c0-30.295-24.839-54.31-55.231-55.31h-0.131z"  horiz-adv-x="1024" />

    
    <glyph glyph-name="dianziweilan" unicode="&#58897;" d="M940.876 159.933H867.22V448.376h73.656a31.677 31.677 0 0 1 22.837 9.028 31.662 31.662 0 0 1 9.518 22.64c0 17.869-14.485 32.355-32.356 32.355H867.22V738.886a93.622 93.622 0 0 1-27.424 66.201 93.623 93.623 0 0 1-66.2 27.423v-64.023c17.557-1.126 30.996-16.069 30.26-33.644-0.736-17.579-15.38-31.346-32.971-30.996-17.588 0.35-31.672 14.691-31.711 32.284 0 17.87 14.486 32.356 32.356 32.356V832.51a94.322 94.322 0 0 1-68.775-27.603 94.292 94.292 0 0 1-27.599-68.776v-223.733h-77.79v44.746a95.018 95.018 0 0 1-28.278 69.777 95.016 95.016 0 0 1-70.167 27.291 93.63 93.63 0 0 1-67.45-28.63 93.646 93.646 0 0 1-26.173-68.438v-48.189h-79.163v229.93a93.61 93.61 0 0 1-28.63 67.446 93.644 93.644 0 0 1-68.438 26.179v-64.023c15.881-2.336 27.65-15.963 27.65-32.014 0-16.047-11.769-29.674-27.65-32.009a32.361 32.361 0 0 0-31.907 14.49 32.348 32.348 0 0 0 0 35.043 32.363 32.363 0 0 0 31.907 14.491V832.51a94.308 94.308 0 0 1-98.441-96.379v-223.733H83.123c-17.871 0-32.356-14.485-32.356-32.355a31.682 31.682 0 0 1 9.519-22.64 31.679 31.679 0 0 1 22.837-9.028h47.501v-288.443H83.123a32.35 32.35 0 0 1-31.907-49.527 32.354 32.354 0 0 1 31.907-14.491h47.501v-107.391c0-29.275 23.731-53.011 53.006-53.011h86.741a52.326 52.326 0 0 1 55.762 53.01V95.914h82.607v-107.391a52.317 52.317 0 0 1 52.319-53.01h83.297a53.026 53.026 0 0 1 37.485 15.526 53.032 53.032 0 0 1 15.526 37.485v107.39h77.79v-107.391a53.012 53.012 0 0 1 53.008-53.011H814.9a52.334 52.334 0 0 1 37.242 15.568 52.316 52.316 0 0 1 15.081 37.442V95.914h73.656a32.349 32.349 0 0 1 31.907 14.491 32.354 32.354 0 0 1-31.91 49.528zM257.292-0.465h-62.645V645.952a101.878 101.878 0 0 1 64.019 0l-1.374-646.417z m68.84 160.398V448.376h82.607v-288.443h-82.607z m206.521-160.398h-63.334v557.61a30.99 30.99 0 0 0 10.755 22.306 30.984 30.984 0 0 0 23.668 7.294c15.923-0.718 28.565-13.659 28.911-29.6v-557.61z m64.023 160.398V448.376h78.479v-288.443h-78.479z m206.52-160.398h-64.023V645.952a101.89 101.89 0 0 1 64.023 0v-646.417z m0 0"  horiz-adv-x="1024" />

    
    <glyph glyph-name="farenqiye" unicode="&#58898;" d="M945.007 523.454L550.111 798.132C538.87 805.95 525.691 810.094 512 810.094c-13.692 0-26.87-4.109-38.11-11.927L78.993 523.541c-14.667-10.202-20.69-27.667-15.343-44.714C68.995 461.779 83.993 451 101.86 451h820.282c17.866 0 32.864 10.782 38.21 27.829 5.345 17.048-0.678 34.423-15.345 44.625zM261.125 540l243.252 169.406c2.247 1.563 4.882 2.553 7.62 2.553 2.739 0 5.375-1.005 7.622-2.569L762.784 540H261.125zM890.507 319c24.82 0 45.012 19.68 45.012 44.5S915.326 408 890.507 408H133.499c-24.819 0-45.011-19.68-45.011-44.5S108.68 319 133.499 319H181v-279h-47.501c-24.819 0-45.011-20.68-45.011-45.5S108.68-51 133.499-51h757.008c24.82 0 45.012 20.682 45.012 45.501 0 24.818-20.192 45.499-45.012 45.499H843V319h47.507zM270 319h197v-279H270V319z m484-279H557V319h197v-279z"  horiz-adv-x="1024" />

    
    <glyph glyph-name="daibanshiyi" unicode="&#58899;" d="M439.767-64c-2.711 0-5.449 0.281-8.136 0.762-65.029 11.717-125.57 37.091-179.95 75.385a451.062 451.062 0 0 0-57.089 47.557 11.08 11.08 0 0 0-0.87 0.759l-1.324 1.271-0.148 0.304C126.322 127.801 82.977 211.484 66.904 304.091a413.345 413.345 0 0 0-3.804 26.894 15.061 15.061 0 0 0-0.415 2.621c-0.994 9.307-1.485 18.406-1.894 27.05L61 360.9v0.949c-4 93.232 20.174 184.263 71.047 263.305 0.256 0.528 0.571 1.383 1.251 2.336 3.002 4.698 6.225 9.452 9.325 13.897a589.386 589.386 0 0 0 5.838 8.138 19.91 19.91 0 0 0 1.808 2.395l0.134 0.166c30.759 41.041 67.713 76.16 109.847 104.384 42.129 28.22 88.628 49.058 138.21 61.843l2.572 0.687h0.217c11.196 3 22.305 5.044 33.04 6.932a458.112 458.112 0 0 0 77.956 6.709c85.903 0 169.354-24.547 242.013-71.068l22.088 31.916c7.101 10.313 15.018 11.853 19.103 11.853 9.268 0 16.693-6.899 19.861-18.453l32.305-116.429c2.561-9.077 1.142-18.525-3.903-25.878-5.08-7.402-13.466-12.157-23.007-13.046L700.227 620.73c-1.183-0.111-2.392-0.17-3.551-0.17-9.139 0-16.349 3.744-19.78 10.271-2.12 4.034-4.494 12.523 3.438 24.041l0.579 0.842 19.146 18.565c-59.072 37.141-117.745 55.227-178.983 55.227-57.197 0-119.608-15.895-190.776-48.589-12.003-7.94-22.487-16.335-29.576-23.689-0.401-0.415-0.759-0.787-1.222-1.177-32.941-28.323-43.298-39.775-69.143-76.429-124.784-177.148-38.004-366.732 74.445-475.542a356.366 356.366 0 0 1 33.615-20.963l2.958-1.623c4.99-2.634 10.334-5.31 16.231-8.131a13.1 13.1 0 0 0 2.125-1.033c26.666-12.46 69.626-29.477 97.412-36.742l0.572-0.15 0.552-0.214c22.843-8.874 33.354-41.395 26.284-62.359C480.3-48.529 461.603-64 439.771-64h-0.004z m145.067 0c-9.48 0-18.574 3.123-26.3 8.596-9.76 6.837-16.396 17.278-18.644 29.159-4.764 25.821 12.721 53.398 36.678 57.841 6.408 1.191 13.424 2.758 21.449 4.732a39.01 39.01 0 0 0 9.333 1.149c20.872 0 40.668-16.774 46.046-39.029 2.931-11.787 1.093-24.085-5.19-34.568-6.295-10.504-16.292-17.909-28.148-20.855-8.522-2.081-17.519-4.255-26.783-6.018-2.842-0.52-5.656-1.005-8.44-1.005 0.001-0.002 0-0.002-0.001-0.002z m129.459 48c-9.502 0-18.617 3.041-26.359 8.474-5.406 3.735-10.031 8.871-13.316 14.652-5.969 10.396-7.653 23.801-4.595 36.664 3.143 13.225 10.953 24.281 21.428 30.294 5.781 3.357 11.921 7.158 18.727 11.573 6.308 4.167 13.779 6.4 21.535 6.4 15.759 0 32.175-9.287 41.823-23.664 6.766-10.181 9.139-22.354 6.709-34.319-2.442-12.015-9.424-22.354-19.661-29.11-7.366-4.878-15.233-9.919-23.37-14.644-6.997-4.031-14.912-6.32-22.921-6.32z m106.033 88c-9.454 0-18.513 3.07-26.212 8.487-1.222 0.811-2.421 1.829-3.567 2.825-18.933 16.139-21.432 49.659-5.072 68.858 4.329 5.085 8.93 10.88 13.673 17.171 7.587 10.16 19.056 15.79 32.264 15.79 10.974 0 22.248-3.9 31.745-10.991 9.785-7.354 16.122-18.046 17.869-30.131 1.753-12.118-1.323-24.166-8.66-33.927-5.005-6.771-10.634-14.05-17.161-21.762-8.718-10.247-21.425-16.32-34.877-16.32h-0.002z m70.084 119c-5.595 0-11.094 1.082-16.344 3.103a47.64 47.64 0 0 0-10.067 5.396c-15.693 11.095-28.871 32.642-20.824 53.769 2.785 7.179 5.21 14.119 7.229 20.673 5.861 18.621 25.906 32.098 47.68 32.098 4.922 0 9.681-0.71 14.145-2.114 24.035-7.565 37.458-33.305 29.927-57.381-2.322-7.522-5.1-15.587-8.997-25.988C926.456 202.896 909.283 191 890.41 191c0 0 0.002 0 0 0z m-206.525 35.414c-5.204 0-10.265 1.183-14.822 3.515L448 339.219V588.493c0 17.884 21.285 39.63 38.654 39.879l17.043 0.628h0.255c12.135 0 24.436-9.429 27.987-12.385 6.083-5.062 16.06-15.112 16.06-26.966v-185.104l161.584-83.571c9.183-4.768 21.492-18.665 26.023-35.041 3.663-13.239 1.996-26.177-4.927-37.416l-0.363-0.634-0.464-0.571c-11.635-13.914-35.736-20.898-45.967-20.898z m233.163 99.975c-0.331 0-0.662 0.003-0.994 0.01a46.285 46.285 0 0 0-25.298 8.362c-12.624 8.932-19.896 23.313-19.502 38.504 0.189 6.818 0.12 14.165-0.205 21.853-0.526 12.177 3.758 23.849 12.066 32.857 8.315 9.017 19.619 14.237 31.828 14.696a46.285 46.285 0 0 0 1.745 0.033c24.731 0 44.829-19.343 45.758-44.036 0.454-9.592 0.418-19.223 0.324-27.365-0.26-12.166-5.137-23.447-13.733-31.867-8.593-8.414-19.953-13.047-31.989-13.047zM889.395 461c-7.374 0-13.885 1.936-19.352 5.799-7.832 5.493-13.891 13.639-17.032 22.939-1.036 3.149-3.648 8.213-5.952 12.686-2.314 4.492-4.5 8.732-5.931 12.407-3.929 9.767-3.658 20.853 0.768 31.226 5.335 12.506 16.219 23.044 29.114 28.189a45.187 45.187 0 0 0 16.992 3.307c18.813 0 35.476-11.297 42.453-28.78 3.122-7.704 6.216-16.176 9.439-25.848 7.846-23.95-5.204-49.846-29.075-57.804-5.858-1.935-13.56-4.122-21.423-4.122l-0.001 0.001z"  horiz-adv-x="1024" />

    
    <glyph glyph-name="chuzufangguanli" unicode="&#58900;" d="M509.719-66c-10.81 0-20.391 7.198-27.489 21.394l-2.23 3.457V123.817c-10-21.242-22.846-41.073-35.495-59.337l-1.76-2.905-2.905-1.816c-7.232-4.336-13.663-6.443-19.787-6.443-9.03 0-16.517 4.571-20.941 12.54-2.921 5.262-4.111 11.899-4.111 20.29v4.956l2.552 5.167C426.282 139.364 451.96 193 474.413 257h-54.94l-3.443 0.67c-12.225 6.077-15.993 14.18-17.001 20.346-1.616 9.891 2.66 20.069 12.712 30.121l4.795 4.863H480v50.682c-11-1.191-23.183-0.682-36.11-0.682h-3.865l-3.457 1.173c-5.411 2.705-21.88 10.662-22.503 26.949-0.269 7.036 2.513 17.144 17.292 26.005l3.531 2.047 4.112 0.16c55.703 2.642 102.559 10.616 139.267 23.732l5.846 2.08 5.762-2.317c12.077-4.847 19.206-12.221 21.189-21.911 2.023-9.888-1.878-19.83-11.597-29.549l-2.373-2.374-2.834-1.248c-12.713-5.091-31.26-9.966-55.26-14.825V313h61.661l3.339-2.92v68.995l0.297 1.422c3.54 35.52 24.69 56.503 57.652 56.503h148.114c20.501 0 36.667-6.204 46.652-17.234 9.253-10.22 13.285-24.847 12.285-42.278V9h41.153l4.368-3.835c9.796-7.355 14.764-16.19 14.764-25.714s-4.968-17.449-14.764-24.804L910.153-48H565.985l-4.362 2.493c-9.824 7.355-14.805 15.533-14.805 25.065s4.981 18.459 14.805 25.814l4.362 3.628H604v92.825c-4-2.718-9.617-3.252-12.681-3.252-6.438-0.002-12.971 2.109-20.199 6.453l-4.835 2.939-1.695 5.342c-4.683 12.478-13.59 30.559-25.59 54.029v-208.484l-2.011-3.457c-7.098-14.197-16.46-21.395-27.27-21.395zM811 9v91H662v-91h149z m0 148v81H662v-81h149zM555.559 257C576.669 220 593 192.189 604 169.792v87.391l-3.339-0.183h-45.102zM811 297v74.383l-0.206 1.332c0.403 2.424 0.089 4.094-0.01 4.688-0.82 0.388-3.499 1.597-8.949 1.597H670.177c-7.38 0-8.177-1.586-8.177-8.968V297h149zM338 51h-37V379.723c0 26.754-10.252 52.663-29.173 71.577-6.871 6.868-14.572 12.633-22.963 17.182L512.158 710.22l209.503-192.718A153.404 153.404 0 0 1 825.516 477c31.33 0 46.333 38.484 23.271 59.69L568.769 794.157c-15.62 15.617-36.091 23.349-56.564 23.349-20.443 0-40.886-7.826-56.5-23.402L80.059 449.219c-25.147-25.087-7.691-68.072 27.828-68.327l93.113-0.321v-350C201-13.375 236.625-49 280.571-49H338c27.614 0 50 22.386 50 50s-22.386 50-50 50z"  horiz-adv-x="1024" />

    
    <glyph glyph-name="ditupeizhi" unicode="&#58901;" d="M349.342-61c-11.936 0-23.698 3.85-33.119 11.305l-235.967 187.4C67.472 147.937 60 162.988 60 179.245V776.156c0 20.241 11.957 39.048 30.215 47.913a54.187 54.187 0 0 0 23.332 5.333c11.991 0 23.787-4.122 33.144-11.606l207.623-165.18L648.451 822.329c7.695 4.371 16.288 6.599 24.917 6.864l0.394-0.193h4.35l0.503 0.124c10.929-0.688 21.255-4.563 29.864-11.344l235.172-187.506C956.439 620.043 963 604.902 963 588.642v-298.78l-21.191 23.525c-21.275 22.805-47.934 41.17-76.835 53.109L857 369.733V562.959L728 665.805v-288.801l-8.789-2.649c-28.109-8.137-54.292-21.716-77.258-40.359L621 317.217v366.82l-218-126.14v-473.951l157.185 90.497 0.848-20.986c1.032-27.143 7.022-53.488 17.754-78.302l4.496-10.369L376.56-54.183c-8.232-4.647-17.394-6.817-26.61-6.817h-0.608zM295 102.083V562.959L166 665.805V204.93l129-102.847zM956.779 119.879c-1.326 0.933-2.784 1.99-4.506 2.921-7.3 2.785-13.264 7.292-17.908 13.529-4.515 6.367-6.768 13.659-6.768 21.748 0 8.627 2.654 16.315 8.096 23.083 5.433 6.761 11.936 11.541 19.629 14.191 2.119 0.796 3.978 2.253 5.836 4.644 1.852 2.389 2.518 5.569 1.988 9.817a83.38 83.38 0 0 1-5.705 21.353c-2.915 7.028-6.101 12.339-9.812 15.784-1.988 1.988-4.379 3.051-7.164 3.316-2.784 0.265-5.175-0.265-7.163-1.457-7.428-3.452-15.517-4.909-24.137-4.248-8.628 0.667-15.92 3.847-21.892 9.817-5.834 5.836-9.545 12.863-10.737 20.693-1.328 7.824-0.265 15.381 2.915 22.546 0.531 1.061 0.925 2.654 1.458 5.044 0.53 2.384 0.136 4.508-1.056 6.496-1.995 3.187-4.644 6.237-7.96 8.887a48.563 48.563 0 0 1-11.011 6.632c-3.982 1.729-7.958 3.187-12.072 4.112-4.112 0.933-7.824 1.457-11.276 1.457-2.253 0-4.37-1.056-6.496-3.18-2.124-2.124-3.717-4.112-4.642-6.1-2.656-7.43-7.43-13.531-14.062-18.304-6.632-4.908-14.325-7.299-22.947-7.299-8.355 0-15.647 2.52-21.884 7.566-6.237 5.168-10.744 11.002-13.4 17.634-0.66 2.262-1.988 4.379-3.84 6.503-1.859 2.124-4.379 3.18-7.566 3.18-2.382 0-5.698-0.395-9.948-1.322-4.241-0.796-8.491-2.124-12.999-3.846-4.506-1.729-8.62-3.983-12.466-6.503-3.847-2.518-6.496-5.569-7.96-9.015-0.66-1.464-0.927-3.187-0.53-5.175 0.401-1.99 0.796-3.719 1.328-5.176 0.265-1.456 0.531-3.976 0.925-7.428 0.401-3.445 0.401-7.163 0-11.405-0.259-4.112-1.192-8.355-2.518-12.733-1.457-4.241-3.583-7.958-6.496-10.873-6.237-5.843-13.4-9.424-21.353-10.48-8.096-1.061-15.791-0.136-23.212 2.785-2.262 0.662-4.249 1.192-6.108 1.457-1.852 0.265-3.711-0.265-5.699-1.457-2.52-1.593-4.773-3.847-6.899-6.897-2.124-3.187-3.983-6.503-5.569-10.213-1.593-3.717-2.921-7.565-3.847-11.541-0.933-3.977-1.457-7.559-1.457-10.745 0-3.049 0.789-5.964 2.253-8.756 1.457-2.784 3.316-4.637 5.435-5.304 7.428-2.915 14.06-7.695 20.032-14.06 5.964-6.367 8.885-13.926 8.885-22.546 0-8.491-2.921-16.049-8.885-22.817-5.972-6.761-12.604-11.671-20.032-14.592-4.243-1.457-6.632-4.903-7.43-10.343-0.395-2.921-0.129-6.768 0.798-11.276 0.932-4.642 2.389-9.015 4.248-13.393 1.988-4.248 3.978-8.225 6.367-11.807 2.383-3.452 4.909-5.835 7.559-6.768 3.452-1.457 6.897-1.723 10.349-0.791 5.433 1.724 10.737 2.649 15.912 2.915 4.379 0.265 9.152-0.129 14.062-1.326 4.909-1.056 9.15-3.447 12.602-7.164 5.7-6.1 8.751-12.863 9.417-20.161 0.531-7.292-0.531-13.788-3.187-19.495-1.988-4.241-2.915-7.428-2.784-9.819 0.136-2.253 0.796-4.37 1.988-6.1 1.729-2.52 4.377-4.903 7.829-7.43 3.447-2.518 7.294-4.637 11.671-6.496 4.379-1.859 8.622-3.452 12.999-4.644 4.379-1.19 8.225-1.859 11.671-1.859 2.921 0 5.707 0.668 8.089 1.995 2.527 1.321 4.379 3.583 5.578 6.496 2.784 7.429 7.557 13.932 14.318 19.501 6.768 5.571 14.463 8.355 22.817 8.355 8.756 0 16.315-2.219 22.817-7.79 6.632-5.569 11.269-14.202 13.924-19.202h0.395c0.798-3 2.126-4.411 4.114-6.134 1.988-1.593 3.982-2.802 6.237-2.802 3.316 0 6.897 0.391 11.138 1.316 4.249 1.063 8.225 2.32 12.073 4.043 3.847 1.723 7.428 3.546 10.608 5.67 3.187 2.119 5.569 4.096 7.033 6.084 3.18 5.039 3.581 9.939 1.063 14.848-3.187 7.156-4.249 14.581-3.316 22.539 0.925 7.824 4.372 14.855 10.343 21.086 2.656 3.051 5.972 5.173 9.812 6.366a55.849 55.849 0 0 0 11.412 2.389c3.846 0.267 7.559 0.267 11.276-0.395 3.711-0.531 6.761-1.197 9.28-1.995 2.785-0.927 5.175-1.457 7.43-1.457 2.253 0 4.909 0.797 7.824 2.255 2.92 1.462 5.576 3.983 8.094 7.428a57.55 57.55 0 0 1 6.231 11.671c1.723 4.249 3.051 8.491 3.717 12.74 0.797 4.241 0.927 7.822 0.396 10.737-0.928 3.451-2.916 6.236-5.572 8.49z m-92.051 7.565c-4.25-9.689-9.948-18.309-17.248-25.739-7.292-7.421-15.782-13.128-25.73-17.369-9.812-4.25-20.291-6.373-31.431-6.373-11.147 0-21.489 2.124-31.308 6.373-9.812 4.241-18.303 9.948-25.594 17.369-7.3 7.43-12.999 16.049-17.248 25.739-4.241 9.812-6.367 20.155-6.367 31.301 0 11.138 2.126 21.619 6.367 31.301 4.25 9.817 9.948 18.303 17.248 25.601 7.162 7.292 15.782 12.999 25.465 17.24 9.683 4.243 20.161 6.367 31.301 6.367 11.009 0 21.619-2.124 31.437-6.367 9.812-4.241 18.439-9.948 25.73-17.24 7.294-7.299 12.999-15.784 17.378-25.601 4.112-9.812 6.231-20.163 6.231-31.301 0-11.146-1.99-21.489-6.231-31.301z"  horiz-adv-x="1024" />

    
    <glyph glyph-name="fangwuguanli" unicode="&#58902;" d="M512.192 710.172l262.25-241.242a99.999 99.999 0 0 1-53.173-88.359v-330h-420v330a99.998 99.998 0 0 1-52.338 87.911l263.261 241.69m0.013 107.257c-20.443 0-40.886-7.787-56.5-23.364L80.059 449.199c-25.147-25.087-7.557-68.062 27.963-68.317l93.247-0.311v-350c0-44.183 35.817-80 80-80h460c44.183 0 80 35.817 80 80v350h94.42c35.638 0 53.484 43.089 28.282 68.287L568.769 794.002c-15.619 15.617-36.091 23.427-56.564 23.427z"  horiz-adv-x="1024" />

    
    <glyph glyph-name="fangankaoheguanli" unicode="&#58903;" d="M919 30.417C919-31.117 869.117-81 807.583-81H217.417C155.883-81 106-31.117 106 30.417V737.583C106 799.117 155.883 849 217.417 849h590.167C869.117 849 919 799.117 919 737.583v-707.166zM217.347 744c-3.495 0-7.347-2.922-7.347-6.417v-707.167c0-3.555 3.791-6.417 7.347-6.417h589.307c3.552 0 7.347 2.862 7.347 6.417V737.583c0 3.555-3.795 6.417-7.347 6.417H771v-65.347C771 633.466 733.978 597 688.788 597H335.206C290.019 597 253 633.466 253 678.653V744h-35.653zM666 702v42H358v-42h308zM452.553 206.292c-14.015 0-27.192 5.456-37.104 15.363L283.88 353.256c-9.91 9.91-15.369 23.089-15.369 37.108 0 14.018 5.459 27.198 15.371 37.11 9.912 9.912 23.091 15.371 37.109 15.371s27.197-5.459 37.11-15.371l94.454-94.48 213.342 213.342c9.913 9.913 23.092 15.371 37.11 15.371 14.019 0 27.198-5.459 37.11-15.371 9.912-9.912 15.371-23.092 15.371-37.11s-5.459-27.198-15.372-37.11L489.661 221.66c-9.916-9.912-23.093-15.368-37.108-15.368z"  horiz-adv-x="1024" />

    
    <glyph glyph-name="getigongshanghu" unicode="&#58904;" d="M207.32-24c-50.18 0-91.32 41.428-91.32 92.35V428.879c-35 23.2-54 61.405-54 108.838v4.54c0 8.842 2.777 17.616 7.935 25.383l117.114 181.054C205.611 776.437 236.596 793 269.893 793h483.099c33.262 0 64.203-16.528 82.767-44.212l117.458-181.05c5.059-7.593 7.784-16.381 7.784-25.426v-4.54c0-47.58-19-85.853-54-109.034v-360.39c0-24.602-9.532-47.735-26.555-65.139C863.282-14.336 840.206-24 815.753-24H207.32z m607.712 91c0.152 0-0.032 0.842-0.032 1.376V404.753c-35 0.102-69.53 10.934-103.394 32.231-34.055-21.38-68.844-32.206-103.763-32.206-34.94 0-69.769 10.826-103.794 32.209-34.055-21.383-68.901-32.209-103.797-32.209-34.358 0-68.468 10.467-101.948 31.144C275.786 419.182 255 408.85 227 405.759v-0.981l-18-0.024v-336.377c0-0.46-0.363-0.376-0.286-1.376h606.318zM154.829 529.136c1.702-16.873 9.5-31.96 50.033-32.61l2.759 0.004c16.244 0 24.931 3.321 51.103 25.303l2.221 1.904a793.406 793.406 0 0 0 6.276 5.23 46.024 46.024 0 0 0 29.161 10.457 45.995 45.995 0 0 0 29.141-10.443c25.448-20.927 51.976-32.451 74.699-32.451 22.772 0 49.296 11.521 74.686 32.44a46 46 0 0 0 29.171 10.466 46.001 46.001 0 0 0 29.165-10.46c25.437-20.921 51.964-32.445 74.687-32.445 22.749 0 49.275 11.522 74.692 32.445a45.995 45.995 0 0 0 29.166 10.461 45.997 45.997 0 0 0 29.165-10.461c25.795-21.225 51.624-32.445 74.692-32.445 20.224 0 34.602 3.471 42.735 10.317 3.731 3.14 8.611 8.798 10.174 22.318l-109.096 168.48a7.87 7.87 0 0 1-6.442 3.355h-483.15a7.753 7.753 0 0 1-6.434-3.358L154.829 529.136zM304.203 191c-14.113 0-25.388 4.04-33.512 12.057-8.214 8.106-12.379 19.389-12.379 33.56 0 14.172 4.165 25.333 12.38 33.438C278.815 278.071 290.09 282 304.203 282h124.045c14.113 0 25.387-3.936 33.51-11.952 8.213-8.105 12.377-19.335 12.377-33.507 0-14.171-4.163-25.409-12.376-33.514-8.123-8.019-19.398-12.027-33.511-12.027H304.203z"  horiz-adv-x="1024" />

    
    <glyph glyph-name="genzongjiluguanli" unicode="&#58905;" d="M374.497 693.46c0-77.034-61.807-138.843-138.841-138.843S96.815 616.426 96.815 693.46 158.622 832.301 235.656 832.301c76.144 0 138.841-61.807 138.841-138.841z m187.217 68.969c0-38.516-31.349-69.866-69.872-69.866-38.516 0-69.866 31.35-69.866 69.866 0 38.522 31.35 69.872 69.866 69.872 38.523 0 69.872-31.35 69.872-69.872z m201.546-17.014c0-38.523-31.349-69.872-69.872-69.872-38.516 0-69.866 31.349-69.866 69.872 0 38.516 31.35 69.866 69.866 69.866 39.413 0.001 69.872-31.35 69.872-69.866z m163.925-90.473c0-38.516-31.354-69.872-69.872-69.872-38.516 0-69.866 31.356-69.866 69.872 0 38.518 31.35 69.866 69.866 69.866 38.518 0.001 69.872-31.348 69.872-69.866zM312.69 475.79s43.898 122.719 214.088 143.32c0 0 261.56 17.915 306.348-240.064 22.394-126.299 12.542-398.614-189.004-440.712-48.37-9.858-189.901 2.684-171.984 129.881 6.272 44.788 48.37 118.242 0 182.739-34.936 45.684-204.236 58.221-159.448 224.836"  horiz-adv-x="1024" />

    
    <glyph glyph-name="gongzuotaizhang" unicode="&#58906;" d="M727.932 835.387H228.055c-78.804 0-142.69-63.885-142.69-142.69v-437.574a95.143 95.143 0 0 1 27.861-67.263 95.134 95.134 0 0 1 67.265-27.861h111.295v-162.663a64.688 64.688 0 0 1 64.684-64.684h515.102a64.67 64.67 0 0 1 47.285 18.083 64.689 64.689 0 0 1 19.779 46.602V626.588A209.272 209.272 0 0 1 727.932 835.387zM177.635 691.75a47.544 47.544 0 0 0 13.932 33.629 47.555 47.555 0 0 0 33.634 13.932h15.218c26.269 0 47.559-21.29 47.559-47.561v-436.626l-110.343-0.948V691.75zM843.51 28.73h-456.6V691.75a148.703 148.703 0 0 1-9.036 47.561h350.058a113.675 113.675 0 0 0 115.577-112.723V28.73z m0 0M523.889 558.097h174.08c26.268 0 47.562-21.294 47.562-47.562v-0.001c0-26.268-21.294-47.562-47.562-47.562h-174.08c-26.268 0-47.562 21.294-47.562 47.562v0.001c0 26.268 21.294 47.562 47.562 47.562z m0-204.995h174.08c26.268 0 47.562-21.294 47.562-47.562 0-26.268-21.294-47.562-47.562-47.562h-174.08c-26.268 0-47.562 21.294-47.562 47.562 0 26.268 21.294 47.562 47.562 47.562z"  horiz-adv-x="1024" />

    
    <glyph glyph-name="gongzuozhize" unicode="&#58907;" d="M248.022-90.005C182.517-90.005 129-37.381 129 27.298V740.723C129 805.39 182.743 858 248.248 858h527.484C841.248 858 895 805.39 895 740.723v-713.415C895-37.37 841.248-90 775.731-90H258.248l-10.226-0.005zM268.958 768C242.606 768 221 746.495 221 719.894v-672.592C221 20.718 242.606-1 268.958-1h486.054C781.374-1 803 20.718 803 47.302V719.894C803 746.495 781.374 768 755.012 768H268.958zM322.786 254c-19.196 0-34.813 15.769-34.813 35s15.617 35 34.813 35h379.25c19.193 0 34.809-15.77 34.809-35s-15.615-35-34.809-35h-379.25zM322.786 71c-19.196 0-34.813 15.769-34.813 35s15.617 35 34.813 35h379.25c19.193 0 34.809-15.77 34.809-35s-15.615-35-34.809-35h-379.25zM500.458 437c-16.446 0-28.382 14.8-28.382 35.008 0 20.199 11.937 34.992 28.382 34.992h201.985c16.435 0 28.362-14.793 28.362-34.992 0-20.208-11.928-35.008-28.362-35.008H500.458zM500.458 620c-16.446 0-28.382 14.792-28.382 35s11.937 35 28.382 35h201.985c16.435 0 28.362-14.792 28.362-35s-11.928-35-28.362-35H500.458zM295.013 433.444l46.072 210.144c-13.298 3.421-22.925 13.031-22.925 24.56 0 14.362 14.945 25.853 33.314 25.853h42.109c18.371 0 33.316-11.49 33.316-25.853 0-11.787-10.063-21.673-23.824-24.877l48.548-209.781-77.337-71.868-79.273 71.822z"  horiz-adv-x="1024" />

    
    <glyph glyph-name="gonggao" unicode="&#58908;" d="M542.143-37.475a52.496 52.496 0 0 0-34.884 13.248c-1.76 1.559-43.209 38.248-88.643 75.307-67.644 55.173-94.308 70.622-102.16 74.557l-204.974 0.011C85.688 125.649 65 146.636 65 172.434V595.469C65 621.267 85.39 643 111.185 643h184.619c7.952 3 36.764 18.31 114.357 75.476 51.994 38.305 98.801 75.359 99.268 75.731 9.262 7.37 20.879 11.347 32.716 11.347 7.846 0 15.401-1.841 22.474-5.248C582.692 791.583 595 772.961 594 752.918v-737.852c0-20.645-11.833-39.454-30.659-47.918-6.816-3.067-13.729-4.623-21.198-4.623z m-218.986 266.94c22.446 0 50.022-7.085 157.492-94.154 3.628-2.937 7.35-5.955 11.35-9.045V649.77c-8-6.106-16.401-12.259-24.146-17.934C350.982 546.213 323.302 539 301.653 539H167v-307.132c0-0.904-0.004-1.428 0.019-2.121 0.424-0.01 0.869 0.253 1.372 0.253h152.788c0.348 0 0.679-0.275 0.99-0.289 0.311 0.014 0.641-0.246 0.988-0.246zM654.164 166h-0.23c-25.827 0-46.824 20.912-46.824 46.754 0 16.296 8.609 31.593 22.467 40.054l0.875 0.463c48.021 26.13 77.851 76.271 77.851 130.891 0 53.444-28.924 103.073-75.486 129.535l-0.113 0.059c-14.421 8.319-23.381 23.968-23.381 40.845 0 25.871 21.046 46.918 46.914 46.918 10.438 0 21.4-5.373 24.512-7.019l0.725-0.404c36.083-21.027 66.335-51.15 87.487-87.112 21.821-37.103 33.356-79.582 33.356-122.843 0-88.001-47.805-169.34-124.759-212.272l-0.836-0.274c-2.73-1.362-12.359-5.595-22.558-5.595zM734.893 30.346c-25.795 0-46.78 20.988-46.78 46.786 0 16.976 10.013 33 26.154 41.901 93.88 54.992 152.19 156.549 152.19 265.107 0 108.658-58.376 210.257-152.376 265.222-15.925 8.782-25.419 24.271-25.419 41.499 0 25.798 20.988 46.786 46.786 46.786 10.942 0 19.374-4.141 26.183-8.21 59.137-34.714 108.701-84.311 143.338-143.435 35.735-60.995 54.623-130.8 54.623-201.868 0-71.227-18.969-141.168-54.856-202.263-34.802-59.246-84.585-108.884-143.968-143.549-7.176-4.158-15.232-7.976-25.875-7.976z"  horiz-adv-x="1024" />

    
    <glyph glyph-name="huodongguanli" unicode="&#58909;" d="M515.75 654.201v-456.317l-339.5 152.774V501.354l339.5 152.847M567.871 783c-7.747-0.001-15.701-1.923-23.24-6.129L114.498 583.22C91.22 572.74 76.25 549.583 76.25 524.054v-196.1c0-25.533 14.975-48.693 38.259-59.171L544.631 75.23c7.541-4.207 15.492-6.129 23.24-6.129 25.005 0 47.879 20.024 47.879 47.889V735.111c0 27.867-22.872 47.891-47.879 47.889zM207.25-15c-27.5 0-50 22.5-50 50V261c0 27.5 22.5 50 50 50s50-22.5 50-50v-226c0-27.5-22.5-50-50-50zM409 165c-27.5 0-50 22.5-50 50V645c0 27.5 22.5 50 50 50s50-22.5 50-50v-430c0-27.5-22.5-50-50-50zM644.75 420.5c0 27.5 22.5 50 50 50h203c27.5 0 50-22.5 50-50s-22.5-50-50-50h-203c-27.5 0-50 22.5-50 50zM664.913 526.163c-19.445 19.445-19.445 51.265 0 70.711l143.543 143.543c19.445 19.445 51.265 19.445 70.711 0 19.445-19.445 19.445-51.265 0-70.711L735.623 526.163c-19.445-19.446-51.265-19.446-70.71 0zM654.334 314.837c-19.445-19.445-19.445-51.265 0-70.711l143.543-143.543c19.445-19.445 51.265-19.445 70.711 0 19.445 19.445 19.445 51.265 0 70.711L725.045 314.837c-19.446 19.446-51.265 19.446-70.711 0z"  horiz-adv-x="1024" />

    
    <glyph glyph-name="jidingheyuchuli" unicode="&#58910;" d="M240.71 453.177c-25.533 0-44.066-18.535-44.066-44.071 0-25.537 18.532-44.071 44.066-44.071 25.537 0 44.072 18.534 44.072 44.071 0 25.536-18.535 44.071-44.072 44.071zM374.142 453.177c-25.537 0-44.071-18.535-44.071-44.071 0-25.537 18.535-44.071 44.071-44.071 25.537 0 44.072 18.534 44.072 44.071 0 25.536-18.535 44.071-44.072 44.071zM907 357.405v127.02C907 550.344 853.912 604 788.184 604H763V760.609c0 25.536-18.453 44.071-44 44.071s-44-18.535-44-44.071V604H296V760.609c0 25.536-18.453 44.071-44 44.071s-44-18.535-44-44.071V604h-22.392C119.856 604 66 550.344 66 484.425v-200.859C66 217.65 119.856 164 185.608 164h286.236c9.559-53 36.431-101.874 76.775-138.18 44.853-40.363 103.182-62.579 164.242-62.579 65.774 0 127.269 25.387 173.33 71.485 46.049 46.085 71.313 107.696 71.313 173.483C957.503 262.014 940 314.723 907 357.405zM548.551 390.35C508.245 354.02 481.397 306 471.843 252H185.608C166.156 252 155 263.927 155 283.566V484.425C155 504.067 166.156 516 185.608 516h602.577C807.61 516 819 504.067 819 484.425v-55.381c-33 15.823-69.184 24.025-106.355 24.025-61.05 0-119.26-22.307-164.094-62.719z m164.31-348.939c-89.223 0-161.811 72.588-161.811 161.811s72.588 161.812 161.811 161.812 161.811-72.589 161.811-161.812-72.588-161.811-161.811-161.811zM714 181c-16.569 0-30 13.431-30 30V319c0 16.569 13.431 30 30 30 16.569 0 30-13.431 30-30v-108c0-16.569-13.431-30-30-30zM692.787 232.213c11.716 11.716 30.711 11.716 42.426 0l59.287-59.287c11.716-11.716 11.716-30.711 0-42.426-11.716-11.716-30.711-11.716-42.426 0l-59.287 59.287c-11.716 11.716-11.716 30.71 0 42.426z"  horiz-adv-x="1024" />

    
    <glyph glyph-name="jigouguanli" unicode="&#58911;" d="M76.892-61c-24.867 0-45.098 20.413-45.098 45.505 0 25.086 20.231 45.495 45.098 45.495H106V708.747c0 32.008 12.635 62.189 35.579 84.983C164.472 816.474 194.729 829 226.777 829h349.63C642.351 829 696 775.055 696 708.747V529h101.218C863.266 529 917 475.153 917 408.966V30h30.108c24.867 0 45.098-20.436 45.098-45.554-0.141-25.084-20.418-45.446-45.201-45.446H76.892zM827 30V409.075c0 16.22-13.039 28.925-29.685 28.925H696v-408h131z m-221 0V708.747C606 725.15 593.05 738 576.517 738H226.881C210.125 738 197 725.15 197 708.747V30h409zM291.728 550c-24.867 0-45.098 20.133-45.098 44.999 0 24.867 20.231 45.001 45.098 45.001h221.839c24.866 0 45.097-20.134 45.097-45.001 0-24.866-20.23-44.999-45.097-44.999H291.728zM291.728 383c-24.867 0-45.098 20.633-45.098 45.5s20.231 45.5 45.098 45.5h221.839c24.866 0 45.097-20.634 45.097-45.5s-20.23-45.5-45.097-45.5H291.728zM291.728 220c-24.867 0-45.098 20.02-45.098 44.889-0.007 11.876 4.806 23.514 13.205 31.907 8.51 8.509 19.824 13.205 31.856 13.205h221.875c24.866 0 45.097-20.345 45.097-45.209 0.014-12.043-4.673-23.219-13.198-31.743C536.952 224.534 525.635 220 513.6 220H291.728z"  horiz-adv-x="1024" />

    
    <glyph glyph-name="jichuxinxipeizhi" unicode="&#58912;" d="M512 734c47.294 0 93.12-9.24 136.205-27.464 41.666-17.623 79.107-42.873 111.282-75.049s57.426-69.616 75.049-111.283C852.76 477.12 862 431.294 862 384s-9.24-93.12-27.464-136.205c-17.623-41.666-42.873-79.107-75.049-111.282s-69.616-57.426-111.282-75.049C605.12 43.24 559.294 34 512 34s-93.12 9.24-136.205 27.464c-41.666 17.623-79.107 42.873-111.283 75.049s-57.426 69.616-75.049 111.282C171.24 290.88 162 336.706 162 384s9.24 93.12 27.464 136.205c17.623 41.666 42.873 79.107 75.049 111.283s69.616 57.426 111.283 75.049C418.88 724.76 464.706 734 512 734m0 100C263.472 834 62 632.528 62 384s201.472-450 450-450 450 201.472 450 450S760.528 834 512 834zM512 572.5m-60 0a60 60 0 1 1 120 0 60 60 0 1 1-120 0ZM512 135.5c-33 0-60 27-60 60v210c0 33 27 60 60 60s60-27 60-60v-210c0-33-27-60-60-60z"  horiz-adv-x="1024" />

    
    <glyph glyph-name="jiguandanwei" unicode="&#58913;" d="M102.441-66.599c-22.63 0-41.04 18.41-41.04 41.039 0 22.63 18.411 41.04 41.04 41.04H921.56c22.629 0 41.04-18.41 41.04-41.04 0-22.629-18.411-41.039-41.04-41.039H102.441z m31.086 112.601c-22.523 0-40.846 18.323-40.846 40.846 0 22.522 18.323 40.845 40.846 40.845h34.808V441.878h-27.384c-33.84 0-61.37 31.301-61.37 69.777 0 24.792 11.187 47.188 29.925 59.911L480.089 824.485c9.474 6.617 20.508 10.115 31.914 10.115 11.187 0 22.156-3.499 31.721-10.118L915.04 571.067c18.123-12.779 29.381-35.618 29.381-59.605 0-38.369-27.619-69.585-61.568-69.585h-49.081v-314.185h62.959c22.523 0 40.846-18.323 40.846-40.845 0-22.523-18.323-40.846-40.846-40.846H133.527zM741.913 127.5V441.878h-95.819V127.5h95.819z m-193.147 0V441.878h-95.819V127.5h95.819z m-190.803 0V441.878h-95.818V127.5h95.818z m465.884 401.153L512.001 741.651 199.973 528.653h623.874z"  horiz-adv-x="1024" />

    
    <glyph glyph-name="huiyiguanli" unicode="&#58914;" d="M934.402 8.101H89.598c-38.72 0-70.399 31.679-70.399 70.399s31.679 70.399 70.399 70.399h844.804c38.72 0 70.399-31.679 70.399-70.399s-31.679-70.399-70.399-70.399zM361.446 607.452c0-84.2 68.254-152.454 152.454-152.454 84.192 0 152.446 68.254 152.446 152.454 0 84.192-68.254 152.446-152.446 152.446-84.2 0.001-152.454-68.254-152.454-152.446zM795.01 225.376c-1.135-8.222-5.059-15.561-10.624-21.256-6.833-6.833-16.199-11.002-26.44-11.002H266.184c-18.854 0-34.538 14.04-37.07 32.258 0.253 5.442 0.759 10.879 1.265 16.32 9.236 84.891 56.172 158.65 123.729 204.195 14.93 9.996 34.413 9.866 49.216-0.253 10.754-7.338 22.27-13.664 34.413-18.724 24.161-10.248 49.847-15.436 76.286-15.436 26.438 0 52.125 5.189 76.291 15.436a197.688 197.688 0 0 1 33.019 17.835c14.801 9.995 34.284 9.871 48.963-0.253 66.29-45.67 112.343-118.794 121.449-202.801 0.506-5.44 1.012-10.877 1.265-16.319zM334.56 516.612c1.135-2.657 2.272-5.312 3.539-7.969-31.499-22.27-59.588-49.722-82.74-80.721-46.807 19.867-79.579 66.297-79.579 120.318 0 72.116 58.451 130.691 130.691 130.691 6.955 0 13.788-0.508 20.497-1.643-7.086-22.523-10.632-45.929-10.632-69.836-0.124-31.505 6.078-61.998 18.224-90.84zM211.585 409.581c7.208-4.936 14.801-9.364 22.769-13.034-25.173-42.378-41.117-88.43-47.696-137.009l-1.513-4.812v-8.853c-0.506-5.442-0.889-11.008-1.267-16.575l-0.13-2.026v-7.716l0.761-5.695a118.805 118.805 0 0 1 4.936-20.873H94.053c-16.192 0-29.603 12.02-31.753 27.582 0.255 4.683 0.631 9.359 1.137 13.918 7.969 72.746 48.074 136.003 106.017 175.092 12.651 8.854 29.479 8.73 42.131 0.001zM851.507 548.24c0-55.035-34.032-102.223-82.234-121.455-22.393 30.363-49.469 57.316-80.844 79.709 1.52 3.286 3.039 6.579 4.43 9.988 12.144 28.848 18.346 59.465 18.346 90.84 0 23.913-3.546 47.443-10.632 69.966 6.58 1.006 13.289 1.513 20.244 1.513 72.115 0.13 130.69-58.321 130.69-130.561zM961.7 220.694a32.165 32.165 0 0 0-9.106-18.216c-5.826-5.82-13.795-9.489-22.648-9.489h-95.774a119.163 119.163 0 0 1 4.936 20.873l1.137 7.592-0.378 7.714c-0.383 6.963-0.882 14.048-1.643 21.005-5.565 51.741-22.14 100.958-47.949 144.86a163.95 163.95 0 0 1 24.414 13.535c12.651 8.605 29.354 8.475 42.006-0.253 56.802-39.091 96.276-101.842 104.121-173.827 0.377-4.429 0.76-9.112 0.884-13.794z m0 0"  horiz-adv-x="1024" />

    
    <glyph glyph-name="jishengguanli" unicode="&#58915;" d="M766.916 24H741V489.991c0 120.968-64 209.228-157 238.3v43.615c0 44.126-32.06 79.433-71 79.433-38.939 0-71-35.302-71-79.433v-43.615c-94-29.072-158-117.332-158-238.3V24h-26.915c-31.15 0-56.591-28.58-56.591-53.503 0-24.921 25.44-53.497 56.591-53.497h509.832c31.668 0 56.589 28.576 56.589 53.497 0 24.923-24.916 53.503-56.59 53.503zM664 60H361V489.991c0 40.493 9.823 76.318 27.997 103.837 17.65 25.958 43.07 44.74 73.702 54.083 32.099 10.136 66.466 10.09 98.564 0.09h0.028c30.633-9 56.285-28.125 73.936-54.083C653.92 566.398 664 530.484 664 489.991V60z"  horiz-adv-x="1024" />

    
    <glyph glyph-name="jishiben" unicode="&#58916;" d="M226.235-66c-24.43 0-47.565 9.682-65.144 27.263-17.335 17.339-26.881 40.61-26.881 65.526V148.535h-15.698c-31.21 0-56.512 25.301-56.512 56.512 0 31.21 25.301 56.512 56.512 56.512h15.698V363.07h-15.698C87.301 363.07 62 388.371 62 419.581c0 31.21 25.301 56.512 56.512 56.512h15.698V577.605h-15.698c-31.21 0-56.512 25.301-56.512 56.512 0 31.21 25.301 56.512 56.512 56.512h15.698v50.582c0 24.92 9.547 48.191 26.883 65.525C178.666 824.316 201.802 834 226.235 834h642.976c24.674 0 47.945-9.683 65.528-27.267 17.58-17.58 27.261-40.85 27.261-65.524v-714.42c0-24.67-9.681-47.94-27.259-65.526-17.589-17.582-40.86-27.263-65.53-27.263H226.235zM847.93 69V699c0 11.559-9.371 20.93-20.93 20.93h-58.605c-11.559 0-20.93-9.371-20.93-20.93v-630c0-11.559 9.371-20.93 20.93-20.93H827c11.559 0 20.93 9.371 20.93 20.93z m-213.488 0V699c0 11.559-9.371 20.93-20.93 20.93H268.163c-11.559 0-20.93-9.371-20.93-20.93v-8.372h14.651c31.21 0 56.512-25.301 56.512-56.512 0-31.21-25.301-56.512-56.512-56.512h-14.651v-101.512h14.651c31.21 0 56.512-25.301 56.512-56.512 0-31.21-25.301-56.512-56.512-56.512h-14.651v-101.512h14.651c31.21 0 56.512-25.301 56.512-56.512 0-31.21-25.301-56.512-56.512-56.512h-14.651V69c0-11.559 9.371-20.93 20.93-20.93h345.349c11.559 0 20.93 9.371 20.93 20.93z"  horiz-adv-x="1024" />

    
    <glyph glyph-name="jixiaochengjihuizong" unicode="&#58917;" d="M310.559-66c-26.056 0-47.254 21.398-47.254 47.498 0 26.103 21.198 47.502 47.254 47.502H465V189.39c-109 17.348-200.371 94.042-236.007 198.801a169.412 169.412 0 0 0-19.192-1.086c-4.338 0-9.189 0-14.159 0.638C119.385 394.118 62 451.07 62 520.478V669.547C62 704.634 92.173 733 129.26 733H213v33.74C213 803.827 243.335 834 280.34 834h463.317C780.664 834 811 803.827 811 766.74V733h83.74c37.087 0 67.26-29.947 67.26-66.979V518.46c0-34.081-14.578-66.408-41.046-91.027l-0.149-0.137c-28.33-25.917-66.229-40.191-106.713-40.191-4.381 0-9.316 0-14.289 0.638a160.942 160.942 0 0 0-4.783 0.483C759.393 283.447 668 206.738 559 189.39V29h154.445c26.054 0 47.25-21.399 47.25-47.502 0-26.099-21.196-47.498-47.25-47.498H310.559zM308 484.722c0-112.79 91.461-204.55 204.002-204.55 112.538 0 203.998 91.76 203.998 204.55V739H308v-254.278z m502.877-2.849c0.982-0.04 1.901-0.06 2.874-0.06 16.675 0 32.687 5.715 42.878 15.288l0.044 0.207c6.774 6.209 10.328 13.721 10.328 21.153V639h-56v-154.278c-0.001-0.966-0.118-1.915-0.124-2.849zM157 520.478c0-19.181 21.106-36.422 47.251-38.433 1.953-0.156 3.765-0.232 5.626-0.232 1.144 0 2.247 0.274 3.395 0.331-0.002 0.945-0.042 156.856-0.042 156.856H157v-118.522zM447.797 426c-10.309 0-20.022 4.668-26.647 12.653a34.45 34.45 0 0 0-7.39 28.165l9.262 53.832-39.205 38.33c-9.495 9.497-12.697 23.259-8.358 35.907 4.268 12.441 14.935 21.214 27.887 22.965l53.71 7.928 24.047 48.534c5.401 12.16 17.415 19.947 30.959 19.947 13.251 0 25.426-7.649 31.124-19.519l24.261-48.96 53.72-7.928c13.032-1.773 24.038-11.088 28.099-23.821 4.088-12.822 0.646-26.35-8.98-35.434l-38.802-37.921 9.263-53.821a34.363 34.363 0 0 0-7.399-28.123c-6.625-7.982-16.338-12.56-26.646-12.56-5.602 0-11.213 1.403-16.234 4.058l-48.217 25.214-48.233-25.308c-5.016-2.65-10.621-4.136-16.217-4.136-0.001-0.002-0.002-0.002-0.004-0.002z"  horiz-adv-x="1024" />

    
    <glyph glyph-name="jiankongshebeiguanli" unicode="&#58918;" d="M511.996 613.863c-101.112 0-183.311-80.643-183.311-179.832 0-99.19 82.199-179.832 183.311-179.832 101.113 0 183.318 80.643 183.318 179.832-0.001 99.189-82.206 179.832-183.318 179.832z m0-275.24c-53.64 0-97.26 42.791-97.26 95.413 0 52.624 43.62 95.483 97.26 95.483 53.646 0 97.267-42.795 97.267-95.417 0-52.619-43.621-95.479-97.267-95.479zM865.722 614.721c-19.299 44.865-46.993 85.093-82.311 119.733-35.216 34.553-76.316 61.714-122.052 80.739-47.377 19.69-97.645 29.628-149.459 29.628-51.812 0-102.081-9.938-149.465-29.628-45.729-18.93-86.732-46.091-122.045-80.739-35.216-34.544-62.916-74.876-82.215-119.733-20.066-46.475-30.195-95.793-30.195-146.622 0-50.824 10.129-100.142 30.195-146.617 19.299-44.865 46.999-85.093 82.311-119.733 35.216-34.551 76.324-61.712 122.06-80.739 6.364-2.65 12.824-5.116 19.388-7.479l-46.6-113.489h-7.435c-21.61 0-39.174-17.231-39.174-38.435 0-21.196 17.564-38.427 39.174-38.427h375.048c21.608 0 39.172 17.231 39.172 38.427 0 21.204-17.564 38.435-39.172 38.435h-8.395l-46.409 115.666c19.395 7.191 38.206 15.902 55.963 26.025 57.312 32.565 105.367 79.329 138.938 135.26a370.965 370.965 0 0 1 52.979 191.009c-0.107 50.926-10.243 100.244-30.301 146.719zM419.659 0.138l38.981 94.935c17.556-2.363 35.504-3.595 53.258-3.595 19.979 0 40.038 1.514 59.824 4.636l38.597-95.976h-190.66z m337.834 326.28c-24.998-41.548-60.615-76.31-103.235-100.394-43.075-24.434-92.365-37.406-142.451-37.406-76.077 0-147.66 29.115-201.436 81.871-53.775 52.756-83.46 122.977-83.46 197.61 0 74.638 29.686 144.859 83.46 197.615 53.776 52.751 125.358 81.871 201.436 81.871 76.083 0 147.659-29.12 201.441-81.871 53.961-52.756 83.543-122.984 83.543-197.615a274.992 274.992 0 0 0-39.298-141.681zM513.089 622.602c29.166 0 52.95 23.333 52.95 51.946s-23.784 51.946-52.95 51.946c-29.166 0-52.955-23.333-52.955-51.946s23.789-51.946 52.955-51.946zM513.25 703.505c0.968 0 1.735-0.76 1.735-1.705 0-0.945-0.767-1.705-1.735-1.705-0.966 0-1.735 0.76-1.735 1.705 0 0.945 0.769 1.705 1.735 1.705z"  horiz-adv-x="1024" />

    
    <glyph glyph-name="jianzhuwu" unicode="&#58919;" d="M922.463 493.762L631 670.395V753c0 44.183-35.817 80-80 80H141c-44.183 0-80-35.817-80-80v-740c0-44.183 35.817-80 80-80h740c44.183 0 80 35.817 80 80V425.345a80.001 80.001 0 0 1-38.537 68.417zM181 733h330c11.046 0 20-8.954 20-20v-660c0-11.046-8.954-20-20-20H181c-11.046 0-20 8.954-20 20V713c0 11.046 8.954 20 20 20z m660-700H651c-11.046 0-20 8.954-20 20V517.959c0 15.585 17.037 25.182 30.366 17.104l190-115.145A20 20 0 0 0 861 402.814V53c0-11.046-8.954-20-20-20zM396 506.401H296c-27.614 0-50 22.386-50 50s22.386 50 50 50h100c27.614 0 50-22.386 50-50s-22.386-50-50-50zM396 222.915H296c-27.614 0-50 22.386-50 50s22.386 50 50 50h100c27.614 0 50-22.386 50-50s-22.386-50-50-50z"  horiz-adv-x="1024" />

    
    <glyph glyph-name="jiaoseguanli" unicode="&#58920;" d=""  horiz-adv-x="1024" />

    
    <glyph glyph-name="jieluxiang" unicode="&#58921;" d="M621 498.849V753c0 44.183-35.817 80-80 80H141c-44.183 0-80-35.817-80-80v-740c0-44.183 35.817-80 80-80h740c44.183 0 80 35.817 80 80V175.953a80.002 80.002 0 0 1-33.867 65.359L654.867 433.491A80 80 0 0 0 621 498.849zM181 733h320c11.046 0 20-8.954 20-20v-660c0-11.046-8.954-20-20-20H181c-11.046 0-20 8.954-20 20V713c0 11.046 8.954 20 20 20z m471.54-628.345l49.997-35.32c15.935-11.257 7.971-36.335-11.54-36.335H641c-11.046 0-20 8.954-20 20v35.32c0 16.219 18.292 25.693 31.54 16.335zM621 259.759v36.637c0 16.216 18.285 25.691 31.533 16.34l200-141.17a20 20 0 0 0 8.467-16.34v-36.637c0-16.216-18.285-25.691-31.533-16.34l-200 141.17a20 20 0 0 0-8.467 16.34zM383 498H283c-27.5 0-50 22.5-50 50s22.5 50 50 50h100c27.5 0 50-22.5 50-50s-22.5-50-50-50zM383 261H283c-27.5 0-50 22.5-50 50s22.5 50 50 50h100c27.5 0 50-22.5 50-50s-22.5-50-50-50z"  horiz-adv-x="1024" />

    
    <glyph glyph-name="jingqingtongzhi" unicode="&#58922;" d="M512.003-75.398c-40.128 0-79.347 13.776-110.434 39.151C375.541-15.001 356.201 14 345.878 45H149.579c-22.702 0-42.48 13.906-50.387 35.119-7.952 21.334-2.107 44.729 14.891 59.446l0.588 0.559 4.483 3.417 0.411 0.287c0.465 0.357 3.815 2.998 9.799 9.335 11.768 12.376 22.997 28.282 33.431 47.326 29.43 54.015 51.497 214.372 53.636 330.273l0.16 17.33c0.027 78.87 30.752 153.01 86.524 208.782 55.796 55.795 129.98 86.523 208.888 86.523 78.91 0 153.096-30.728 208.892-86.523 55.796-55.795 86.524-129.98 86.524-208.887 0-59.062 5.565-132.388 14.888-196.147 10.3-70.45 24.126-124.216 38.935-151.395 10.286-18.839 21.459-34.677 33.2-47.059l5.689-5.766c2.542-2.378 3.696-3.299 3.943-3.489l0.688-0.505c18.55-12.65 27.205-34.832 22.062-56.684-5.217-22.161-22.993-38.3-45.288-41.117l-0.795-0.3-5.63-0.525h-196.98c-10.323-31-29.663-60.001-55.692-81.247-31.087-25.375-70.307-39.151-110.436-39.151zM471.982 45c11.318-9 25.268-13.291 40.02-13.291 14.752 0 28.701 4.291 40.019 13.291h-80.039z m292.693 108c-41.405 80-62.741 267.543-64.685 376.444l-0.162 18.222-0.154 8.404C695.381 656.934 613.005 736 512.02 736h-0.019c-100.994 0-183.377-79.063-187.664-179.934l-0.153-8.249C324.157 414.344 299.959 232 259.338 153h505.337z"  horiz-adv-x="1024" />

    
    <glyph glyph-name="jingqingfenfa" unicode="&#58923;" d="M167.15-66c-27.962 0-54.249 11.101-74.017 30.878-19.768 19.777-30.647 46.173-30.634 74.135l0.172 368.224c0.027 57.498 46.652 104.448 104.15 104.628l56.18 0.202V728.93C223 786.635 270.295 834 328 834h528.849c27.963 0 54.249-11.101 74.017-30.879 19.767-19.777 30.646-46.174 30.633-74.137l-0.253-528.452c-0.029-57.608-46.549-104.558-104.158-104.626L641 95.621v-56.55C641-18.635 593.314-66 535.61-66H167.15z m11.605 482.55c-11.498-0.036-20.77-9.42-20.777-20.918l-0.157-344.892c-0.004-5.593 2.194-10.751 6.147-14.707 3.954-3.955 9.233-6.033 14.827-6.033h345.156c11.541 0 20.049 9.188 20.049 20.729v44.778l-67.965-0.082c-26.354 0-47.528 21.395-47.528 47.692 0 26.263 21.476 47.657 47.739 47.692l368.647 0.493c11.519 0.015 20.923 9.399 20.929 20.919l0.301 505.038c0.003 5.593-2.166 10.751-6.119 14.707-3.954 3.956-9.204 6.034-14.798 6.034H339.659C328.118 738 318 728.811 318 717.271v-369.397c0-26.297-21.204-47.691-47.5-47.691S223 321.577 223 347.874V416.69l-44.245-0.14zM263.171 88c-12.747 0-24.727 4.818-33.736 13.835-9.004 9.013-13.959 20.918-13.952 33.657 0.007 12.74 4.974 24.677 13.987 33.679l312.458 312.043-30.003 29.493c-11.146 10.959-15.248 27.054-10.704 42.011 4.544 14.957 16.908 26.052 32.267 28.96l157.439 29.804a42.341 42.341 0 0 0 7.862 0.74c12.486 0 24.232-5.558 32.229-15.249 7.968-9.656 11.174-22.254 8.795-34.566l-30.329-156.915c-3.8-19.663-21.128-33.935-41.202-33.935-11.238 0-21.802 4.451-29.747 12.531l-29.165 29.665L296.874 101.8c-9.004-8.993-20.973-13.8-33.7-13.8h-0.003z"  horiz-adv-x="1024" />

    
    <glyph glyph-name="jiankongshipin" unicode="&#58924;" d="M117.797-64.601c-14.63 0-28.549 5.614-38.742 15.807C68.862-38.601 63-24.93 63-10.301V305.133c0 14.629 5.862 28.3 16.055 38.493 10.193 10.193 23.988 15.807 38.618 15.807s28.314-5.614 38.507-15.806c10.193-10.193 15.82-23.864 15.82-38.494V177h98V312.252l-103.822 79.94c-53.318 41.204-63.263 118.203-21.967 171.647L315.215 785.05c23.347 30.216 58.521 47.55 96.568 47.55 27.225 0 52.936-8.922 74.401-25.802l305.314-235.174c23.125-17.73 39.104-43.314 44.97-72.009a123.939 123.939 0 0 0-2.087-58.154l80.128-19.251 0.559-0.168c7.77-2.333 17.848-8.588 23.276-12.188a21.884 21.884 0 0 0 2.781-1.88l0.72-0.491 0.963-0.969c17.598-15.921 22.974-43.806 12.095-63.881C948.464 330.757 815 158.568 753 78.769v-2.159L736.6 60h-0.666l-1.332-1h-3.416c-8.195-4-17.446-6.753-26.689-6.753-12.069 0-23.414 3.871-32.806 11.179l-1.016 0.794-1.148 1.147c-5.477 4.146-12.362 10.663-16.922 19.638l-36.827 69.178c-20.469-14.467-45.168-22.439-70.849-22.439-27.096 0-52.743 8.698-74.236 25.151L378 228.529v-105.838C378 93.116 353.873 69 324.301 69H172v-79.301c0-14.629-5.565-28.3-15.758-38.494-10.193-10.192-23.815-15.806-38.445-15.806z m596.039 269.635l99.992 128.692-42.848 10.14-77.711-100.306 20.567-38.526z m-302.413 519.13c-4.089 0-7.802-1.849-10.185-5.072l-0.254-0.337L229.72 496.643l-0.191-0.233c-2.941-3.595-2.957-7.518-2.705-9.537 0.251-2.012 1.231-5.801 4.97-8.564l0.33-0.249 305.651-235.428 0.237-0.194c2.834-2.318 5.87-2.804 7.917-2.804 4.09 0 7.803 1.849 10.186 5.072l170.839 222.435 0.204 0.249c2.941 3.593 2.957 7.515 2.704 9.533-0.251 2.012-1.231 5.799-4.967 8.561l-0.349 0.264L419.57 721.17l-0.23 0.188c-2.833 2.319-5.869 2.806-7.917 2.806zM572.909 427.096a54.369 54.369 0 0 0-27.231 7.323c-16.778 9.72-27.149 27.801-27.068 47.195 0.026 29.919 24.375 54.248 54.3 54.248 29.941 0 54.3-24.359 54.3-54.3 0.093-19.311-10.281-37.414-27.071-47.145a54.381 54.381 0 0 0-27.23-7.321z"  horiz-adv-x="1024" />

    
    <glyph glyph-name="jingweiguanli" unicode="&#58925;" d="M819.743 586.885C715.678 629.425 619.07 768.66 511.996 768.66c-107.068 0-203.675-139.235-307.745-181.775-118.443-48.423-177.11-53.862-177.11-88.025 0-28.497 52.383-79.275 69.317-99.86 16.928-20.585 14.049-53.515 15.142-67.542 143.515-55.268 400.402-58.444 400.402-58.444s256.882 3.177 400.398 58.444c1.093 14.027-1.786 46.962 15.146 67.542 16.928 20.585 69.313 71.363 69.313 99.86 0 34.163-58.662 39.602-177.11 88.025h-0.006z m-209.445-120.77c-13.344-73.337-52.471-134.965-98.301-134.965-39.228 0-92.181 60.68-98.29 134.965-6.715 81.656 36.031 134.959 98.29 134.959 62.266 0 112.739-55.571 98.301-134.959z m-478.55-216.322c8.247-86.267 175.357-250.453 380.336-250.453 205.045 0 372.197 164.294 380.347 250.533-80.742-38.513-220.96-63.997-380.429-63.997-159.354 0-299.492 25.445-380.254 63.917z m0 0"  horiz-adv-x="1024" />

    
    <glyph glyph-name="jinrongjigou" unicode="&#58926;" d="M613.427 623.318l-95.424-179.085-95.135 180.06c-9.604 18.178-32.065 25.218-50.327 15.775l-5.018-2.595c-19.021-9.836-25.941-33.587-15.18-52.1l99.419-171.031h-85.72c-20.169 0-36.519-16.35-36.519-36.519 0-20.169 16.35-36.519 36.519-36.519h101.399v-55.406h-101.4c-20.169 0-36.519-16.35-36.519-36.519v-0.704c0-20.169 16.35-36.519 36.519-36.519H467.44V157.6c0-25.803 20.918-46.721 46.721-46.721 25.803 0 46.721 20.918 46.721 46.721v54.556h97.062c20.178 0 36.535 16.357 36.535 36.535v0.704c0 20.178-16.357 36.535-36.535 36.535h-97.062v55.41h97.062c20.178 0 36.535 16.357 36.535 36.535 0 20.178-16.357 36.535-36.535 36.535H575.12l103.466 171.984c10.89 18.101 4.667 41.622-13.751 51.969-18.322 10.292-41.526 3.502-51.408-15.045z m18.013 33.805M512 734c47.294 0 93.12-9.24 136.205-27.464 41.666-17.623 79.107-42.873 111.282-75.049s57.426-69.616 75.049-111.283C852.76 477.12 862 431.294 862 384s-9.24-93.12-27.464-136.205c-17.623-41.666-42.873-79.107-75.049-111.282s-69.616-57.426-111.282-75.049C605.12 43.24 559.294 34 512 34s-93.12 9.24-136.205 27.464c-41.666 17.623-79.107 42.873-111.283 75.049s-57.426 69.616-75.049 111.282C171.24 290.88 162 336.706 162 384s9.24 93.12 27.464 136.205c17.623 41.666 42.873 79.107 75.049 111.283s69.616 57.426 111.283 75.049C418.88 724.76 464.706 734 512 734m0 100C263.472 834 62 632.528 62 384s201.472-450 450-450 450 201.472 450 450S760.528 834 512 834z"  horiz-adv-x="1024" />

    
    <glyph glyph-name="jiudianzhusu" unicode="&#58927;" d="M931 411.66c0 56.383-45.707 102.09-102.09 102.09h-66.318C706.484 513.75 661 468.266 661 412.158v-255.393c0-21.547 17.468-39.015 39.015-39.015h191.97c21.547 0 39.015 17.468 39.015 39.015V411.66zM615 701.5c0 48.187-39.063 87.25-87.25 87.25H181.686C133.458 788.75 94 749.292 94 701.064v-545.3c0-21.547 17.468-39.015 39.015-39.015h444.819c20.527 0 37.167 16.64 37.167 37.167V701.5zM300 238c0-11.046-8.954-20-20-20h-60c-11.046 0-20 8.954-20 20v60c0 11.046 8.954 20 20 20h60c11.046 0 20-8.954 20-20v-60z m0 187c0-11.046-8.954-20-20-20h-60c-11.046 0-20 8.954-20 20v60c0 11.046 8.954 20 20 20h60c11.046 0 20-8.954 20-20v-60z m0 176c0-11.046-8.954-20-20-20h-60c-11.046 0-20 8.954-20 20v60c0 11.046 8.954 20 20 20h60c11.046 0 20-8.954 20-20v-60z m212-363c0-11.046-8.954-20-20-20h-60c-11.046 0-20 8.954-20 20v60c0 11.046 8.954 20 20 20h60c11.046 0 20-8.954 20-20v-60z m0 187c0-11.046-8.954-20-20-20h-60c-11.046 0-20 8.954-20 20v60c0 11.046 8.954 20 20 20h60c11.046 0 20-8.954 20-20v-60z m0 176c0-11.046-8.954-20-20-20h-60c-11.046 0-20 8.954-20 20v60c0 11.046 8.954 20 20 20h60c11.046 0 20-8.954 20-20v-60zM912-20.75H112c-27.5 0-50 22.5-50 50s22.5 50 50 50h800c27.5 0 50-22.5 50-50s-22.5-50-50-50z"  horiz-adv-x="1024" />

    
    <glyph glyph-name="jingweidanwei" unicode="&#58928;" d="M509.818-94c-37.334 0-71.147 11.14-97.784 32.648-3.96 3.195-12.644 8.136-21.041 13.026l-0.202 0.061c-44.59 26.146-119.222 69.879-165.633 186.714-43.838 110.542-60.733 283.228-61.431 290.526-1.086 11.397 2.708 23.01 10.408 31.479 7.7 8.468 18.681 13.546 30.126 13.546h596.742c11.262 0 22.123-4.955 29.798-13.196 7.675-8.242 11.617-19.525 10.816-30.758-1.401-19.226-14.514-190.356-44.044-288.263-14.164-47.005-34.481-84.431-62.111-114.354-24.227-26.236-50.999-43.426-74.621-58.58-11.864-7.57-24.111-15.392-35.133-24.024l-0.115 0.137C592.513-80.18 551.407-94 509.849-94h-0.031z m-77.892 116.162a257.386 257.386 0 0 0 31.208-20.196l0.267-0.209c15.042-12.186 33.629-14.743 46.573-14.743 23.75 0.001 47.194 7.864 66.077 22.144 13.319 10.279 26.903 19.042 40.039 27.517l0.927 0.597c44.452 28.46 79.54 50.924 102.673 127.973 13.294 44.198 23.226 108.371 29.897 162.343a349.812 349.812 0 0 0-4.023-3.661c-44.191-39.418-121.923-86.389-241.373-86.389-119.855 0-195.591 47.401-238.021 87.166a289.353 289.353 0 0 0-6.695 6.486c9.2-53.007 22.81-115.726 41.29-162.489 36.015-90.83 93.24-124.364 131.161-146.539zM315.806 390c2.586-3 5.238-5.335 7.95-7.793 45.972-41.983 106.644-63.347 180.356-63.347 74.295 0 136.601 21.642 185.186 64.064 2.612 2.248 5.169 4.077 7.688 7.077h-381.18zM211.991 492c-30.552 0-58.42 15.739-74.548 41.687l-40.165 64.75c-13.42 21.593-14.057 47.803-1.704 70.024C107.927 690.683 130.481 704 155.905 704h17.339c49.042 0 97.753 16.086 137.163 45.274l104.443 77.36c31.64 23.434 69.175 35.823 108.549 35.823 38.813 0 75.916-12.069 107.301-34.905l108.4-78.873c38.177-27.777 83.306-43.01 130.507-44.051 26.824-0.592 50.347-16.15 61.388-40.603 11.042-24.454 7.157-52.387-10.138-72.9l-56.858-67.683C847.282 503.616 822.824 492 796.895 492H211.991z m-7.129 87.701c2.226-3.587 6.075-5.701 10.297-5.701h579.058c3.581 0 6.959 1.395 9.266 4.134l38.813 45.968c-50.841 3.499-99.234 21.043-140.654 51.191L567.35 773.018c-12.938 9.417-28.235 14.384-44.238 14.384-16.243 0-31.725-5.118-44.771-14.791L348.03 676.145C301.678 641.781 244.374 623 186.672 623h-8.693l26.883-43.299zM502.393 589.514c-2.081 1.027-31.472 15.714-44.197 31.705-14.615 18.421-11.975 45.77-5.495 59.238 0.098 0.355 0.182 0.714 0.25 1.075l-15.396 18.384 24.694 53.662 24.694-14.79c0.923 0.57 24.694 25.79 24.694 25.79l24.694-25.79 24.694 14.79 24.694-53.662-13.049-18.626c0.033-1.095 0.191-2.179 0.477-3.245 9.332-20.273 5.055-44.301-10.766-60.109-13.783-14.683-32.513-24.773-39.941-28.437l-0.321-0.164-10.103-4.731-9.623 4.91z"  horiz-adv-x="1024" />

    
    <glyph glyph-name="kaohexize" unicode="&#58929;" d="M563.285-66.742c-3.376 0-6.821 0.158-10.246 0.467-38.288 2.071-73.851 22.06-95.49 53.663C451.096-31.736 433.22-45 412.726-45h-0.158c-8.206 0-16.344 2.137-23.535 6.078l-0.408 0.244L102.69 127.306a46.34 46.34 0 0 0-22.78 30.961 746.405 746.405 0 0 0-17.229 105.189l-0.016 0.189C57.51 327.37 66.976 366.57 92.456 386.75L97.67 391h0.889c9.974 6 21.658 9.745 33.585 9.745 0.262 0 0.938-0.066 0.938-0.066l0.154-0.035c12.228-0.351 24.442-3.513 35.321-9.113 20.692-10.642 57.176-30.911 99.012-54.577a47.574 47.574 0 0 0-6.066 10.204c-5.105 11.61-5.58 24.642-1.314 36.645l0.131 0.357L419.09 804.118c7.369 18.604 25.048 30.624 45.04 30.624 2.865 0 5.753-0.258 8.582-0.766l451.337-85.574 0.235-0.051c12.577-2.714 23.37-10.131 30.407-20.89 7.194-10.799 9.677-24.226 6.819-36.878-29.389-134.43-67.767-268.345-114.068-398.022a1146.21 1146.21 0 0 0-115.759-240.262 347.228 347.228 0 0 0-73.398-83.386c-26.011-21.763-59-34.416-92.903-35.632l-0.389-0.01c-0.571-0.009-1.14-0.013-1.708-0.013zM565.106 30c21.789 0 49.89 22.792 79.145 64.316 37.477 57.199 68.726 118.605 92.882 182.589l0.065 0.152c48.66 125.263 89.008 254.939 120.04 385.773l-362.961 68.914L349.82 349.438l-0.101-0.247c-7.376-17.989-24.694-30.063-44.121-30.76l-0.502-0.018-0.502 0.008a47.817 47.817 0 0 0-5.011 0.348c71.598-40.78 150.527-86.515 191.234-110.104 13.004-7.535 23.292-13.496 24.639-14.246l0.234-0.126 0.296-0.174c19.609-11.491 28.541-34.659 21.72-56.339l-0.106-0.341-0.12-0.336a143.051 143.051 0 0 1 0.173-96.456c5.451-6.621 13.608-10.649 22.24-10.649h5.213z m-128.365 14.864s0.382-0.232 0.489-0.299a216.402 216.402 0 0 0-0.003 84.148c-57.37 33.15-203.864 117.743-280.203 159.353 0.176-3.534 0.452-7.061 0.826-10.575l0.028-0.263 0.021-0.264a654.738 654.738 0 0 1 10.67-76.804l268.172-155.296z m207.13 204.057c-3.945 0-7.883 0.465-11.705 1.382l-216.098 55.565c-25.287 6.522-40.867 32.414-34.817 57.776 2.788 12.309 10.498 23.212 21.179 29.932l0.461 0.291 0.477 0.263a51.289 51.289 0 0 0 24.734 6.378c3.589 0 7.189-0.381 10.7-1.132l0.382-0.082 215.931-55.524c12.54-2.913 23.469-10.915 30.022-21.996l0.163-0.282c6.309-11.094 8.007-23.988 4.79-36.333-4.985-20.297-23.004-35.163-43.9-36.184-0.828-0.037-1.573-0.054-2.319-0.054z m55.256 136.872c-3.975 0-7.95 0.463-11.814 1.375l-0.334 0.082-215.798 55.079c-23.026 5.845-38.542 28.094-36.066 51.747 2.435 23.409 21.251 41.657 44.74 43.378l0.885 0.065 0.886-0.018c3.772-0.074 7.564-0.454 11.271-1.129l0.663-0.121 217.495-55.716c25.374-6.822 40.647-32.998 34.134-58.42-4.933-20.405-22.297-34.961-43.274-36.245l-0.211-0.012c-0.854-0.043-1.721-0.065-2.577-0.065z m55.281 133.597c-3.941 0-7.876 0.468-11.696 1.391L525.975 576.3c-22.978 5.569-38.714 27.487-36.628 51.06l0.032 0.329c2.511 23.697 21.601 41.937 45.391 43.37l0.806 0.049 0.807-0.02c3.769-0.092 7.575-0.454 11.313-1.079l0.81-0.135 217.005-55.696c22.921-5.842 38.104-27.216 36.069-50.816-2.037-23.596-20.654-42.051-44.268-43.883l-0.299-0.023-0.299-0.014c-0.769-0.034-1.538-0.052-2.306-0.052z"  horiz-adv-x="1024" />

    
    <glyph glyph-name="keguanshujuluru" unicode="&#58930;" d="M106.795 25.035h809.443c24.84 0 44.97-20.131 44.97-44.966 0-24.84-20.131-44.97-44.97-44.97H106.795c-24.835 0-44.97 20.131-44.97 44.97-0.001 24.836 20.134 44.966 44.97 44.966z m368.614 646.073l190.804-190.757-411.92-411.92-192.246-1.484 1.484 192.336 411.878 411.825zM733.891 807.504l63.587-63.634c35.107-35.12 35.107-92.051 0-127.17l-95.382-95.383-190.804 190.761 95.379 95.426a89.962 89.962 0 0 0 63.612 26.354 89.957 89.957 0 0 0 63.608-26.354z m0 0"  horiz-adv-x="1024" />

    
    <glyph glyph-name="lianjiechijianshi" unicode="&#58931;" d="M511.868 49c-103.8 0-203.706 31.786-288.906 91.711-83.033 58.401-146.875 139.686-184.625 234.961l-3.315 8.394 3.315 8.381c37.75 95.273 101.593 176.507 184.625 234.908 85.2 59.925 185.106 91.604 288.916 91.604 103.813 0 203.72-31.673 288.921-91.599 83.033-58.4 146.875-139.627 184.626-234.9l3.314-8.364-3.313-8.365c-37.738-95.291-101.551-176.636-184.539-235.032C715.74 80.783 615.876 49 512.112 49h-0.244zM151.513 384.093C220.154 245.827 360.462 157.06 511.878 157.06c151.419 0 291.728 88.767 360.372 227.034-68.645 138.264-208.954 227.029-360.372 227.029-151.416 0-291.722-88.765-360.365-227.03z m360.365-189.331c-102.241 0-185.419 84.891-185.419 189.238s83.179 189.24 185.419 189.24c102.244 0 185.425-84.893 185.425-189.24 0-104.346-83.181-189.238-185.425-189.238z m0 270.732c-43.531 0-78.947-36.516-78.947-81.401s35.415-81.4 78.947-81.4c43.584 0 79.042 36.516 79.042 81.4s-35.459 81.401-79.042 81.401z"  horiz-adv-x="1024" />

    
    <glyph glyph-name="lishiyiliu" unicode="&#58932;" d="M512 734c47.294 0 93.12-9.24 136.205-27.464 41.666-17.623 79.107-42.873 111.282-75.049s57.426-69.616 75.049-111.283C852.76 477.12 862 431.294 862 384s-9.24-93.12-27.464-136.205c-17.623-41.666-42.873-79.107-75.049-111.282s-69.616-57.426-111.282-75.049C605.12 43.24 559.294 34 512 34s-93.12 9.24-136.205 27.464c-41.666 17.623-79.107 42.873-111.283 75.049s-57.426 69.616-75.049 111.282C171.24 290.88 162 336.706 162 384s9.24 93.12 27.464 136.205c17.623 41.666 42.873 79.107 75.049 111.283s69.616 57.426 111.283 75.049C418.88 724.76 464.706 734 512 734m0 100C263.472 834 62 632.528 62 384s201.472-450 450-450 450 201.472 450 450S760.528 834 512 834zM697.909 268.295L562 404.203V618c0 27.5-22.5 50-50 50s-50-22.5-50-50v-234c0-0.072 0.005-0.143 0.005-0.215-0.059-12.893 4.797-25.805 14.579-35.587l150.614-150.614c19.445-19.445 51.265-19.445 70.711 0 19.445 19.446 19.445 51.265 0 70.711z"  horiz-adv-x="1024" />

    
    <glyph glyph-name="liuchengguanli" unicode="&#58933;" d="M629.968-66C592.241-66 562-35.562 562 2.165v220.6C562 260.492 592.241 291 629.968 291H692v32H329v-32h64.928C431.654 291 462 260.492 462 222.766v-220.6C462-35.562 431.654-66 393.928-66h-260.9C95.3-66 65-35.562 65 2.165v220.6C65 260.492 95.3 291 133.027 291H212v77.404C212 407.257 243.798 439 282.651 439H452v38H339.21c-38.517 0-70.21 31.145-70.21 69.662V764.401C269 802.919 300.693 834 339.21 834h342.614C720.341 834 751 802.919 751 764.401v-217.739C751 508.145 720.341 477 681.824 477H568v-38h169.969C776.824 439 809 407.257 809 368.404V291h81.968c37.73 0 68.032-30.508 68.032-68.234v-220.6C959-35.562 928.698-66 890.968-66h-261zM843 50V174H678v-124h165z m-497 0V174H181v-124h165z m289 544V718H385v-124h250z"  horiz-adv-x="1024" />

    
    <glyph glyph-name="lvyoujingdian" unicode="&#58934;" d="M672.064 313.79c0 88.306-71.756 160.063-160.063 160.063-88.315 0-160.071-71.756-160.071-160.063 0-88.315 71.756-160.071 160.071-160.071 88.307 0 160.063 71.756 160.063 160.071z m-231.816 1.107c0 39.741 32.012 71.745 71.753 71.745 39.744 0 71.759-33.109 71.759-71.745 0-39.741-32.015-71.756-71.759-71.756-39.741 0-71.753 32.015-71.753 71.756zM140.911-62c-26.486 0-48.034 21.536-48.034 48s21.548 48 48.034 48H195V288.52c0 25.012 19.524 45.48 44.506 45.48h6.045C270.58 334 290 313.956 290 288.52V34h444V288.52c0 25.012 19.228 45.48 43.838 45.48h6.051C808.871 334 829 313.532 829 288.52V34h54.084c26.489 0 48.04-21.478 48.04-47.942l-0.009-0.525C930.227-41.103 908.862-62 882.478-62H140.911zM874.918 306c-9.994 0-19.542 2.997-27.722 8.851-4.498 2.222-8.566 5.01-12.111 8.395l-0.248 0.219L512 646.298l-325.866-325.87c-5.829-5.833-12.783-9.837-20.674-12.068-4.892-1.624-9.994-2.36-15.173-2.36H94.033c-26.486 0-48.034 21.537-48.034 48.003 0 26.461 21.548 47.997 48.034 47.997h37.433l331.688 331.931c-0.013 0.353-0.154 0.618-0.154 0.983v46.575c0 26.037 22.583 48.034 48.999 48.034 26.872 0 49.001-21.548 49.001-48.034v-46.575c0-0.423-0.144-0.743-0.161-1.15L892.527 402h37.435c26.489 0 48.04-21.536 48.04-47.997 0-26.466-21.551-48.003-48.04-48.003h-55.044z"  horiz-adv-x="1024" />

    
    <glyph glyph-name="liuchengguidang" unicode="&#58935;" d="M385.309 275c-24.728 0-44.845 19.774-44.845 44.5s20.117 44.5 44.845 44.5H638.69c24.729 0 44.846-19.774 44.846-44.5S663.419 275 638.69 275H385.309z m-79.555 158c-24.728 0-44.846 20.274-44.846 45s20.118 45 44.846 45H718.25c24.726 0 44.842-20.274 44.842-45s-20.116-45-44.842-45H305.754z m0 160c-24.728 0-44.846 19.774-44.846 44.502 0 24.726 20.118 44.498 44.846 44.498H718.25c24.726 0 44.842-19.772 44.842-44.498 0-24.728-20.116-44.502-44.842-44.502H305.754zM206.635-67C126.563-67 61-1.191 61 79.184v610.19C61 769.441 126.563 835 206.635 835h610.198C897.198 835 963 769.441 963 689.373v-610.19C963-1.191 897.198-67 816.833-67H206.635zM151.2 79.184c0-30.92 24.817-55.984 55.435-55.984h610.198c30.91 0 55.967 25.057 55.967 55.967V256.042h-29.368a20.978 20.978 0 0 1-13.918-5.282L679.52 117.747a83.907 83.907 0 0 0-55.671-21.128h-223.8a83.905 83.905 0 0 0-55.341 20.838L192.705 250.832a20.976 20.976 0 0 1-13.835 5.209H151.2v-176.857z m476.463 111.868l149.995 133.013a83.907 83.907 0 0 0 55.671 21.128H872.8v344.18c0 30.613-25.055 55.427-55.967 55.427H206.635c-30.616 0-55.435-24.819-55.435-55.435v-344.172h37.694a83.907 83.907 0 0 0 55.34-20.837L396.24 190.979a20.976 20.976 0 0 1 13.835-5.209h203.67c5.13 0 10.081 1.879 13.918 5.282z"  horiz-adv-x="1024" />

    
    <glyph glyph-name="jingqingguanli" unicode="&#58936;" d="M778.507 431.771c-6.729 38.138-22.374 71.791-44.809 102.749-31.408 38.138-69.518 67.297-116.178 82.555-53.84 20.191-109.464 22.434-165.549 11.217-53.839-11.217-100.766-35.893-138.904-74.031-42.626-42.626-65.327-93.771-65.327-154.344v-299.313c0-12.112 9.818-21.93 21.93-21.93h489.037c12.112 0 21.93 9.818 21.93 21.93V398.123c0 11.217 0.114 22.431-2.13 33.648zM449.533 240.493c-19.943-32.637-48.5-50.355-83.613-57.237-13.515-2.649-26.075 7.77-26.075 21.542V419.834c0 13.85 12.682 24.217 26.264 21.507 36.657-7.315 65.466-27.075 85.562-59.964 26.921-47.112 27.025-93.773-2.138-140.884z m232.419-34.789c0-13.776-12.567-24.199-26.084-21.541-35.015 6.887-63.353 24.604-83.292 57.226-29.16 46.215-29.211 93.326-2.291 138.192 20.006 34.559 49.26 54.636 85.327 62.091 13.595 2.81 26.34-7.609 26.34-21.492v-214.476zM179.189 15.399c-15.702 0-29.164-8.969-35.893-24.676-6.734-15.702 0-38.137 13.462-49.356 8.974-4.484 17.946-6.728 26.92-6.728h666.734c20.191 2.245 42.622 22.435 35.893 47.11-4.489 20.192-20.191 33.654-40.382 33.654h-29.164M315.588 653.782c-5.109 0-8.171 3.069-10.001 4.902l-0.763 0.765-0.599 0.899c-13.714 20.57-25.226 41.292-36.359 61.33l-0.116 0.21-0.108 0.214c-2.602 5.208-5.641 13.73-5.641 20.604 0 17.059 10.885 32.871 27.087 39.345 4.891 1.956 9.821 2.949 14.651 2.949 7.754 0 19.052-2.589 29.057-14.848 2.065-2.212 3.15-4.383 3.817-5.718 0.109-0.218 0.25-0.5 0.34-0.667l0.935-0.935 0.745-1.342c5.428-9.768 11.597-19.301 17.562-28.519 6.167-9.53 12.589-19.385 18.379-29.806L376 700.68v-2.841c0-5.807-1.73-8.47-5.503-12.243l-1.061-1.038-1.285-0.728c-14.958-8.548-30.403-17.372-43.371-25.953-1.885-1.804-4.779-4.095-9.192-4.095zM485.639 714c-5.235 0-9.078 1.876-11.421 5.779-1.601 2.667-1.348 5.18-1.673 8.426l0.456 0.494V801.034c0 11.644 1.619 26.285 18.192 36.272 6.723 4.179 14.641 6.388 22.668 6.388 22.243 0 39.14-16.41 39.14-38.171v-76.28c0-3.336-0.381-7.802-4.155-11.575-3.771-3.771-8.721-3.668-12.057-3.668h-51.15zM703.322 655l-2.86 2.274c-16.552 11.823-28.837 20.046-42.208 27.763-5.938 1.699-9.254 7.384-9.254 12.798v3.319l1.72 2.762c6.606 9.909 12.756 20.072 18.762 29.901 6.02 9.85 12.211 20.03 18.93 30.137 5.632 10.858 14.461 17.626 27 20.756l1.292 0.29h5.833c15.706 0 30.098-8.148 37.557-21.323 7.015-12.39 6.599-26.92-1.135-39.926-12.147-21.864-25.821-44.603-38.517-63.644L717.188 655h-13.866zM191.922 515.143c-3.427 0-5.933 1.251-9.104 2.835l-0.215 0.108-0.21 0.117c-10.294 5.719-20.656 12.052-30.677 18.177-9.77 5.971-19.872 12.145-29.711 17.618-6.379 3.258-12.313 9.151-15.641 15.521-6.798 11.211-7.269 25.276-1.24 37.733 6.266 12.944 18.538 21.55 32.027 23.049l0.604-0.301h2.852c5.001 0 9.321 0.367 16.121-3.037l1.589-0.612 1.106-1.014c0.168-0.091 0.449-0.186 0.667-0.295 1.163-0.582 2.963-1.459 4.872-3.048 9.934-5.557 19.919-11.648 29.586-17.555 9.833-6.009 20-12.216 29.899-17.715l1.342-0.743 0.921-1.084c3.772-3.773 5.29-6.434 5.29-12.237v-2.911l-1.279-2.528c-4.577-8.012-9.106-15.506-13.565-22.753-4.364-7.091-8.835-14.424-13.231-22.118l-0.71-1.279-1.032-1.041c-1.71-1.708-4.883-4.887-10.261-4.887zM830.061 515c-7.072 0-10.083 5.474-12.035 9.341-4.475 6.743-8.963 14.123-13.306 21.181-4.358 7.082-9.185 14.449-13.559 21.012L789 569.34v3.319c0 5.803 2.004 8.466 5.777 12.238l1.246 1.086 1.423 0.746c9.905 5.503 20.12 11.72 29.959 17.732 9.888 6.042 20.127 12.287 30.284 17.945 6.66 4.419 13.543 8.328 23.671 8.328 18.992 0 33.788-10.35 39.571-27.687 6.111-18.347-0.388-34.625-17.391-43.869-5.123-4.761-10.099-7.324-14.562-9.557-8.895-5.553-17.346-10.624-25.524-15.531-7.924-4.755-16.108-9.842-24.64-15.16-1.769-1.648-4.581-3.931-8.752-3.931l-0.001 0.001z"  horiz-adv-x="1024" />

    
    <glyph glyph-name="paihangbang" unicode="&#58937;" d="M82.288-4c-23.993 0-43.529 19.776-43.67 43.739C38.475 64.084 59.058 84 83.404 84H99V520c0 44 36 80 80 80h166v92c0 44 36 80 80 80h174c44 0 80-36 80-80v-265h166c44 0 80-36 80-80v-263h15.596c24.345 0 44.929-19.916 44.786-44.261-0.141-23.963-19.677-43.739-43.67-43.739H82.288zM345 104V492.43c0 11.033-8.935 19.983-19.969 20l-118.292 0.185c-11.062 0.017-20.037-8.949-20.031-20.011l0.215-388.615c0.006-11.041 8.959-19.989 20-19.989H325c11.046 0 20 8.954 20 20z m492.069-0.002l0.024 217c0.001 11.047-8.953 20.002-20 20.002H699c-11.046 0-20-8.954-20-20v-217c0-11.046 8.954-20 20-20h118.069c11.045 0 19.999 8.953 20 19.998zM591 104V664c0 11.046-8.954 20-20 20H453c-11.046 0-20-8.954-20-20v-560c0-11.046 8.954-20 20-20h118c11.046 0 20 8.954 20 20z"  horiz-adv-x="1024" />

    
    <glyph glyph-name="kaoqinqiandao" unicode="&#58938;" d="M749.686 393.531a48.958 48.958 0 0 1-33.638 13.321 48.963 48.963 0 0 1-33.637-13.319l-221.17-214.224-107.866 104.449c-9.145 8.591-21.091 13.322-33.639 13.322s-24.493-4.731-33.637-13.323l-0.244-0.236c-9.036-8.785-14.211-21.054-14.211-33.66 0-12.603 5.197-24.87 14.24-33.669l141.735-137.67 0.014-0.184c4.025-3.704 8.366-6.685 13.366-8.865v-4.521l20.313 0.194a49.701 49.701 0 0 1 33.321 13.219l0.242 0.166 255.027 247.44c9.035 8.786 14.232 21.056 14.232 33.663 0 12.606-5.175 24.875-14.212 33.66l-0.236 0.237zM927.635 676.793c-19.822 18.633-46.345 28.895-74.333 28.895l-94.302-0.064v53.115c0 12.837-4.718 24.834-13.849 33.78-9.051 8.868-21.233 13.751-34.187 13.751-26.857 0-48.965-21.307-48.965-47.496v-53.216l-301-0.205v53.386c0 26.209-21.641 47.531-48.498 47.531-26.859 0-48.502-21.307-48.502-47.496v-53.487l-94.254-0.064c-27.984-0.23-54.417-10.527-74.201-28.993C75.283 657.32 64 632.015 64 604.978v-587.076c0-22.073 8.339-37.914 23.604-47.083 13.298-7.988 29.668-9.089 45.24-9.089 5.645 0 11.483 0.449 17.599 0.62 6.372 0.179 13.022 0.65 19.717 0.65h683.726c27.938 0 54.007 10.302 73.723 28.767C947.685 10.569 959 35.49 959 62.462V605.65c0 27.023-11.306 52.289-31.365 71.143z m-758.386-65.342l0.329-0.008 94.422 0.063v-13.367c0-26.21 21.914-47.139 48.688-47.139h0.21c26.251 0 47.345 20.353 48.328 46.586l-0.226 0.178v13.808l301 0.203v-13.636c0-26.209 21.855-47.532 48.713-47.532 26.622 0 48.287 21.323 48.287 47.532V611.84l93.916 0.063c4.479-0.194 9.084-2.791 9.084-6.889V510H161v94.063c0 4.166 4.043 7.388 8.249 7.388z m684.955-555.553l-0.263 0.102H170.524c-4.478 0-9.524 2.603-9.524 6.704V415h701v-351.77c0-4.186-3.573-7.332-7.796-7.332z"  horiz-adv-x="1024" />

    
    <glyph glyph-name="pingfenkaohe" unicode="&#58939;" d="M275.878-51.919c-16.231 0-30.159 6.96-41.351 12.552l-2.274 1.136-2.531 1.537C205.346-18.407 194 3.335 194 33.804v2.594l39.704 210.862 0.693 1.366c0.059 2.917-2.884 10.283-7.083 14.649L72.389 408.573l-1.442 1.962c-26.416 35.211-22.372 64.9-13.531 84.363 8.765 29.063 36.98 50.796 67.436 51.808l201.89 28.172c8.421 3.254 15.844 8.817 20.799 15.6L437.922 776c13.68 27.354 41.714 44.347 73.161 44.347 31.394 0 59.384-16.935 73.087-44.211l95.105-185.457c4.954-6.873 12.441-12.515 20.947-15.801l205.034-28.611 1.452-0.363c28.745-7.186 48.875-22.987 61.538-48.306l1.382-2.762 0.748-2.996c7.247-28.979-1.04-58.887-22.167-80.005l-0.323-0.324L792.618 266.1l-1.928-1.285c-3.302-2.203-4.275-8.046-3.321-10.912l0.714-2.144 33.803-207.633c6.575-28.739-6.125-60.206-31.2-76.922-13.859-9.24-32.09-14.755-48.769-14.755-12.562-0.001-24.143 3.079-33.63 8.925l-187.463 96.14-1.335 0.89c-2.432 1.62-5.339 2.477-8.407 2.477-3.065 0-5.97-0.856-8.401-2.476l-1.336-0.89-185.07-94.911c-14.894-13.367-27.166-14.523-40.397-14.523z m242.405 225.453c20.552 0 41.237-4.399 61.477-13.073l0.899-0.385 92.407-47.454c14.695-7.546 31.684 4.967 28.837 21.238l-16.997 97.136-0.062 0.435c-6.669 46.665 9.639 92.867 42.591 120.875l68.034 65.689c11.95 11.538 5.44 31.772-10.996 34.177l-99.584 14.574c-44.336 5.639-82.694 32.696-102.749 72.466l-51.209 94.738c-7.745 14.328-28.453 13.886-35.579-0.761l-45.109-92.72c-17.178-39.391-55.698-66.92-103.193-73.697l-97.653-14.292c-16.591-2.428-23.009-22.969-10.75-34.41l71.174-66.43 0.343-0.342c31.193-31.192 47.506-78.243 41.558-119.867l-0.063-0.435-16.999-97.135c-2.848-16.272 14.142-28.785 28.837-21.239l92.405 47.453 0.9 0.386c20.243 8.676 40.928 13.073 61.481 13.073zM582 213.5H442c-27.5 0-50 22.5-50 50s22.5 50 50 50h140c27.5 0 50-22.5 50-50s-22.5-50-50-50z"  horiz-adv-x="1024" />

    
    <glyph glyph-name="quxianshixiaqushezhi" unicode="&#58940;" d="M569-4.122v258.66l40.347 23.19-50.2 174.89L837 513.303v-155.307l100-57.477V729c0 44.183-35.817 80-80 80H167c-44.183 0-80-35.817-80-80v-690c0-44.183 35.817-80 80-80h465.919L569-4.122zM187 709h650v-93.339L187 473.697V709z m0-650V371.339l274.246 59.897L568.092 59H187zM793 291.013l-144-82.766v-166.166L793-41l144 83.081V208.247l-144 82.766z m0.458-230.506c-35.622 0-64.5 28.878-64.5 64.5s28.878 64.5 64.5 64.5 64.5-28.878 64.5-64.5-28.877-64.5-64.5-64.5z"  horiz-adv-x="1024" />

    
    <glyph glyph-name="liuchengduban" unicode="&#58941;" d="M305.635 731.013l246.81-142.497c19.471-11.245 44.375-4.576 55.616 14.9 11.242 19.475 4.566 44.374-14.899 55.62L346.347 801.528c-19.47 11.242-44.375 4.571-55.616-14.899-11.241-19.475-4.566-44.375 14.904-55.616zM81.714 343.163l246.814-142.497c19.471-11.241 44.37-4.576 55.612 14.899 11.245 19.475 4.571 44.375-14.899 55.616l-246.82 142.497c-19.465 11.245-44.375 4.571-55.612-14.899-11.245-19.475-4.575-44.375 14.905-55.616z m850.403-114.885L481.201 465.107l50.888 88.145L285.27 695.753 142.777 448.938l246.81-142.507 50.893 88.15 430.559-272.088c29.212-16.86 66.562-6.855 83.427 22.357 16.859 29.204 6.849 66.558-22.354 83.417l0.005 0.011z m0 0M694.542 75.68l0.615-43.493H196.288V75.68h498.254m10.746 68.624H185.425c-31.89 0-57.761-25.862-57.761-57.766v-54.351h-24.076C83.933 32.187 68 16.254 68-3.401s15.933-35.588 35.588-35.588h682.961c19.655 0 35.588 15.933 35.588 35.588s-15.933 35.588-35.588 35.588h-23.454l-0.047 54.351h-0.007c0 31.904-25.856 57.766-57.753 57.766z m0 0"  horiz-adv-x="1024" />

    
    <glyph glyph-name="qita" unicode="&#58942;" d="M382 534c0-11.046-8.954-20-20-20H182c-11.046 0-20 8.954-20 20V714c0 11.046 8.954 20 20 20h180c11.046 0 20-8.954 20-20v-180z m20 300H142c-44 0-80-36-80-80v-260c0-44 36-80 80-80h260c44 0 80 36 80 80V754c0 44-36 80-80 80zM862 714v-180c0-11.046-8.954-20-20-20H662c-11.046 0-20 8.954-20 20V714c0 11.046 8.954 20 20 20h180c11.046 0 20-8.954 20-20z m20 120H622c-44 0-80-36-80-80v-260c0-44 36-80 80-80h260c44 0 80 36 80 80V754c0 44-36 80-80 80zM382 234v-180c0-11.046-8.954-20-20-20H182c-11.046 0-20 8.954-20 20V234c0 11.046 8.954 20 20 20h180c11.046 0 20-8.954 20-20z m20 120H142c-44 0-80-36-80-80v-260c0-44 36-80 80-80h260c44 0 80 36 80 80V274c0 44-36 80-80 80zM862 234v-180c0-11.046-8.954-20-20-20H662c-11.046 0-20 8.954-20 20V234c0 11.046 8.954 20 20 20h180c11.046 0 20-8.954 20-20z m20 120H622c-44 0-80-36-80-80v-260c0-44 36-80 80-80h260c44 0 80 36 80 80V274c0 44-36 80-80 80z"  horiz-adv-x="1024" />

    
    <glyph glyph-name="quyuguanli" unicode="&#58943;" d="M613.805-65.504c-8.656 0-17.228 2.292-24.786 6.628L357.375 73.548l-220.568-125.86a49.903 49.903 0 0 0-24.737-6.578 49.954 49.954 0 0 0-25.201 6.835C71.536-43.078 62-26.506 62-8.807V485.296c0 17.826 9.558 34.411 24.926 43.281l101.698 58.893a49.95 49.95 0 0 0 25.056 6.764c17.812 0 34.419-9.587 43.34-25.018 6.705-11.535 8.513-25.014 5.077-37.93-3.442-12.933-11.758-23.75-23.365-30.459L162 456.329v-379.182l170.578 97.342c7.554 4.3 16.147 6.568 24.831 6.568s17.27-2.269 24.813-6.561l231.713-132.445L862 183.569V513.042l-64.952-36.985a50.326 50.326 0 0 0-24.79-6.566c-17.918-0.001-34.585 9.651-43.484 25.189-13.621 23.987-5.267 54.599 18.608 68.273l139.713 79.728a49.888 49.888 0 0 0 24.735 6.578 49.977 49.977 0 0 0 25.205-6.835C952.427 633.417 962 616.809 962 599.079v-444.53c0-17.929-9.697-34.563-25.288-43.412L638.677-58.888c-7.689-4.337-16.277-6.616-24.872-6.616zM702.948 632.558c0-34.756-9.427-68.818-27.294-98.468-0.491-0.983-1.079-1.865-1.571-2.848L528.984 305.444c-7.756-11.979-25.228-12.076-32.984 0L350.11 531.143a27.966 27.966 0 0 0-1.176 2.061c-1.179 1.869-2.157 3.637-3.141 5.401-16.103 28.469-24.644 60.967-24.644 93.954 0 105.243 85.707 190.946 190.95 190.946 105.141-0.001 190.849-85.704 190.849-190.947z m-190.95 98.272c-52.619 0-95.425-42.805-95.425-95.424 0-52.623 42.806-95.425 95.425-95.425 52.623 0 95.424 42.802 95.424 95.425 0 52.619-42.801 95.424-95.424 95.424z m0 0"  horiz-adv-x="1024" />

    
    <glyph glyph-name="minganxinxi" unicode="&#58944;" d="M661.477 833.6a49.836 49.836 0 0 0 35.233-14.593 49.846 49.846 0 0 0 14.594-35.234h99.653c55.054 0 99.649-47.085 99.649-105.18v-639.059c0-58.048-44.595-105.133-99.649-105.133H213.048c-55.059 0-99.654 47.085-99.654 105.18V678.639c0 58.048 44.595 105.133 99.654 105.133h99.649c0 17.8 9.498 34.25 24.913 43.151a49.83 49.83 0 0 0 49.827 0 49.832 49.832 0 0 0 24.914-43.151h199.303a49.82 49.82 0 0 0 14.593 35.234 49.818 49.818 0 0 0 35.23 14.594z m-348.78-149.477h-99.649V34.05h597.909V684.123h-99.653c0-17.8-9.494-34.25-24.914-43.151a49.83 49.83 0 0 0-49.827 0 49.826 49.826 0 0 0-24.908 43.151H412.351c0-17.8-9.499-34.25-24.914-43.151a49.83 49.83 0 0 0-49.827 0 49.831 49.831 0 0 0-24.913 43.151z m199.304-150.645l70.255-102.543 119.283-35.177-75.786-98.556 3.389-124.263-117.141 41.654-117.141-41.654 3.388 124.263-75.786 98.556 119.236 35.177 70.303 102.543z m0 0"  horiz-adv-x="1024" />

    
    <glyph glyph-name="minzhenggongzuoguanli" unicode="&#58945;" d="M903.406 460.645l57.086 9.948-3.146 19.175-53.941-9.274v-19.849z m0 138.278l4.072 2.198-4.072 7.244v-9.442z m34.28-40.571l-34.28-13.254-71.73-27.477v-11.498l4.395-8.003 67.335 26.114 41.195 15.893-6.915 18.225z m-34.28-77.858v-19.849l-51.122-8.926-5.828 19.011 56.95 9.764z m-5.369 137.63l-66.36-36.641-37.911-21.071 11.956-16.078 25.955 14.502 71.73 40.087v9.442l-5.37 9.759zM831.676 517.62v-11.498l-5.184 9.438 5.184 2.06z m26.578 157.106l-26.577-19.175-62.919-45.452v-12.583l6.777-6.918 56.142 40.894 37.913 27.526-11.336 15.708z m-95.625-69.022l-0.949-0.648 0.949-1.09 6.128-6.45v12.583l-6.128-4.395z m42.306 123.451l-36.178-34.907-6.128-5.987-21.234-20.59v-27.527l21.234 20.75 6.128 5.991 49.546 48.275-13.368 13.995z m-42.306 33.033v-1.898l0.949 1.113-0.949 0.785z m-27.688-128.357l6.455 6.313v27.527l-22.184-21.394 15.729-12.446z m13.53 139.691l-7.076-8.814v-31.62l21.234 27.203v1.898l-14.158 11.333z m-29.423-37.127l-44.503-56.464 17.303-10.064 27.222 34.744 22.325 28.475v31.62l-22.347-28.311zM512.393 820.222c-49.423-0.141-89.431-40.211-89.493-89.633 0-49.547 40.272-89.819 89.493-89.819 49.59 0.04 89.783 40.228 89.818 89.819-0.115 49.529-40.29 89.62-89.818 89.633z m-207.464-115.61v31.783l44.526-56.464-17.3-10.064-27.226 34.745z m0 31.783v-31.783l-22.325 28.475v31.62l22.325-28.312z m0 0M719.07 598.923c-56.138 54.267-188.425 31.435-206.677-23.59-18.089 55.538-151.926 78.183-207.464 22.483a78.981 78.981 0 0 1-19.964-33.354v-378.894c6.455-1.249 13.21-2.52 19.964-4.094 30.972-6.755 62.919-17.926 88.385-43.092V496.337c0 37.753 39.024 37.917 39.024-3.768v-363.187h160.436V492.569c0 41.681 39.001 41.521 39.001 3.768v-357.955c25.165 24.845 56.623 36.015 87.295 42.933a593.706 593.706 0 0 0 21.071 4.254V564.462a79.592 79.592 0 0 1-21.071 34.461z m-436.461 41.221v27.505l22.157-21.372-15.706-12.445-6.451 6.312z m0 124.563v-31.62l-21.234 27.203v1.898l14.153 11.334 7.081-8.815z m0-97.059v-27.505l-21.234 20.75v27.362l21.234-20.607z m-21.234-63.682v1.738l0.948-0.648-0.948-1.09z m0 158.222v-1.898l-0.953 1.113 0.953 0.785z m0-73.931v-27.362l-6.133 5.991v27.363l6.133-5.992z m0-82.553v-1.738l-6.133-6.45v12.583l6.133-4.395z m-6.133 88.544v-27.363l-49.71 48.275 13.532 13.995 36.178-34.907z m0-84.149v-12.583l-6.777-6.918-56.137 40.894v24.059l62.914-45.452z m-62.914-103.977V517.62l5.18-2.06-5.18-9.438z m0 52.714v22.647l37.885-21.071-12.098-16.051-25.787 14.475z m0 96.715l-26.578 19.175-11.497-15.707 38.075-27.526v24.058z m0-74.068v-22.647l-71.893 40.087v9.442l5.529 9.759 66.364-36.641z m0-63.863v-11.498l-4.421-8.003-67.473 26.114v20.913l71.894-27.526z m-71.893-56.975v19.849l57.109-9.764-5.828-19.011-51.281 8.926z m0 147.72l-3.935-7.244 3.935-2.198v9.442z m0-63.267l-34.122 13.254-7.076-18.226 41.198-15.893v20.865z m0-64.604l-53.781 9.274-3.146-19.175 56.927-9.948v19.849z m0 0M493.054-52.222c-14.316 101.594-72.192 173.65-188.102 206.492a447.876 447.876 0 0 1-22.347 5.833 435.45 435.45 0 0 1-21.229 4.254c-2.039 0.326-4.095 0.789-6.133 1.111a665.277 665.277 0 0 1-62.914 7.24 808.858 808.858 0 0 1-44.831 1.576c7.704 97.032-0.626 165.457-27.04 196.591-11.313 13.509-26.278 19.964-44.667 18.712 12.746-77.694-1.412-155.393 4.557-233.256a964.434 964.434 0 0 1 40.109-40.109c25.492-23.754 50.009-44.524 71.892-63.382 25.329-22.179 47.187-42.165 62.914-62.451l6.133-8.488c7.404-11.012 13.046-22.325 16.356-34.122h215.302z m39.003 0c14.317 101.594 72.193 173.65 188.104 206.492 7.24 2.06 14.78 4.099 22.342 5.833a435.449 435.449 0 0 0 21.235 4.254c2.037 0.326 4.094 0.789 6.132 1.111 19.66 3.287 40.572 5.669 62.915 7.24a808.82 808.82 0 0 0 44.829 1.576c-7.703 97.032 0.622 165.457 27.04 196.591 11.313 13.509 26.278 19.964 44.667 18.712-12.746-77.694 1.412-155.393-4.557-233.256a963.822 963.822 0 0 0-40.109-40.109c-25.492-23.754-50.009-44.524-71.892-63.382-25.329-22.179-47.185-42.165-62.919-62.451l-6.128-8.488c-7.402-11.012-13.046-22.325-16.355-34.122H532.057z m0 0"  horiz-adv-x="1024" />

    
    <glyph glyph-name="renwuchuli" unicode="&#58946;" d="M213.264-90.6c-32.31 0-63.52 12.988-85.627 35.635-22.892 23.451-35.731 55.19-35.245 87.106V606.183c0 68.719 53.83 122.548 122.548 122.548h63.918c5.358 31.556 32.892 55.661 65.95 55.661h26.607c5.517 41.826 41.4 74.208 84.705 74.208h111.316c23.407 0 45.025-8.725 60.872-24.568 13.276-13.275 21.555-30.601 23.891-49.64h26.553c33.056 0 60.589-24.105 65.946-55.661h63.918c68.419 0 122.448-53.751 123.001-122.37l0.001-574.399c0-68.719-53.831-122.548-122.549-122.548H215.118c-0.619-0.01-1.235-0.014-1.854-0.014z m596.184 96.692l0.377-0.013c0.293-0.01 0.585-0.015 0.875-0.015 6.452 0 12.538 2.533 17.139 7.133 4.692 4.692 7.354 11.412 7.118 17.976l-0.014 0.395V606.564l0.013 0.381c0.234 6.785-2.294 13.179-7.118 18.004-4.466 4.466-10.887 7.133-17.173 7.133-0.266 0-0.535-0.005-0.803-0.015l-0.395-0.014h-63.37v-24.16c0-36.886-30.008-66.894-66.893-66.894H344.81c-36.886 0-66.894 30.008-66.894 66.894v24.16H214.56l-0.381 0.013c-0.296 0.01-0.59 0.016-0.883 0.016-6.44 0-12.521-2.534-17.122-7.134-4.689-4.689-7.35-11.413-7.118-17.984l0.014-0.391v-574.988l-0.013-0.377c-0.232-6.792 2.296-13.19 7.119-18.014 4.465-4.464 10.892-7.131 17.187-7.131 0.265 0 0.532 0.004 0.797 0.014l0.39 0.014h594.898zM658.014 634.106v55.371c0 5.523-4.477 10-10 10H619.15c-0.71-0.032-1.423-0.049-2.13-0.049-13.202 0-25.488 5.434-34.596 15.3l-0.325 0.352-0.309 0.365c-8.885 10.504-13.46 23.445-12.92 36.512v13.088c0 5.523-4.477 10-10 10h-94.182c-5.523 0-10-4.477-10-10v-13.61c0-14.11-4.818-27.091-13.567-36.551-9.189-9.936-22.019-15.407-36.129-15.407h-29.447c-5.523 0-10-4.477-10-10v-55.371c0-5.523 4.477-10 10-10h272.469c5.523 0 10 4.477 10 10zM474 119.137c-34.724 0-67.371 13.522-91.924 38.076l-94.432 94.432c-19.526 19.526-19.526 51.185 0 70.711 19.526 19.525 51.185 19.525 70.711 0l94.432-94.432c5.666-5.667 13.2-8.787 21.213-8.787s15.547 3.12 21.213 8.787l197.432 197.432c19.527 19.526 51.184 19.526 70.711 0 19.526-19.526 19.526-51.185 0-70.711L565.924 157.213c-24.554-24.554-57.2-38.076-91.924-38.076z"  horiz-adv-x="1024" />

    
    </font>
</defs>
</svg>
