<?xml version="1.0" standalone="no"?>
<!DOCTYPE svg PUBLIC "-//W3C//DTD SVG 1.1//EN" "http://www.w3.org/Graphics/SVG/1.1/DTD/svg11.dtd" >
<!--
2013-9-30: Created.
-->
<svg>
<metadata>
Created by iconfont
</metadata>
<defs>

<font id="iconfont" horiz-adv-x="1024" >
  <font-face
    font-family="iconfont"
    font-weight="500"
    font-stretch="normal"
    units-per-em="1024"
    ascent="896"
    descent="-128"
  />
    <missing-glyph />
    
    <glyph glyph-name="caozuotubiao-chuliyichuli" unicode="&#58884;" d="M638.05 417.263c46.008 108.596 24.772 238.907-63.754 327.431-77.863 77.862-188.05 103.67-287.357 77.45-18.864-4.98-25.186-28.584-11.39-42.38l114.173-114.173c29.125-29.126 29.125-76.347 0-105.472l-52.734-52.736c-29.125-29.124-76.346-29.125-105.471 0L117.343 621.56c-13.796 13.796-37.399 7.474-42.38-11.39-26.219-99.306-0.412-209.495 77.451-287.357 88.525-88.524 218.835-109.763 327.431-63.754L779.951-41.05c29.124-29.124 76.346-29.124 105.471 0l52.736 52.736c29.124 29.125 29.124 76.346 0 105.471L638.05 417.263z"  horiz-adv-x="1024" />

    
    <glyph glyph-name="caozuotubiao-fujianliebiao" unicode="&#58885;" d="M960 537.707C960 700.265 828.44 832 666.086 832c-72.781 0-138.677-27.261-189.76-71.292l0.437-0.582c-11.14-10.672-18.254-25.602-18.254-42.31 0-32.512 26.3-58.84 58.809-58.84 14.348 0 26.944 5.744 37.148 14.289l0.351-0.234c30.323 25.278 68.81 41.113 111.385 41.113 97.389 0 176.351-79.049 176.351-176.526 0-53.943-24.672-101.646-62.694-133.924L491.951 116.98c-32.309-38.139-79.95-62.867-133.776-62.867-97.358 0-176.351 79.076-176.351 176.582 0 53.887 23.386 100.514 61.38 132.792L368.028 488.08c10.466 9.389 23.912 15.601 38.927 15.601 32.512 0 58.785-26.331 58.785-58.843 0-12.655-4.811-23.561-11.488-33.214l-118.82-119.577 0.465-0.468c-9.299-10.441-15.394-23.791-15.394-38.838 0-32.54 26.301-58.84 58.785-58.84 15.046 0 28.372 6.064 38.81 15.394l0.465-0.462 141.561 142.115c27.873 31.253 23.324 74.351 23.324 94.006 0 97.475-79.018 176.582-176.376 176.582-44.203 0-84.149-16.912-115.147-43.797L161.15 448.102c-59.249-53.712-96.893-130.98-96.893-217.407 0-162.585 131.563-294.265 293.918-294.265 85.87 0 162.354 37.554 216.06 96.339l0.12-0.117 289.54 288.549-0.114 0.12C922.446 375.267 960 451.834 960 537.707z"  horiz-adv-x="1024" />

    
    <glyph glyph-name="caozuotubiao-fasongjingqing" unicode="&#58886;" d="M390.184 714.6c-10.821 0-19.169 9.687-17.391 20.361 9.233 55.416 55.46 97.76 110.76 97.76 55.299 0 101.526-42.344 110.76-97.76 1.778-10.674-6.57-20.361-17.391-20.361 0 0-39.619 10.4-93.368 10.4s-93.37-10.4-93.37-10.4z m121.531-778.267c90.75 0 140.962 42.565 168.919 84.307 8.313 12.412-0.492 29.073-15.431 29.073h-305.37c-15.037 0-23.837-16.863-15.311-29.249 28.69-41.685 79.077-84.131 167.193-84.131z m281.28 293.911c-18.963 28.013-40.51 59.472-47.406 78.003-13.359 37.062-22.409 152.558-21.979 193.93 0 102.136-78.865 171.09-169.796 187.897-49.129 9.05-90.07 7.757-139.63 0-91.794-14.653-171.09-85.76-171.09-187.897 0.431-41.372-8.188-156.868-21.547-193.499-6.464-18.1-28.013-49.129-46.543-76.279-30.599-44.389-47.836-70.246-46.974-87.053 1.293-33.183 28.443-53.008 72.832-53.008 9.912 0 21.547-0.862 33.615-0.862 124.545-2.586 373.638-3.448 498.184 0 12.498 0.43 24.134 0.862 34.046 0.862 53.439 0 72.401 27.582 72.401 53.439-0.001 16.377-16.808 41.373-46.113 84.467z"  horiz-adv-x="1024" />

    
    <glyph glyph-name="caozuotubiao-hujijiating" unicode="&#58887;" d="M336.937 278.368c27.533 3.128 48.928 26.49 48.928 54.86 0 33.939-47.347 56.38-49.867 57.614-50.246 24.61-85.052 76.093-85.052 135.737 0 82.858 67.776 150.538 150.636 150.959 0.259 0.001-0.089 0 0 0 21.079 0 38.749 17.218 38.749 38.296 0 21.054-17.048 38.124-38.092 38.164-0.154 0.009-0.304 0.027-0.463 0.027-125.425 0-227.546-102.021-227.546-227.546 0-75.556 37.057-142.648 93.934-184.036 2.271-1.652 1.849-5.147-0.76-6.187-119.658-47.738-203.495-156.91-203.495-283.873 0-21.204 17.304-38.308 38.408-38.308 21.104 0 38.308 17.103 38.308 38.308 0 107.888 82.804 198.579 194.7 225.101a3.519 3.519 0 0 1 1.612 0.884zM756.695 336.156c-2.609 1.04-3.031 4.535-0.76 6.187 56.876 41.389 93.933 108.48 93.933 184.036 0 125.425-102.021 227.546-227.546 227.546-125.425 0-227.546-102.021-227.546-227.546 0-75.556 37.057-142.648 93.934-184.036 2.271-1.652 1.849-5.147-0.76-6.187-119.66-47.738-203.497-156.909-203.497-283.872 0-20.404 15.903-36.907 36.007-38.108h0.3c0.7 0 1.3-0.2 2-0.2s1.3 0.2 2 0.2h595.021c0.7 0 1.3-0.2 2-0.2s1.3 0.2 2 0.2h1.6v0.2c19.404 1.9 34.707 18.104 34.707 38.008 0.003 126.958-83.926 236.127-203.393 283.772z"  horiz-adv-x="1024" />

    
    <glyph glyph-name="caozuotubiao-fanganmingxi" unicode="&#58888;" d="M821-63.138H204.4c-76.376 0-104.091 39.101-104.091 108.961V700c0 65.025 19.372 100.06 98.111 100.06h98.004a88.055 88.055 0 0 1-1.611-15.934c0-40.319 29.004-79.993 65.276-79.993h297.449c34.446 0 63.414 39.674 63.378 79.993 0 5.371-0.573 10.67-1.54 15.934H827c72.76 0 96.691-35.035 96.691-100.06v-654.214c0-78.274-26.315-108.924-102.691-108.924zM295.708 164.093h421.018c15.504 0 26.211 19.193 26.211 34.912-1.182 16.829-14.287 29.004-29.827 29.004H293.345c-15.54 0-28.646-13.392-28.646-29.004 0-15.72 15.505-34.912 31.009-34.912zM720.45 573.725H300.649c-15.54 0-28.61-15.683-28.61-31.367 0-15.719 9.883-32.549 25.387-32.549h420.983c15.504 0 31.832 16.829 31.832 32.549-1.181 16.829-14.286 31.367-29.791 31.367z m0-175.168H300.649c-15.54 0-28.61-15.683-28.61-31.367 0-15.719 9.883-32.549 25.387-32.549h420.983c15.504 0 31.832 16.829 31.832 32.549-1.181 16.829-14.286 31.367-29.791 31.367zM606.298 736.109H410.684c-23.812 0-42.933 21.484-42.933 48.017 0 26.497 19.085 47.91 42.933 47.91H605.08c23.883 0 42.933-21.413 42.933-47.91 0-26.533-19.085-48.017-41.715-48.017z"  horiz-adv-x="1024" />

    
    <glyph glyph-name="caozuotubiao-qianshou" unicode="&#58889;" d="M411.361 734.56h202.426l0.042 0.01c22.487 0 42.616 21.308 42.616 48.543s-18.95 48.543-43.806 48.543H411.361c-24.856 0-43.806-21.329-43.806-48.554s18.95-48.542 43.806-48.542zM824.562 783.113h-95.897c0-62.745-11.833-97.076-72.22-97.076h-288.89c-60.376 0-72.22 44.985-72.22 97.076h-95.897c-40.258 0-72.22-30.783-72.22-73.399v-699.218c0-48.522 26.045-73.388 72.22-73.388h625.124v-0.021c39.068 0 72.22 23.687 72.22 73.41V709.714c0 47.354-27.235 73.399-72.22 73.399zM244 535.5c0 25.681 20.819 46.5 46.5 46.5h442c25.681 0 46.5-20.819 46.5-46.5S758.181 489 732.5 489h-442c-25.681 0-46.5 20.819-46.5 46.5z m0-201.046c0 25.681 20.819 46.5 46.5 46.5h232c25.681 0 46.5-20.819 46.5-46.5s-20.819-46.5-46.5-46.5h-232c-25.681 0-46.5 20.819-46.5 46.5z m566.593-119.149L619.989 23.543l-0.071-0.071c-15.367-15.328-40.25-15.296-55.578 0.071L451.82 137.211c-15.364 15.367-15.362 40.28 0.005 55.644s40.28 15.362 55.644-0.005l67.68-67.68c9.707-9.707 25.454-9.679 35.126 0.063l144.669 145.711L755 271c15.367 15.336 40.257 15.311 55.593-0.056v0.01l0.071-0.071c15.328-15.367 15.296-40.25-0.071-55.578z"  horiz-adv-x="1024" />

    
    <glyph glyph-name="caozuotubiao-paiqijilu" unicode="&#58890;" d="M306.975 636.513c19.528 0 35.506 15.978 35.506 35.506v107.12c0 19.528-15.978 35.506-35.506 35.506s-35.506-15.978-35.506-35.506v-107.12c0-19.528 15.978-35.506 35.506-35.506zM717.025 636.513c19.528 0 35.506 15.978 35.506 35.506v107.12c0 19.528-15.978 35.506-35.506 35.506s-35.506-15.978-35.506-35.506v-107.12c0-19.528 15.977-35.506 35.506-35.506zM866.953 721.44H824c-16.538 0-29.946-13.407-29.946-29.946V665.4c0-42.366-34.663-77.03-77.03-77.03-42.366 0-77.03 34.663-77.03 77.03v26.095c0 16.538-13.407 29.946-29.946 29.946H413.951c-16.538 0-29.946-13.407-29.946-29.946V665.4c0-42.366-34.663-77.03-77.03-77.03-42.366 0-77.03 34.663-77.03 77.03v26.095c0 16.538-13.407 29.946-29.946 29.946h-42.953c-51.181 0-93.056-41.875-93.056-93.056v-581.974c0-51.181 41.875-93.056 93.056-93.056h709.905c51.181 0 93.056 41.875 93.056 93.056V628.385c0.001 51.18-41.874 93.055-93.054 93.055zM177.514 455.942c0 35.24 28.832 64.072 64.072 64.072h540.829c35.24 0 64.072-28.832 64.072-64.072s-28.832-64.072-64.072-64.072H241.586c-35.24 0-64.072 28.833-64.072 64.072z m174.045-341.349c0-22.753-18.616-41.369-41.369-41.369h-89.802c-22.753 0-41.369 18.616-41.369 41.369s18.616 41.369 41.369 41.369h89.802c22.753 0 41.369-18.616 41.369-41.369z m0 142.07c0-22.753-18.616-41.369-41.369-41.369h-89.802c-22.753 0-41.369 18.616-41.369 41.369s18.616 41.369 41.369 41.369h89.802c22.753 0 41.369-18.616 41.369-41.369z m247.712-142.07c0-22.753-18.616-41.369-41.369-41.369H468.1c-22.753 0-41.369 18.616-41.369 41.369s18.616 41.369 41.369 41.369h89.802c22.753 0 41.369-18.616 41.369-41.369z m0 142.07c0-22.753-18.616-41.369-41.369-41.369H468.1c-22.753 0-41.369 18.616-41.369 41.369s18.616 41.369 41.369 41.369h89.802c22.753 0 41.369-18.616 41.369-41.369z m247.712-142.07c0-22.753-18.616-41.369-41.369-41.369h-89.802c-22.753 0-41.369 18.616-41.369 41.369s18.616 41.369 41.369 41.369h89.802c22.753 0 41.369-18.616 41.369-41.369z m0 142.07c0-22.753-18.616-41.369-41.369-41.369h-89.802c-22.753 0-41.369 18.616-41.369 41.369s18.616 41.369 41.369 41.369h89.802c22.753 0 41.369-18.616 41.369-41.369z"  horiz-adv-x="1024" />

    
    <glyph glyph-name="caozuotubiao-tianjiaxingbiao" unicode="&#58891;" d="M512.032 83.836L277.249-39.596c-19.028-9.967-42.486-2.718-52.454 16.31-3.926 7.551-5.336 16.209-3.926 24.666l44.802 261.362L75.791 447.99c-15.404 15.001-15.706 39.567-0.705 54.971 5.94 6.141 13.793 10.068 22.25 11.377l262.469 38.157 117.391 237.904c9.464 19.23 32.821 27.183 52.051 17.619 7.652-3.826 13.894-9.967 17.619-17.619l117.391-238.004 262.469-38.157c21.243-3.121 35.942-22.753 32.821-43.997-1.208-8.457-5.235-16.31-11.377-22.25L758.392 262.742l44.802-261.362c3.624-21.143-10.571-41.278-31.714-44.903-8.457-1.41-17.115-0.101-24.666 3.927L512.032 83.836z"  horiz-adv-x="1024" />

    
    <glyph glyph-name="caozuotubiao-shenhe" unicode="&#58892;" d="M710.24 677.49H263.713c-14.884 0-29.768 14.884-29.768 29.768 0 18.605 14.884 29.768 29.768 29.768H710.24c14.884 0 29.768-14.884 29.768-29.768s-14.884-29.768-29.768-29.768m89.305 152.564H174.408c-33.49 0-59.537-26.047-59.537-59.537v-773.98c0-33.49 26.047-59.537 59.537-59.537h178.611c22.326 0 40.932 18.605 40.932 40.932 0 14.884-7.442 26.047-14.884 33.49-74.421 59.537-119.074 152.563-119.074 253.032 0 182.332 145.121 327.453 327.453 327.453 74.421 0 145.121-26.047 200.937-70.7 29.768-18.605 70.7 0 70.7 33.49v215.82c-0.001 33.489-26.048 59.537-59.538 59.537M594.887 82.121c-107.911 0-203.758 75.13-203.758 183.041s85.584 193.495 193.495 193.495S778.03 373.073 778.03 265.162c0-104.189-78.953-183.041-183.143-183.041z m250.984-133.958c7.442-7.442 18.605-11.163 26.047-11.163 11.163 0 18.605 3.721 26.047 11.163 14.884 14.884 14.884 40.932 0 55.816l-108.684 108.62c29.768 40.932 48.374 96.747 48.374 152.563 0 141.4-115.353 256.753-256.753 256.753-137.679 3.721-253.032-115.353-253.032-256.753s115.353-256.753 256.753-256.753c55.816 0 107.911 18.605 152.563 48.374l108.685-108.62z"  horiz-adv-x="1024" />

    
    <glyph glyph-name="caozuotubiao-guidang" unicode="&#58893;" d="M752.875 173.7l-9.781-27.399c-9.056-25.367-33.082-42.3-60.016-42.3H336.079c-28.457 0-53.465 18.868-61.278 46.231L256.024 216H127.726C92.531 216 64 187.469 64 152.274v-147.17c0.031-38.152 30.952-69.073 69.104-69.104h757.792c38.152 0.031 69.073 30.952 69.104 69.104v147.17C960 187.469 931.469 216 896.274 216h-83.383c-26.934 0-50.96-16.934-60.016-42.3zM383.824 160h252.343c26.401 0 50.068 16.279 59.511 40.934l11.541 30.133c9.443 24.654 33.11 40.934 59.511 40.934h73.545C875.469 272 904 300.531 904 335.726V774.824C904 806.401 878.401 832 846.824 832H177.176C145.599 832 120 806.401 120 774.824v-439.098C120 300.531 148.531 272 183.726 272h71.954c28.446 0 53.448-18.853 61.27-46.203l5.604-19.594c7.822-27.35 32.823-46.203 61.27-46.203z m46.326 358.13V716.321c0 13.077 10.601 23.679 23.679 23.679H570.17c13.077 0 23.679-10.601 23.679-23.679V518.13c0-13.077 10.601-23.679 23.679-23.679h82.854c21.096 0 31.66-25.506 16.744-40.422L528.744 265.646c-9.247-9.247-24.24-9.247-33.487 0L306.874 454.029c-14.917 14.917-4.352 40.422 16.743 40.422h82.854c13.078 0 23.679 10.602 23.679 23.679z"  horiz-adv-x="1024" />

    
    <glyph glyph-name="caozuotubiao-pingfen" unicode="&#58894;" d="M504.606 830.287c-171.426 0-310.394-138.968-310.394-310.394S333.18 209.499 504.606 209.499 815 348.467 815 519.893 676.032 830.287 504.606 830.287z m0-485.894c-96.926 0-175.5 78.574-175.5 175.5s78.574 175.5 175.5 175.5 175.5-78.574 175.5-175.5-78.574-175.5-175.5-175.5zM189.169 290.349L63.174 92.83l145.964 24.305c27.068 4.507 53.173-12.144 60.496-38.59l39.493-142.606 127.052 199.175c13.376 20.969 2.539 48.838-21.46 55.37-65.507 17.83-123.175 54.671-166.709 104.238-16.237 18.486-45.61 16.37-58.841-4.373zM834.005 290.349L960 92.83l-145.964 24.305c-27.068 4.507-53.173-12.144-60.496-38.59l-39.493-142.606-127.052 199.175c-13.376 20.969-2.539 48.838 21.46 55.37 65.507 17.83 123.175 54.671 166.709 104.238 16.237 18.486 45.609 16.37 58.841-4.373zM504.606 519.893m-139.771 0a139.771 139.771 0 1 1 279.542 0 139.771 139.771 0 1 1-279.542 0Z"  horiz-adv-x="1024" />

    
    <glyph glyph-name="caozuotubiao-bukong" unicode="&#58895;" d="M512.305 832.999C264.848 833.133 64.136 632.638 64.001 385.181c-0.134-247.457 200.36-448.169 447.817-448.304 247.457-0.134 448.169 200.36 448.304 447.817v0.486C959.72 632.337 759.461 832.596 512.305 832.999z m0-822.786c-207.089-0.42-375.307 167.119-375.727 374.208-0.42 207.089 167.119 375.307 374.207 375.727a374.965 374.965 0 0 0 256.37-100.624h1.218c12.008 10.811 30.48 9.941 41.42-1.949l1.948-1.949c10.811-12.008 9.941-30.48-1.949-41.42l-1.218-0.487c126.487-163.632 96.376-398.82-67.256-525.307a374.481 374.481 0 0 0-229.013-78.199zM575.287 382.501c-0.001-33.304-26.999-60.302-60.303-60.301s-60.302 26.999-60.301 60.304c0.001 33.304 26.999 60.301 60.302 60.301 33.238-0.161 60.143-27.066 60.302-60.304zM847.361 385.358c0.515-185.315-149.293-335.96-334.608-336.477-185.166-0.516-335.965 149.446-336.479 334.612-0.514 185.315 149.295 335.959 334.61 336.475a335.548 335.548 0 0 0 204.631-68.902c9.186-7.018 9.812-20.628 1.277-28.425L588.297 505.266c-6.89-6.293-16.761-7.989-25.426-4.527-59.654 23.835-129.015-0.319-160.295-58.202-33.648-62.265-10.399-140.183 51.867-173.83 62.323-33.678 140.148-10.456 173.827 51.867a128.273 128.273 0 0 1 15.422 61.179 123.147 123.147 0 0 1-7.904 43.862c-3.461 9.189-0.885 19.563 6.361 26.189L767.857 566.75c8.486 7.759 21.98 6.032 28.106-3.698a334.34 334.34 0 0 0 51.399-177.695h-0.001z"  horiz-adv-x="1024" />

    
    <glyph glyph-name="caozuotubiao-xiugai" unicode="&#58896;" d="M735.369 531.823l-120.137 117.14c-12.334 12.027-32.044 11.907-44.232-0.268L245.737 324.138a88.4 88.4 0 0 1-22.799-39.236l-45.509-166.776c-4.34-15.907 10.305-30.48 26.19-26.061l166.364 46.281a88.407 88.407 0 0 1 38.775 22.615L735.635 487c12.422 12.403 12.302 32.568-0.266 44.823z m-14.815 266.48l-65.842-65.733c-12.453-12.433-12.299-32.659 0.343-44.9l120.507-116.691c12.346-11.955 31.999-11.801 44.156 0.346l63.971 63.917c45.078 45.002 45.078 118.056 0 163.059-45 45.003-118.133 45.003-163.135 0.002z m-560.607-754.99h704.105c29.517 0 53.446-23.928 53.446-53.446 0-29.517-23.928-53.446-53.446-53.446H159.947c-29.517 0-53.446 23.928-53.446 53.446 0.001 29.518 23.929 53.446 53.446 53.446z"  horiz-adv-x="1024" />

    
    <glyph glyph-name="caozuotubiao-lishizukejiluliebiao" unicode="&#58897;" d="M747.145 263.029l-93.822 49.995c58.118 43.656 95.703 106.416 95.703 185.157 0 15.623-1.518 24.729-4.375 39.549H876.78c21.251 0 38.478 17.227 38.478 38.478s-17.227 38.478-38.478 38.478h-60.2c-33.675 0-63.329 21.564-74.385 53.372-33.106 95.248-123.604 163.567-230.106 163.567-106.5 0-197.061-68.317-230.133-163.563-11.045-31.808-40.693-53.377-74.364-53.377H147.22c-21.251 0-38.478-17.227-38.478-38.478s17.227-38.478 38.478-38.478h132.128c-2.857-14.82-4.374-23.926-4.374-39.549 0-78.741 37.674-141.502 95.703-185.157l-93.822-49.995C160.527 201.042 87.852 79.968 87.852-51.845c0-5.892 4.821-10.713 10.713-10.713h826.869c5.892 0 10.713 4.821 10.713 10.713 0.001 131.813-72.674 252.887-189.002 314.874zM395.141 537.73h233.896c21.63 0 39.309-17.441 39.373-39.07l0.001-0.479c0-87.222-69.992-150.786-156.321-150.786s-156.321 63.564-156.321 150.786l0.001 0.477c0.062 21.631 17.741 39.072 39.371 39.072z"  horiz-adv-x="1024" />

    
    <glyph glyph-name="caozuotubiao-tianjiachuli" unicode="&#58898;" d="M854.239 276.239H658.761c-21.539 0-39-17.461-39-39V41.76c0-59.094-47.905-106.999-106.999-106.999h-1.001c-59.094 0-106.999 47.905-106.999 106.999V237.239c0 21.539-17.461 39-39 39H169.761c-59.094 0-106.999 47.905-106.999 106.999 0 59.094 47.905 106.999 106.999 106.999h196.001c21.539 0 39 17.461 39 39V726.239c0 59.094 47.905 106.999 106.999 106.999h1.001c59.094 0 106.999-47.905 106.999-106.999v-197.001c0-21.539 17.461-39 39-39h195.478c59.094 0 106.999-47.905 106.999-106.999v-0.001c0-59.094-47.905-106.999-106.999-106.999z"  horiz-adv-x="1024" />

    
    <glyph glyph-name="caozuotubiao-jiluxinxi" unicode="&#58899;" d="M941.436 697.433l-53.163 39.42c-13.545 10.044-32.71 6.918-42.362-6.908l-6.441-9.226c-9.269-13.278-6.295-31.519 6.711-41.166l53.147-39.419c13.533-10.037 32.681-6.928 42.343 6.875l6.457 9.225c9.295 13.279 6.328 31.545-6.692 41.199zM871.564 597.442l-53.187 39.438c-13.544 10.043-32.706 6.919-42.36-6.905L562.906 324.793a69.363 69.363 0 0 1-12.48-41.07l1.427-72.905c0.072-3.653 3.571-6.256 7.09-5.274l68.326 19.074a69.37 69.37 0 0 1 38.21 27.082L878.27 556.265c9.278 13.279 6.306 31.529-6.706 41.177zM763.784 329.788l-73.886-104.755a53.756 53.756 0 0 0-29.384-20.767l-120.889-33.974c-8.851-2.487-17.683 4.006-17.948 13.196l-3.331 115.322a73.107 73.107 0 0 0 13.336 44.248l276.135 391.477a3.724 3.724 0 0 1 0.529 3.244c-11.107 35.7-44.152 60.159-81.68 60.22H156.442c-47.486 0-85.981-38.495-85.981-85.98v-657.998c0-47.525 38.497-86.022 85.981-86.022h566.481c49.575 0 89.764 40.189 89.764 89.764V314.277c0 26.262-33.766 36.972-48.903 15.511zM350.593 169.667c0-25.667-21-46.667-46.667-46.667H202.371c-25.667 0-46.667 21-46.667 46.667s21 46.667 46.667 46.667h101.555c25.667 0 46.667-21 46.667-46.667z m91 232.5c0-25.667-21-46.667-46.667-46.667H202.371c-25.667 0-46.667 21-46.667 46.667s21 46.667 46.667 46.667h192.555c25.667 0 46.667-21 46.667-46.667zM202.371 588c-25.667 0-46.667 21-46.667 46.667s21 46.667 46.667 46.667h292.555c25.667 0 46.667-21 46.667-46.667S520.593 588 494.926 588H202.371z"  horiz-adv-x="1024" />

    
    <glyph glyph-name="caozuotubiao-ganxiren" unicode="&#58900;" d="M512.427 832C265.264 832 64.668 631.404 64.668 384.241s200.596-447.759 447.759-447.759 447.759 200.596 447.759 447.759S759.59 832 512.427 832z m0-134.328c74.328 0 134.328-60 134.328-134.328s-60-134.328-134.328-134.328-134.328 60-134.328 134.328 60 134.328 134.328 134.328z m0-635.818c-108.055 0-208.925 54.133-268.655 144.178 1.343 89.104 179.104 137.91 268.655 137.91 89.104 0 267.312-48.806 268.655-137.91-59.73-90.045-160.599-144.178-268.655-144.178z"  horiz-adv-x="1024" />

    
    <glyph glyph-name="caozuotubiao-shijianguanlian" unicode="&#58901;" d="M992.33 386.613a186.113 186.113 0 0 1-54.21 134.801l-0.264 0.264a188.152 188.152 0 0 1-134.207 54.276l-295.322-4.748a196.067 196.067 0 0 1-136.12-57.772 197.06 197.06 0 0 1-58.036-136.383l-0.009-0.87c-0.167-15.353 12.258-27.739 27.61-27.525l53.705 0.749c15.674 0.219 28.44 13.223 28.369 28.899 0.33 22.423 9.826 42.735 24.731 58.167a81.777 81.777 0 0 0 57.904 24.401l232.538 3.297 8.376 0.462 54.079 0.725c22.489 0.33 42.537-8.573 56.98-23.082 14.773-14.707 23.412-34.492 23.082-57.508a83.097 83.097 0 0 0-24.731-57.64c-15.168-15.168-35.151-24.401-57.574-24.665-25.556-0.375-48.438-14.951-60.672-37.393a193.741 193.741 0 0 0-7.884-13.201c-16.939-25.935 2.747-60.276 33.72-59.827l33.319 0.483a195.41 195.41 0 0 1 136.054 57.706c35.282 35.349 57.573 83.756 58.562 136.384zM31.67 381.387a186.113 186.113 0 0 1 54.21-134.801l0.264-0.264a188.152 188.152 0 0 1 134.207-54.276l295.322 4.748a196.067 196.067 0 0 1 136.12 57.772 197.057 197.057 0 0 1 58.036 136.384l0.009 0.87c0.167 15.353-12.258 27.739-27.61 27.525l-53.705-0.749c-15.674-0.219-28.44-13.223-28.369-28.899-0.33-22.423-9.826-42.735-24.731-58.167a81.777 81.777 0 0 0-57.904-24.401l-232.538-3.297-8.376-0.462-54.079-0.725c-22.489-0.33-42.537 8.573-56.98 23.082-14.773 14.707-23.412 34.492-23.082 57.508a83.097 83.097 0 0 0 24.731 57.64c15.168 15.168 35.151 24.401 57.574 24.665 25.556 0.375 48.438 14.951 60.672 37.393a193.497 193.497 0 0 0 7.884 13.201c16.939 25.935-2.747 60.276-33.72 59.827l-33.319-0.483a195.41 195.41 0 0 1-136.054-57.706c-35.282-35.35-57.573-83.757-58.562-136.385z"  horiz-adv-x="1024" />

    
    <glyph glyph-name="caozuotubiao-shejiaoguanxi" unicode="&#58902;" d="M858.673 557.495c15.855 0 28.876 12.985 28.876 28.876V701.925c0 15.873-13.02 28.876-28.876 28.876h-28.928V803.007c0 15.89-12.95 28.893-28.841 28.893H165.379c-15.89 0-28.893-13.003-28.893-28.893l-0.035-837.689c0-15.89 13.003-28.876 28.893-28.876h635.56c15.89 0 28.841 12.985 28.841 28.876V66.435h28.928c15.855 0 28.876 12.985 28.876 28.876V210.848c0 15.89-13.02 28.876-28.876 28.876h-28.928v72.224h28.928c15.855 0 28.876 13.02 28.876 28.911V456.36c0 15.89-13.02 28.893-28.876 28.893h-28.928v72.241h28.928z m-160.38-264.371c-27.885-32.089-62.43-48.129-103.639-48.129-20.298 0-36.804 5.43-49.514 16.299-12.714 10.865-19.581 25.012-20.604 42.44h-1.845c-14.354-39.163-40.393-58.739-78.114-58.739-28.293 0-51.104 10.249-68.426 30.753-17.328 20.499-25.987 48.898-25.987 85.188 0 46.947 11.994 85.134 35.981 114.557 23.988 29.417 52.896 44.131 86.725 44.131 5.106 0 12.165-0.155 20.381-0.412 59.41-1.862 105.157-53.068 100.341-112.311-2.368-29.132-3.552-50.502-3.552-64.109 0-28.707 7.789-43.055 23.373-43.055 16.4 0 29.932 10.864 40.595 32.599C664.667 354.064 670 382.462 670 417.521c0 47.976-15.275 87.287-45.822 117.94-30.552 30.647-73.193 45.976-127.935 45.976-58.638 0-107.382-20.451-146.233-61.353-38.855-40.902-58.278-90.776-58.278-149.616 0-56.999 17.169-101.899 51.512-134.7 34.338-32.805 81.751-49.205 142.235-49.205 32.367 0 62.816 4.339 91.347 13.019 17.599 5.355 35.357-7.863 35.357-26.259 0-11.915-7.682-22.476-19.024-26.122-31.883-10.251-70.648-15.379-116.291-15.379-75.653 0-137.213 21.681-184.674 65.044C244.729 240.228 221 298.505 221 371.699c0 74.625 25.319 137.362 75.961 188.211 50.638 50.844 115.835 76.269 195.592 76.269 73.809 0 133.518-19.735 179.139-59.2 45.616-39.47 68.427-91.492 68.427-156.074 0-53.104-13.946-95.697-41.826-127.781zM476.662 465c-18.452 0-33.473-10.509-45.054-31.522C420.023 412.46 414 390.333 414 362.655c0-19.683 3.945-35.011 11.84-45.977 7.89-10.971 18.091-16.453 30.6-16.453 19.269 0 34.443 10.351 45.515 31.061 11.071 20.706 16.84 46.167 16.84 80.819 0 16.399-3.845 29.316-11.533 38.749-7.688 9.427-17.89 14.146-30.6 14.146z"  horiz-adv-x="1024" />

    
    <glyph glyph-name="caozuotubiao-shanchu" unicode="&#58903;" d="M191.504 718.074h640.992c35.354 0 64.186-28.842 64.186-64.176v-51.094c0-21.744-17.627-39.37-39.37-39.37H166.688c-21.744 0-39.37 17.627-39.37 39.37v51.094c0 35.334 28.832 64.176 64.186 64.176z m16.712-181.493h607.558c27.435 0 49.883-22.447 49.883-49.882v-484.74c0-35.302-28.884-64.186-64.186-64.186H222.529c-35.302 0-64.186 28.884-64.186 64.186v484.75c0 27.43 22.443 49.872 49.873 49.872zM421.501 832.209H602.49c21.272 0 33.646-6.444 40.982-28.483 5.415-16.265 7.016-37.071 10.025-56.228a8.579 8.579 0 0 0-8.462-9.879H378.966a8.568 8.568 0 0 0-8.452 9.879c2.989 19.157 4.6 39.963 10.015 56.228 7.336 22.039 19.709 28.483 40.972 28.483z m57.926-408.18v-398.275c0-41.661 65.146-41.661 65.146 0V424.029c0 51.279-65.146 51.279-65.146 0z m184.395-0.029v-398.255c0-41.729 66.699-42.506 66.699 0.01V424.029c0 52.637-66.699 52.637-66.699-0.029z m-303.654 0c0 52.666-66.689 52.666-66.699 0.029v-398.275c0-42.515 66.699-41.739 66.699-0.01V424z"  horiz-adv-x="1024" />

    
    <glyph glyph-name="caozuotubiao-zoufangjilu" unicode="&#58905;" d="M565.288 52.01l-71.646 68.422c-8.468 8.087-22.401 5.268-27.059-5.474l-58.426-134.716c-6.277-14.474 9.023-28.851 23.079-21.688l130.072 66.294c10.329 5.265 12.364 19.154 3.98 27.162zM920.548 431.772l-53.945 53.848c-14.922 14.922-41.51 12.526-59.395-5.455L518.363 190.896c-17.982-17.885-20.372-44.475-5.451-59.395l53.848-53.945c14.921-14.825 41.51-12.435 59.492 5.547L915.001 372.28c17.982 17.982 20.469 44.571 5.547 59.492zM799.974 215.636l-180.416-179.59c-3.73-3.634-7.846-5.74-11.861-8.511l-132.97-72.314c-8.945-4.865-5.49-18.452 4.693-18.452h302.923c25.442 0 45.91 20.561 45.91 45.906V203.884c0 14.754-17.823 22.16-28.279 11.752zM782.341 832H139.613c-25.356 0-45.911-20.555-45.911-45.911V-17.23c0-25.442 20.565-45.906 45.911-45.906h203.471a35.725 35.725 0 0 1 32.854 21.694l83.699 195.993c3.35 8.893 8.034 17.596 15.592 25.056L805.278 508.14a78.002 78.002 0 0 1 22.974 55.283V786.09c0 25.355-20.555 45.91-45.911 45.91zM210.384 716.02c12.558 7.192 28.524 3.675 36.899-8.126l21.497-30.292c9.471-13.345 5.587-31.927-8.435-40.363l-1.928-1.16c-13.241-7.965-30.424-3.757-38.48 9.429-6.332 10.363-13.304 21.513-19.356 31.106-8.537 13.534-4.083 31.454 9.803 39.406z m-43.905-149.165c0 14.635 11.864 26.498 26.498 26.498h42.416c15.975 0 28.925-12.95 28.925-28.925v-100.885c0-6.768 7.639-10.715 13.16-6.8 9.661 6.852 23.121 0.735 24.301-11.051l0.078-0.78c2.118-21.035-6.854-41.619-23.581-54.548-10.476-8.097-20.397-16.236-29.764-24.415-10.842-9.468-27.457-7.685-36.131 3.803a43.963 43.963 0 0 0-6.815 39.802l4.126 12.989V531.888a8.47 8.47 0 0 1-8.469 8.469h-8.245c-14.635 0-26.499 11.864-26.499 26.498z m281.608-315.436c0-15.4-12.6-28-28-28h-217c-15.4 0-28 12.6-28 28s12.6 28 28 28h217c15.4 0 28-12.6 28-28z m120.347 389.834c0-14.972-12.137-27.109-27.109-27.109H423.708c-10.175 0-18.468-8.163-18.628-18.337-0.177-11.209 8.861-20.391 20.072-20.391h64.371c32.799 0 59.135-27.073 58.239-59.861-1.7-62.206-3.234-100.242-4.603-114.109-1.768-17.867-6.593-31.967-14.472-42.296-7.883-10.325-17.631-16.781-29.25-19.363-9.147-2.031-27.328-3.391-54.542-4.077-13.743-0.346-25.829 9.1-28.778 22.527l-0.139 0.63c-3.993 18.119 9.981 35.186 28.532 34.869 5.428-0.093 10.386-0.139 14.874-0.139 7.746 0 13.86 2.105 18.345 6.319 4.484 4.21 7.134 11.685 7.95 22.422 0.695 9.159 1.785 34.398 3.273 75.718 0.447 12.419-9.498 22.733-21.925 22.733h-30.79c-17.876 0-32.859-13.549-34.617-31.338-5.182-52.443-20.113-97.355-44.794-134.739-10.155-15.381-31.332-18.782-45.79-7.351l-0.532 0.42c-13.232 10.441-16.076 29.505-6.172 43.143 8.952 12.328 16.303 25.279 22.052 38.854 9.58 22.625 15.319 44.467 17.223 65.532 1.689 18.708 2.735 52.053 3.139 100.037 0.087 10.351-8.279 18.797-18.63 18.797-14.972 0-27.109 12.137-27.109 27.109 0 14.972 12.137 27.109 27.109 27.109h48.387c14.352 0 24.513 14.023 20.044 27.661l-0.173 0.527c-4.008 12.23 3.77 25.169 16.451 27.367l18.079 3.134c10.715 1.857 21.086-4.736 23.95-15.227l7.624-27.925a21.092 21.092 0 0 1 20.348-15.537h58.496c14.974 0.001 27.112-12.136 27.112-27.109z"  horiz-adv-x="1024" />

    
    <glyph glyph-name="caozuotubiao-pandian" unicode="&#58906;" d="M925 735.214v-703.428C925-22.22 881.22-66 827.214-66H196.786C142.78-66 99-22.22 99 31.786V735.214C99 789.22 142.78 833 196.786 833h630.428C881.22 833 925 789.22 925 735.214z m-669.104-5.92c-19.989 0-36.193-14.375-36.193-32.107v-74.167c0-17.732 16.204-32.107 36.193-32.107h512.273c19.989 0 36.193 14.375 36.193 32.107v74.167c0 17.732-16.204 32.107-36.193 32.107H255.896z m40.023-363.068c33.408-0.001 60.49 27.081 60.491 60.489s-27.081 60.49-60.489 60.491h-0.003c-33.408-0.001-60.489-27.084-60.489-60.491 0.002-33.407 27.083-60.488 60.49-60.489z m207.412 0c33.408-0.001 60.49 27.081 60.491 60.489 0.001 33.408-27.081 60.49-60.489 60.491h-0.003c-33.408-0.001-60.489-27.084-60.489-60.491 0.002-33.407 27.083-60.488 60.49-60.489z m207.476 0c33.408-0.001 60.49 27.081 60.491 60.489s-27.081 60.49-60.489 60.491h-0.003c-33.408-0.001-60.489-27.084-60.489-60.491 0.003-33.407 27.084-60.488 60.49-60.489zM295.919 193.297c33.425 0 60.522 27.097 60.522 60.522s-27.097 60.522-60.522 60.522-60.522-27.097-60.522-60.522 27.097-60.522 60.522-60.522z m207.412 0c33.425 0 60.522 27.097 60.522 60.522s-27.097 60.522-60.522 60.522-60.522-27.097-60.522-60.522 27.097-60.522 60.522-60.522z m207.476 0c33.425 0 60.522 27.097 60.522 60.522s-27.097 60.522-60.522 60.522-60.522-27.097-60.522-60.522 27.097-60.522 60.522-60.522zM295.919 20.432c33.425 0 60.522 27.097 60.522 60.522s-27.097 60.522-60.522 60.522-60.522-27.097-60.522-60.522 27.097-60.522 60.522-60.522z m207.412 0c33.425 0 60.522 27.097 60.522 60.522s-27.097 60.522-60.522 60.522-60.522-27.097-60.522-60.522 27.097-60.522 60.522-60.522z m207.476 0c33.425 0 60.522 27.097 60.522 60.522s-27.097 60.522-60.522 60.522-60.522-27.097-60.522-60.522 27.097-60.522 60.522-60.522z"  horiz-adv-x="1024" />

    
    <glyph glyph-name="caozuotubiao-weizhixinxi" unicode="&#58907;" d="M773.786 723.569c-144.574 144.574-378.99 144.574-523.595 0-144.574-144.574-144.574-378.99 0-523.595l217.614-243.976c23.55-26.403 64.845-26.4 88.392 0.005l217.589 244.002c144.605 144.574 144.605 378.99 0 523.564zM512.004 276.673c-102.236-0.021-185.131 82.841-185.151 185.077s82.841 185.131 185.077 185.152h0.075c102.236-0.021 185.097-82.916 185.077-185.152-0.022-102.207-82.872-185.056-185.078-185.077z"  horiz-adv-x="1024" />

    
    <glyph glyph-name="caozuotubiao-chekong" unicode="&#58908;" d="M512.305 832.999C264.848 833.133 64.136 632.638 64.001 385.181c-0.134-247.457 200.36-448.169 447.817-448.304 247.457-0.134 448.169 200.36 448.304 447.817v0.486C959.72 632.337 759.461 832.596 512.305 832.999z m0-822.786c-207.089-0.42-375.307 167.119-375.727 374.208-0.42 207.089 167.119 375.307 374.207 375.727a374.965 374.965 0 0 0 256.37-100.624l41.419-45.804c126.487-163.632 96.376-398.82-67.256-525.307a374.476 374.476 0 0 0-229.013-78.2zM512.062 720.01c-185.055 0-335.072-150.017-335.072-335.072s150.017-335.072 335.072-335.072 335.072 150.017 335.072 335.072S697.117 720.01 512.062 720.01z m172.915-445.692c17.131-17.131 17.131-45.164 0-62.295s-45.164-17.131-62.295 0l-110.62 110.62-110.62-110.62c-17.131-17.131-45.164-17.131-62.295 0s-17.131 45.164 0 62.295l110.62 110.62-110.62 110.62c-17.131 17.131-17.131 45.164 0 62.295s45.164 17.131 62.295 0l110.62-110.62 110.62 110.62c17.131 17.131 45.164 17.131 62.295 0s17.131-45.164 0-62.295l-110.62-110.62 110.62-110.62z"  horiz-adv-x="1024" />

    
    <glyph glyph-name="caozuotubiao-xiangqing" unicode="&#58904;" d="M836.234 830H187.766C142.828 830 106 794.426 106 751.011v-737.913c0-43.459 36.739-79.078 81.766-79.078h648.467c44.983 0 81.766 35.574 81.766 79.078V751.011c0.001 43.415-36.738 78.989-81.765 78.989zM568 161.11c0-23.65-19.35-43-43-43H254.999c-23.65 0-43 19.35-43 43s19.35 43 43 43H525c23.65 0 43-19.35 43-43z m244 242c0-23.65-19.35-43-43-43H255c-23.65 0-43 19.35-43 43s19.35 43 43 43h514c23.649 0 43-19.35 43-43z m0 242c0-23.65-19.35-43-43-43H255c-23.65 0-43 19.35-43 43s19.35 43 43 43h514c23.649 0 43-19.35 43-43z"  horiz-adv-x="1024" />

    


  </font>
</defs>
</svg>
