<?xml version="1.0" standalone="no"?>
<!DOCTYPE svg PUBLIC "-//W3C//DTD SVG 1.1//EN" "http://www.w3.org/Graphics/SVG/1.1/DTD/svg11.dtd" >
<!--
2013-9-30: Created.
-->
<svg>
<metadata>
Created by iconfont
</metadata>
<defs>

<font id="iconfont" horiz-adv-x="1024" >
  <font-face
    font-family="iconfont"
    font-weight="500"
    font-stretch="normal"
    units-per-em="1024"
    ascent="896"
    descent="-128"
  />
    <missing-glyph />
    
    <glyph glyph-name="cangkuguanli" unicode="&#58926;" d="M943.721 603.151L572.033 817.904c-37.145 21.462-82.922 21.462-120.067 0L80.279 603.151c-23.91-13.815-32.094-44.397-18.28-68.307 13.815-23.91 44.397-32.094 68.307-18.28l371.687 214.753a20 20 0 0 0 20.011 0l371.687-214.753c23.91-13.815 54.493-5.631 68.307 18.28 13.817 23.911 5.633 54.493-18.277 68.307zM781 444v-390c0-11.046-8.954-20-20-20H263c-11.046 0-20 8.954-20 20V444c0 27.614-22.386 50-50 50s-50-22.386-50-50v-430c0-44.183 35.817-80 80-80h578c44.183 0 80 35.817 80 80V444c0 27.614-22.386 50-50 50s-50-22.386-50-50zM637 121H387c-27.5 0-50 22.5-50 50s22.5 50 50 50h250c27.5 0 50-22.5 50-50s-22.5-50-50-50z"  horiz-adv-x="1024" />

    
    <glyph glyph-name="caogaoxiang" unicode="&#58927;" d="M882 484h-20V754c0 44.183-35.817 80-80 80H242c-44.183 0-80-35.817-80-80v-270h-20c-44.183 0-80-35.817-80-80v-390c0-44.183 35.817-80 80-80h740c44.183 0 80 35.817 80 80V404c0 44.183-35.817 80-80 80zM262 714c0 11.046 8.954 20 20 20h460c11.046 0 20-8.954 20-20v-230h-52c-44.183 0-80-35.817-80-80v-71H394v71c0 44.183-35.817 80-80 80h-52V714z m600-660c0-11.046-8.954-20-20-20H182c-11.046 0-20 8.954-20 20V364c0 11.046 8.954 20 20 20h92c11.046 0 20-8.954 20-20v-51c0-44.183 35.817-80 80-80h276c44.183 0 80 35.817 80 80v51c0 11.046 8.954 20 20 20h92c11.046 0 20-8.954 20-20v-310z"  horiz-adv-x="1024" />

    
    <glyph glyph-name="chengshibujianguanli" unicode="&#58928;" d="M671.256-63C625.924-63 589-25.986 589 19.347V76H435v-56.653C435-25.986 398.062-63 352.73-63H147.502C102.169-63 65-25.986 65 19.347V224.574C65 269.908 102.169 307 147.502 307H204V461h-56.498C102.169 461 65 498.093 65 543.426V748.654C65 793.987 102.175 831 147.517 831h205.228C398.078 831 435 793.987 435 748.654V692h154v56.654C589 793.987 625.939 831 671.272 831h205.226C921.832 831 959 793.987 959 748.654v-205.228c0-40.886-30-74.898-69-81.176v-1.038l-13.502-0.212H820v-154h56.483C921.816 307 959 269.893 959 224.559v-205.212C959-25.986 921.816-63 876.483-63H671.256zM864 32V211H685v-179h179zM589 168v56.559C589 269.893 625.939 307 671.272 307h56.072l-0.013 154h-56.075C625.924 461 589 498.093 589 543.426V600H435v-56.589C435 498.078 398.062 461 352.73 461H296v-154h56.73c45.333 0 82.27-37.107 82.27-82.441V168h154z m275 389V736H685v-179h179z m-525 0V736H160v-179h179z"  horiz-adv-x="1024" />

    
    <glyph glyph-name="canguan" unicode="&#58929;" d="M853.251 372.994a351.653 351.653 0 0 0-6.347-25.915c-9.115-31.851-22.532-60.895-39.879-86.325-34.807-51.025-85-87.618-149.186-108.763-38.49-12.679-69.153-39.622-86.899-73.801H453.543a151.035 151.035 0 0 1-86.455 75.866c-31.904 10.931-60.969 26.014-86.387 44.83-24.634 18.235-45.913 40.035-63.246 64.792-17.54 25.054-31.107 53.232-40.326 83.752a325.492 325.492 0 0 0-6.591 25.565h682.713m92.726 99.999H78.023c-8.558 0-15.496-6.938-15.496-15.496v-6.807c0-187.614 103.974-333.618 272.148-391.238 20.563-7.045 34.479-26.24 34.479-47.976v-2.698c0-16.895 13.696-30.59 30.59-30.59h223.701c16.895 0 30.59 13.696 30.59 30.59 0 21.986 14.209 41.353 35.09 48.232 171.559 56.516 272.347 203.028 272.347 400.487 0.001 8.559-6.937 15.496-15.495 15.496zM540.847 807.141c25.444-16.465 32.726-50.438 16.266-75.885l-125.27-193.673c-16.462-25.45-50.437-32.738-75.889-16.278l-0.002 0.001c-25.454 16.461-32.743 50.442-16.279 75.894l125.272 193.672c16.466 25.455 50.451 32.74 75.902 16.269zM749.258 794.087l0.016-0.01c25.447-16.463 32.732-50.437 16.273-75.887l-125.27-193.687c-16.461-25.452-50.439-32.741-75.891-16.279l-0.006 0.004c-25.451 16.461-32.74 50.437-16.281 75.889l125.26 193.693c16.462 25.456 50.446 32.745 75.899 16.277z"  horiz-adv-x="1024" />

    
    <glyph glyph-name="chezhan" unicode="&#58930;" d="M961.271 783.161c-0.021 27.669-22.444 50.092-50.113 50.112H112.841c-27.669-0.02-50.092-22.444-50.112-50.112v-411.257c0.02-27.669 22.444-50.092 50.112-50.112h300.665c27.669-0.019 50.092-22.442 50.112-50.113v-286.84c0-27.65 21.601-50.112 47.951-50.112 26.349 0 47.944 22.483 47.944 50.118v286.84c0.02 27.665 22.449 50.088 50.112 50.112h300.67c27.67 0.02 50.094 22.444 50.113 50.107V783.161h0.863zM246.325 424.178c0-27.648-15.971-50.113-34.992-50.113-19.022 0-34.993 22.464-34.993 50.113v90.267c0 27.648 15.971 50.113 34.993 50.113 19.021 0 34.992-22.464 34.992-50.113v-90.267z m200.445 0c0-27.648-15.971-50.113-34.992-50.113-19.022 0-34.993 22.464-34.993 50.113v90.267c0 27.648 15.971 50.113 34.993 50.113 19.021 0 34.992-22.464 34.992-50.113v-90.267z m200.445 0c0-27.648-15.976-50.113-34.993-50.113-19.021 0-34.997 22.464-34.997 50.113v90.267c0 27.648 15.976 50.113 34.997 50.113 19.017 0 34.993-22.464 34.993-50.113v-90.267z m200.873 0c0-27.648-15.973-50.113-34.993-50.113-19.439 0-34.992 22.464-34.992 50.113v90.267c0 27.648 15.971 50.113 34.992 50.113 19.44 0 34.993-22.464 34.993-50.113v-90.267z m53.121 242.782c-0.019-27.67-22.447-50.093-50.112-50.112H172.888c-27.664 0.019-50.087 22.442-50.107 50.112v66.089c0.02 27.669 22.444 50.092 50.107 50.113h677.791c27.669-0.02 50.092-22.444 50.112-50.113v-66.094l0.418 0.005z m-537.81 32.83c0-19.439-22.463-34.993-50.112-34.993h-90.271c-27.65 0-50.112 15.972-50.112 34.993 0 19.015 22.463 34.992 50.112 34.992h90.271c27.644 0.428 50.112-15.553 50.112-34.992z m0 0M820-66H200c-27.5 0-50 22.5-50 50s22.5 50 50 50h620c27.5 0 50-22.5 50-50s-22.5-50-50-50z"  horiz-adv-x="1024" />

    
    <glyph glyph-name="aizibingweixianrenyuanguanli" unicode="&#58931;" d="M151.288-79l-0.805 0.079c-25.881 1.921-46.054 24.005-45.926 50.265 0 0.538 4.793 74.693 45.187 161.748 22.801 49.139 52.309 92.234 87.703 128.082 34.328 34.77 74.216 62.699 118.965 83.351-40.797 30.712-72.681 72.248-91.697 120.196-24.475 61.713-26.146 130.302-4.707 193.134C298.6 770.967 404.747 846.965 524.141 846.965c15.875 0 31.898-1.375 47.626-4.087 65.422-11.28 124.827-45.595 167.27-96.624 42.447-51.034 65.36-115.697 64.518-182.078-0.881-73.009-29.727-141.737-81.222-193.51-51.314-51.592-119.589-80.791-192.328-82.269-124.736-10.768-216.579-65.807-273.615-163.6-45.761-78.46-50.39-154.58-50.39-156.536v-0.964l-0.434-1.105C202.98-59.561 181.037-79 154.955-79h-3.667z m375.578 821.879c-98.41 0-178.472-80.063-178.472-178.473s80.062-178.473 178.472-178.473c47.671 0 92.488 18.564 126.196 52.273 33.712 33.708 52.277 78.526 52.277 126.2 0 98.41-80.062 178.473-178.473 178.473zM637.32-75.698c-13.875 0-27.511 6.609-35.96 18.91-13.625 19.838-8.588 46.966 11.251 60.591 0.802 0.552 41.268 28.488 84.209 64.742-35.179 39.765-51.913 74.359-51.913 106.327 0 59.091 26.478 90.021 48.69 105.563 26.842 18.782 55.648 20.81 66.788 20.81 8.607 0 38.899-1.447 67.317-20.061 33.164-21.722 51.429-58.704 51.429-104.133 0-21.489-6.917-54.417-55.916-108.555 39.757-33.097 76.368-57.518 76.771-57.786 20.042-13.323 25.49-40.37 12.167-60.414-13.323-20.041-40.371-25.49-60.414-12.167-1.919 1.276-45.648 30.447-91.792 69.702-49.072-42.166-95.958-74.47-97.996-75.87a43.38 43.38 0 0 0-24.631-7.659z m123.065 289.789c-28.325 0-28.325-28.493-28.325-39.219 0-0.195 0.446-14.241 28.109-46.24 30.56 34.094 31.801 48.316 31.811 48.511-0.002 23.255-8.741 28.979-12.031 31.135-7.282 4.768-16.592 5.813-19.564 5.813z"  horiz-adv-x="1024" />

    
    <glyph glyph-name="anquanshengchanzhongdian" unicode="&#58932;" d="M941.99 224.65v5.481c0 195.202-129.965 360.029-308.735 412.814-6.473 44.816-44.322 78.676-90.629 79.175h-61.751c-46.307 0-84.157-34.359-90.629-79.175-178.77-52.785-308.74-217.612-308.74-412.815v-5.481c-35.85-12.945-61.248-46.306-61.248-86.644 0-50.79 41.33-92.125 92.125-92.125h799.233c50.795 0 92.125 41.335 92.125 92.125-0.498 40.339-26.395 74.198-61.751 86.645zM573 533.315c0 16.93 13.943 30.874 30.874 30.874 16.93 0 30.872-13.943 30.872-30.874v-235.539c0-16.93-13.942-30.874-30.872-30.874S573 280.845 573 297.776V533.315z m-184.246 0c0 16.93 13.943 30.874 30.874 30.874 16.93 0 30.874-13.943 30.874-30.874v-235.539c0-16.93-13.943-30.874-30.874-30.874-16.93 0-30.874 13.943-30.874 30.874V533.315z m522.363-424.691H111.885c-16.93 0-30.872 13.943-30.872 30.877 0 16.93 13.942 30.874 30.872 30.874h799.232c16.93 0 30.874-13.943 30.874-30.874-0.001-17.429-13.944-30.877-30.874-30.877z m0 0"  horiz-adv-x="1024" />

    
    <glyph glyph-name="changzhurenkouguanli" unicode="&#58933;" d="M275.716-64C197.768-64 134-0.791 134 77.532V267.898c-43 20.723-70.708 64.459-70.666 113.209 0 30.7 11.197 60.508 30.637 82.138 3.546 4.678 7.49 9.169 11.66 13.371l312.122 316.447C442.208 817.955 476.332 832 511.296 832h0.407c34.93 0 69.025-14.02 93.539-38.911L917.766 476.2c1.182-1.216 2.534-2.564 3.966-4.161 33.489-32.083 47.194-79.515 34.854-124.344C946.819 312.236 922 283.552 891 267.937v-190.405C891-0.791 826.439-64 748.495-64H275.716zM645.03 49c-19.857 55-72.332 93.391-133.013 93.473C451.336 142.391 398.86 104 379.002 49H645.03z m-14.223 181.066c67.1-35.166 116.535-99.229 132.878-175.555C770.78 59.584 775 68.013 775 77.532V329c0 22.091 17.909 40 40 40h20.309c6.082 0 11.221 5.556 11.221 11.938 0 1.524-0.282 3.096-0.813 4.476l-6.054 7.24-315.625 320.647a17.52 17.52 0 0 1-12.42 5.213c-4.979 0-9.246-1.796-12.767-5.34L186.694 396.425c-0.585-0.593-1.417-1.497-3.987-4.823l-1.015-1.313-1.129-1.216c-1.987-2.139-3.075-5.078-3.063-8.004 0-6.527 5.143-12.07 11.229-12.07H209c22.091 0 40-17.909 40-40v-251.468c0-9.345 4.153-17.616 11.115-22.714 10.11 47.539 33.342 91.52 67.711 126.679 19.237 19.679 41.235 35.986 65.238 48.488-36.373 32.646-59 79.854-59 131.748-0.044 47.547 18.439 91.911 52.082 125.544C419.732 520.862 464.373 539 511.879 539h0.277c47.509 0 92.173-18.138 125.764-51.729 33.636-33.632 52.134-78.177 52.089-125.755 0-43.443-16.186-85.281-45.577-117.934-4.318-4.799-8.868-9.248-13.625-13.516zM511.213 424.168c-33.928-0.085-61.567-27.744-61.625-61.679 0-33.896 26.952-61.525 60.08-61.527l1.462 0.012c33.923 0.068 61.579 27.725 61.65 61.654-0.057 33.77-27.667 61.42-61.567 61.54z"  horiz-adv-x="1024" />

    
    <glyph glyph-name="gewuting" unicode="&#58934;" d="M626.785 661.086a299.607 299.607 0 0 1-84.786 21.333V713.91h29.992a59.735 59.735 0 0 1 59.981 59.983v0.005a59.718 59.718 0 0 1-17.498 42.483 59.729 59.729 0 0 1-42.483 17.5H452.02c-33.128 0-59.988-26.855-59.988-59.988 0-33.128 26.86-59.983 59.988-59.983h29.996v-31.503c-67.438-6.788-132.102-36.347-182.088-86.33-85.781-85.781-111.438-214.783-65.014-326.857C281.339 157.146 390.7 84.075 512.009 84.075c165.434 0.49 299.427 134.478 299.917 299.912 0.004 121.309-73.072 230.675-185.141 277.099z m107.696-367.067h-54.743c5.562 18.349 9.292 38.214 11.054 59.986h59.286a238.327 238.327 0 0 0-15.597-59.986z m-444.001-2.32a238.31 238.31 0 0 0-16.544 62.306h58.957c1.549-21.773 5.162-41.638 10.674-59.986H302.06a29.89 29.89 0 0 1-11.58-2.32z m-0.95 182.272h53.734c-5.028-19.324-8.381-39.335-10.022-59.983h-59.305a238.214 238.214 0 0 0 15.593 59.983z m252.468 59.982v57.606c17.078-16.247 33.532-35.348 47.595-57.606h-47.595z m75.962-59.982c6.075-18.439 10.434-38.405 12.552-59.983h-88.513v59.983h75.961zM482.016 591.527v-57.574h-47.572c14.058 22.244 30.503 41.334 47.572 57.574z m0-117.556v-59.983h-88.504c2.12 21.579 6.481 41.544 12.558 59.983h75.946z m-88.463-119.966h88.463v-59.986h-73.464c-7.636 17.939-12.671 37.664-14.999 59.986z m88.463-119.969v-30.708c-12.345 10.043-23.487 20.181-33.381 30.708h33.381z m59.982-31.316v31.316h34.522c-10.175-10.74-21.695-21.075-34.522-31.316z m0 91.299v59.986h88.924c-2.013-22.322-6.829-42.048-14.341-59.986h-74.583z m148.787 119.969c-1.64 20.648-4.992 40.659-10.017 59.983h53.343a239.456 239.456 0 0 0 15.834-59.983h-59.16z m7.921 119.965H658.74c-11.159 23.086-25.071 44.918-41.673 65.373 31.792-15.626 59.632-38.048 81.639-65.373z m-291.101 66.132c-16.879-20.674-31.006-42.759-42.307-66.131h-40.584c22.255 27.76 50.544 50.474 82.891 66.131z m-82.886-366.049h46.521c19.578-30.384 45.94-56.579 77.843-81.619-49.724 13.479-93.031 42.537-124.364 81.619z m250.012-81.672c31.791 25.057 57.923 51.268 77.384 81.673h47.178c-31.375-39.135-74.755-68.218-124.562-81.673zM820.254 602.271h0.016a27.61 27.61 0 0 1 19.994 8.329l41.671 41.671c11.391 11.528 11.34 30.092-0.122 41.549-11.458 11.462-30.022 11.512-41.549 0.122l-41.666-41.671a29.156 29.156 0 0 1-8.759-20.832 29.168 29.168 0 0 1 8.759-20.839 35.102 35.102 0 0 1 21.656-8.329zM152.103 354.005c16.565 0 29.992 13.427 29.992 29.992 0 16.563-13.427 29.991-29.992 29.991H92.115c-16.563 0-29.991-13.427-29.991-29.991 0-16.565 13.427-29.992 29.991-29.992h59.988zM182.095 610.6a35.1 35.1 0 0 1 21.661-8.329l0.014-0.016a26.045 26.045 0 0 1 19.994 9.998 29.19 29.19 0 0 1 8.755 20.837 29.172 29.172 0 0 1-8.755 20.832l-41.67 41.671a29.165 29.165 0 0 1-20.839 8.754 29.155 29.155 0 0 1-20.832-8.754c-11.654-11.665-11.654-29.991 0-43.322l41.672-41.671zM512.013 54.083c-16.565 0-29.992-13.426-29.992-29.991v-59.983a29.86 29.86 0 0 1 8.75-21.246 29.841 29.841 0 0 1 21.242-8.745 29.862 29.862 0 0 1 29.991 29.99v59.983c0 16.566-13.428 29.992-29.991 29.992zM210.641 163.501a29.474 29.474 0 0 1-28.527-7.764l-41.671-41.666c-11.663-11.663-11.663-29.996-1.667-43.322a35.09 35.09 0 0 1 21.661-8.335l0.016-0.01a29.31 29.31 0 0 1 21.661 9.998l41.671 41.67a29.468 29.468 0 1 1-13.144 49.429zM841.926 154.085c-11.528 11.396-30.093 11.34-41.549-0.122-11.462-11.458-11.512-30.022-0.122-41.549l41.671-41.666a35.086 35.086 0 0 1 21.661-8.335h0.015a30.771 30.771 0 0 1 19.994 8.335 29.172 29.172 0 0 1 8.754 20.833 29.171 29.171 0 0 1-8.754 20.832l-41.67 41.672zM931.884 413.988h-59.971c-16.565 0-29.997-13.427-29.997-29.991 0-16.565 13.433-29.992 29.997-29.992h59.971c16.565 0 29.992 13.427 29.992 29.992 0 16.564-13.428 29.991-29.992 29.991z"  horiz-adv-x="1024" />

    
    <glyph glyph-name="anquanshengchanzhongdianqiye" unicode="&#58935;" d="M516.959 44c-126.437 0-243.419 14.81-329.392 41.427-94.864 29.371-145.708 71.144-147.034 120.661-0.741 26.634 10.731 49.733 33.177 66.705 13.613 10.294 31.518 18.37 52.407 23.674 9.635 90.212 38.008 177.121 80.597 246.266 51.386 83.426 120.227 136.41 199.204 153.349 20.383 8.608 67.719 26.718 109.582 27.782l0.276 0.135h0.405c45.681 0 88.361-18.935 106.971-28.421 53.231-12.211 100.401-36.61 140.237-72.422 34.101-30.658 63.124-70.039 86.261-116.987 36.82-74.71 52.33-154.508 58.781-212.747 18.48-5.525 33.209-12.672 44.748-21.664 21.743-16.944 31.731-40.315 28.927-67.637-0.564-15.995-11.034-35.453-28.936-53.395C913.458 110.924 803.981 44 516.959 44h0.004-0.004zM194.385 197.932c55.801-21.119 159.354-45.202 322.513-45.202 174.675 0 268.963 26.309 317.196 48.248-17.014 9.149-29.603 28.236-30.747 48.982-3.397 58.286-23.795 243.094-144.435 315.81l0.694-159.596c0-29.895-24.263-54.175-54.085-54.175h-0.128c-29.788 0-54.107 24.187-54.215 53.967l-0.851 202.938c-11.906 4.139-22.72 6.435-30.821 6.486-10.86-0.326-25.899-3.409-42.613-8.647l1.75-198.624c0-29.569-24.096-54.12-53.713-54.12h-0.499c-29.678 0-53.999 24.034-54.217 53.698l-1.42 155.628c-85.253-60.001-133.377-198.309-137.477-315.902a54.038 54.038 0 0 0-15.549-36.124c-6.048-6.135-13.374-10.688-21.383-13.367z"  horiz-adv-x="1024" />

    
    <glyph glyph-name="changsuoteyefuwuzhongdian" unicode="&#58936;" d="M518.404 278.266c117.809 0 213.891 107.916 218.584 243.046-0.981 23.928-2.14 43.447-3.163 54.75-9.747 63.81-40.13 119.37-82.862 157.126a231.537 231.537 0 0 1-61.873 36.14c11.875 9.21 18.969 20.814 18.969 33.41 0 30.007-40.185 54.343-89.761 54.343-49.559 0-89.756-24.354-89.756-54.331 0-12.224 6.673-23.496 17.899-32.582a197.797 197.797 0 0 1-30.318-14.5C346.838 713.125 299.62 628.767 299.62 531.645c-0.001-139.913 97.958-253.379 218.784-253.379zM414.052 598.059v-1.042h2.751c7.312 0 217.748-83.947 234.52-92.905 41.422-22.11-25.599-172.763-125.835-172.763h-3.62c-175.05-0.001-204.147 266.71-107.816 266.71zM246.707-88.57c-44.195 0.037-79.987 35.903-79.933 80.098l0.097 79.053c-0.915 34.026 3.158 63.553 12.396 90.255 8.298 23.985 21.136 46.397 39.22 68.515 19.367 23.706 91.398 86.088 138.823 86.088 26.203 0 50.214-13.45 73.4-41.119 18.326-21.87 33.974-50.087 47.779-74.982 11.337-20.445 22.969-41.422 33.18-53.179 8.329 10.591 18.519 28.619 27.802 44.966C568.765 242.713 605.223 307 660.637 307h15.465c28.96 0 63.515-18.031 81.535-28.73 26.429-15.691 49.644-34.508 60.712-49.131 16.883-20.803 29.733-52.574 38.403-94.393l0.249-1.734v-142.026c0-44.209-35.858-80.037-80.067-80l-530.227 0.444z m253.519 71.294c49.106-1.433 143.135-1.975 220.941-1.975 11.525 0 22.841 0.012 33.722 0.034 12.367 0.026 22.374 10.069 22.36 22.436l-0.146 125.668c-12.971 44.936-43.044 97.811-112.7 104.28-19.656-24.467-94.23-139.443-164.177-250.443z m-256.902 96.701c-0.983-15.454-2.207-34.779-0.925-51.9 1.605-21.432 6.484-30.378 10.293-34.438 1.957-2.085 5.063-4.086 11.766-4.086h65.228l0.427-0.461c3.793-0.19 7.43-0.597 10.921-0.776 16.933-0.872 30.307-1.67 40.867-1.67 14.982 0 22.94 1.32 27.466 4.69 5.232 3.897 9.796 13.065 15.462 26.64 4.361 10.444 7.75 18.045 10.473 24.163 6.516 14.64 10.035 22.539 18.044 48.763-17.249 30.204-73.469 123.922-90.307 145.806-28.203-2.261-57.475-18.72-80.936-45.935C258.716 163.091 244 129.163 244 101.68V85h-0.337c-0.107-2-0.222-3.725-0.339-5.575z"  horiz-adv-x="1024" />

    
    <glyph glyph-name="gongyuanhetiyuchang" unicode="&#58937;" d="M144.5-82c-24.293 0-44.056 19.707-44.056 44s19.763 44 44.056 44h41.765c9.364 0 17.734 8.623 17.734 17.987v14.99c0 9.364-7.994 16.982-17.358 16.982-21.437 0-40.894 11.913-50.475 31.09L86.25 186.766c-10.851 21.719-2.059 48.222 19.657 59.08 6.18 3.09 12.774 4.657 19.645 4.657 16.798 0 31.888-9.327 39.402-24.34l38.752-77.983c1.433-2.864 4.307-5.179 7.509-5.179h104.199c24.293 0 44.056-19.708 44.056-44s-19.763-44-44.056-44h-7.072c-9.364 0-16.342-6.658-16.342-16.023v-14.99c0-9.364 6.978-17.987 16.342-17.987H494.46c9.364 0 17.54 8.623 17.54 17.987V146.231c-9-1.101-16.638-1.657-24.759-1.657-99.874 0-181.266 81.253-181.266 181.127 0 30.665 7.798 61.048 22.685 87.863 13.419 24.173 32.271 45.067 54.877 60.826-6.062 18.201-9.149 37.311-9.149 56.918 0 41.999 14.706 82.963 41.424 115.348 16.648 20.142 37.786 36.63 61.468 48.003a143.632 143.632 0 0 0-0.215 7.985c0 80.977 65.882 146.856 146.862 146.856 80.976 0 146.855-65.88 146.855-146.856 0-2.499-0.081-5.104-0.248-7.943 23.585-11.249 44.74-27.751 61.507-48.038 26.725-32.391 41.44-73.356 41.44-115.355 0-19.376-3.077-38.48-9.157-56.901 22.607-15.759 41.504-36.674 54.937-60.886 14.885-26.828 22.753-57.196 22.753-87.819 0-99.874-80.956-181.127-180.83-181.127-8.12 0-16.184 0.555-24.184 1.657v-122.244c0-9.364 7.026-17.987 16.389-17.987h144.996c24.293 0 44.057-19.707 44.057-44s-19.764-44-44.057-44H144.5z m410.781 332.973c7.718 0 15.662-2.033 22.347-5.881 13.598-7.834 22.372-22.45 22.372-38.147v-182.957c0-9.364 6.958-17.987 16.322-17.987h14.99c9.364 0 17.688 8.623 17.688 17.987V206.944c0 15.701 8.092 30.317 21.686 38.146 6.685 3.849 14.122 5.882 21.842 5.882s15.245-2.033 21.928-5.882c14.012-8.119 30.046-12.403 46.475-12.403 51.288 0 92.992 41.726 92.992 93.014 0 39.426-25.011 74.703-62.221 87.783-13.023 4.575-22.963 14.668-27.258 27.693-4.237 12.84-2.281 27.196 5.239 38.399 10.259 15.3 15.681 33.19 15.681 51.732 0 44.109-31.287 82.451-74.391 91.167-12.857 2.654-23.742 10.695-29.904 22.067-6.213 11.454-7.109 24.94-2.455 36.994 2.76 6.946 4.075 14.373 3.943 22.167-0.554 32.346-26.356 57.684-58.742 57.684-32.392 0-58.744-26.352-58.744-58.743 0-7.178 1.331-14.286 3.957-21.125 4.648-12.035 3.752-25.522-2.465-36.982-6.157-11.367-17.042-19.407-29.862-22.054-43.145-8.724-74.432-47.066-74.432-91.176 0-18.546 5.425-36.435 15.689-51.734 7.515-11.197 9.472-25.552 5.235-38.397-4.442-13.056-14.355-23.114-27.225-27.682-37.235-13.091-62.233-48.369-62.233-87.793 0-51.288 41.726-93.014 93.014-93.014 16.43 0 32.506 4.284 46.49 12.389a44.21 44.21 0 0 0 22.042 5.897z"  horiz-adv-x="1024" />

    
    <glyph glyph-name="litang" unicode="&#58938;" d="M870.788 843H153.212C109.885 843 74 808.541 74 765.214v-784.855C74-50.586 99.84-75 130.786-75h179.392c18.581 0 33.644 15.031 33.644 33.603 0.016 7.105-0.105 13.397-0.374 22.397h337.549c-0.356-9-0.649-14.917-0.808-22.397 0-18.572 15.054-33.603 33.635-33.603h179.392C924.16-75 950-50.586 950-19.641V765.214C950 808.541 914.115 843 870.788 843zM308.207 184.063c-19.641 61.583-46.863 113.676-83.105 153.861C309.828 418.688 367.085 531 385.102 664h253.896c18.346-133 75.541-244.281 160.079-325.9-36.462-40.273-63.726-92.894-83.421-155.23C701.949 139.49 692.633 93 686.832 48H337.964c-5.34 42-14.727 89.022-29.757 136.063z m573.446-192.49H748.894c0.671 8.76 1.526 19.464 2.642 29.914a723.895 723.895 0 0 0 28.256 141.002c20.9 66.155 50.772 118.09 90.101 150.829 16.149 13.455 16.149 38.211 0 51.665-84.868 70.705-143.445 173.185-162.904 299.322h18.744c18.383 0 33.286 14.903 33.286 33.286 0 18.383-14.903 33.286-33.286 33.286H298.267c-18.383 0-33.286-14.903-33.286-33.286 0-18.383 14.903-33.286 33.286-33.286h18.877c-19.141-126.137-77.785-229.6-162.812-299.143-8.211-6.727-12.339-16.321-12.339-26.011a33.466 33.466 0 0 1 11.976-25.786c39.467-33.053 69.297-84.584 90.148-149.932a709.803 709.803 0 0 0 28.388-140.155c1.168-11.079 2.066-21.195 2.696-31.706H142.347V765.214c0 6.193 5.02 11.213 11.213 11.213h716.88c6.193 0 11.213-5.02 11.213-11.213v-773.641z"  horiz-adv-x="1024" />

    
    <glyph glyph-name="anzhibangjiaorenyuanguanli" unicode="&#58939;" d="M596.833 770.989c-28.896-14.953-53.479-36.524-76.658-59.703C470.61 766.569 399.771 798.88 324.518 798.88c-144.782 0-262.579-117.895-262.579-262.58 0-51.673 14.953-101.542 43.344-144.485 0.803-1.205 1.807-2.409 2.91-3.512l62.51-62.813-19.764-19.764c-20.671-20.671-20.671-54.686 0-75.355 20.669-20.671 54.681-20.671 75.35 0l91.107 91.106c20.669 20.671 20.669 54.686 0 75.355-20.671 20.671-54.686 20.671-75.35 0L202.313 357.1l-61.006 61.202c-22.679 35.221-34.715 75.854-34.715 117.998 0 120.099 97.725 217.727 217.927 217.727 63.612 0 123.418-27.69 164.552-75.052-2.71-2.91-5.317-5.614-8.026-8.426C438 625.501 274.35 459.142 274.35 459.142s119.503-167.563 261.679-25.285l92.007 86.09s126.626-123.418 190.841-185.221l31.605-31.61c5.722-5.718 9.034-13.645 9.034-21.871 0-8.328-3.214-16.055-9.034-21.875-5.718-5.718-13.645-9.029-21.871-9.029-7.123 0-13.948 2.406-19.366 6.819-0.804 0.907-1.504 1.709-2.406 2.411l-91.107 91.107c-8.731 8.731-22.977 8.731-31.61 0 0 0 0-0.202-0.196-0.202l-0.103-0.201c-8.731-8.731-8.731-22.977 0-31.605l91.106-91.107c0.804-0.803 1.706-1.704 2.608-2.409 4.414-5.419 6.623-12.239 6.623-19.362 0-8.329-3.209-16.055-9.029-21.875-5.723-5.718-13.644-9.03-21.876-9.03-8.328 0-16.055 3.21-21.87 9.03l-91.308 91.106c-8.731 8.731-22.977 8.731-31.605 0-6.325-6.32-8.031-15.452-5.32-23.276a22.015 22.015 0 0 1 6.32-12.846l89.802-89.799c8.026-12.244 8.329-32.81-4.213-45.151-10.838-10.838-28.597-16.359-40.537-8.128-0.201 0.202-0.304 0.5-0.504 0.603-0.597 0.902-1.401 1.802-2.308 2.606l-63.21 63.112c-8.731 8.731-22.977 8.731-31.605 0-1.102-1.102-2.009-2.106-2.71-3.311-20.87 17.259-52.176 16.054-71.642-3.513l-90.905-91.004c-20.671-20.669-20.671-54.685 0-75.355 20.669-20.664 54.685-20.664 75.355 0l37.626 37.626 34.412-34.412c14.85-14.85 34.119-22.174 53.481-22.174 19.366 0 38.832 7.422 53.481 22.174 14.85 14.85 22.478 34.917 22.977 55.283 2.107 0 4.115 0.201 6.222 0.304 19.063 2.004 37.122 10.735 51.271 24.781 15.452 15.452 23.075 36.524 22.977 57.894 1.205 0 2.308-0.201 3.513-0.201 19.361 0 38.832 7.427 53.481 22.174 14.648 14.648 22.07 33.815 22.07 53.078 20.067 0.201 39.032 8.029 53.079 22.075 29.498 29.499 29.498 77.56 0 107.162l-19.167 19.161c28.597 26.289 54.588 54.583 72.847 90.406 12.239 23.977 20.367 49.968 23.879 76.756 25.989 193.849-190.332 339.239-362.311 249.941z m18.162-747.111c-12.043-12.038-31.708-12.038-43.848 0l-34.417 34.418 21.875 21.875c9.333 9.328 14.551 21.571 15.452 34.01l42.442-42.442a17.963 17.963 0 0 1 3.611-4.713l0.603-0.602c6.32-12.244 5.917-30.906-5.718-42.546zM397.866 240.91c20.669 20.671 20.669 54.681 0 75.35-20.671 20.671-54.686 20.671-75.453 0l-91.107-91.106c-20.669-20.671-20.669-54.681 0-75.352 20.671-20.669 54.686-20.669 75.355 0l91.205 91.108z m79.868-79.769c20.669 20.669 20.669 54.685 0 75.355-20.671 20.664-54.681 20.664-75.351 0l-91.106-91.107c-20.671-20.671-20.671-54.686 0-75.355 20.669-20.671 54.68-20.671 75.35 0l91.107 91.107z m0 0"  horiz-adv-x="1024" />

    
    <glyph glyph-name="guochengpeizhi" unicode="&#58940;" d="M226 15.1c0 25.129 20.371 45.5 45.5 45.5h481c25.129 0 45.5-20.371 45.5-45.5s-20.371-45.5-45.5-45.5h-481c-25.129 0-45.5 20.371-45.5 45.5zM833.231 146.479H190.768c-70.381 0-127.64 57.339-127.64 127.817V670.583c0 70.479 57.259 127.817 127.64 127.817h642.463c70.381 0 127.64-57.338 127.64-127.817v-396.287c0-70.479-57.259-127.817-127.64-127.817zM190.768 698.4c-15.24 0-27.64-12.479-27.64-27.817v-396.287c0-15.339 12.399-27.817 27.64-27.817h642.463c15.24 0 27.64 12.479 27.64 27.817V670.583c0 15.338-12.399 27.817-27.64 27.817H190.768zM328.042 382.6H291.5c-25.129 0-45.5 20.371-45.5 45.5s20.371 45.5 45.5 45.5h74.174l42.596-42.781 132.507 180.255c15.064 20.492 46.087 19.205 59.401-2.465L683.127 473.6H731.5c25.129 0 45.5-20.371 45.5-45.5s-20.371-45.5-45.5-45.5h-99.151l-66.786 108.78-122.097-166.032c-13.009-17.69-38.724-19.625-54.233-4.08L328.042 382.6z"  horiz-adv-x="1024" />

    
    <glyph glyph-name="dianyingyuan" unicode="&#58941;" d="M512 734c47.294 0 93.12-9.24 136.205-27.464 41.666-17.623 79.107-42.873 111.282-75.049s57.426-69.616 75.049-111.283C852.76 477.12 862 431.294 862 384s-9.24-93.12-27.464-136.205c-17.623-41.666-42.873-79.107-75.049-111.282s-69.616-57.426-111.282-75.049C605.12 43.24 559.294 34 512 34s-93.12 9.24-136.205 27.464c-41.666 17.623-79.107 42.873-111.283 75.049s-57.426 69.616-75.049 111.282C171.24 290.88 162 336.706 162 384s9.24 93.12 27.464 136.205c17.623 41.666 42.873 79.107 75.049 111.283s69.616 57.426 111.283 75.049C418.88 724.76 464.706 734 512 734m0 100C263.472 834 62 632.528 62 384s201.472-450 450-450 450 201.472 450 450S760.528 834 512 834zM912-66H562c-27.5 0-50 22.5-50 50s22.5 50 50 50h350c27.5 0 50-22.5 50-50s-22.5-50-50-50zM371.5 524.5m-80.5 0a80.5 80.5 0 1 1 161 0 80.5 80.5 0 1 1-161 0ZM652.5 524.5m-80.5 0a80.5 80.5 0 1 1 161 0 80.5 80.5 0 1 1-161 0ZM371.5 243.5m-80.5 0a80.5 80.5 0 1 1 161 0 80.5 80.5 0 1 1-161 0ZM652.5 243.5m-80.5 0a80.5 80.5 0 1 1 161 0 80.5 80.5 0 1 1-161 0ZM512 384m-30 0a30 30 0 1 1 60 0 30 30 0 1 1-60 0Z"  horiz-adv-x="1024" />

    
    <glyph glyph-name="jiayouzhanqizhan" unicode="&#58942;" d="M105.169-57c-27.249 0-49.418 22.251-49.418 49.498 0 27.248 22.169 49.502 49.418 49.502H118V715.834C118 776.432 167.423 826 228.02 826h362.884C651.502 826 701 776.432 701 715.834V587h16.535c28.632 0 51.516-8.073 68.017-24.573 16.852-16.853 24.901-39.496 23.926-67.779L809.63 223h58.986l-0.154 315.257c0 18.721-6.21 34.33-19.543 49.23-19.505 21.8-37.85 39.593-54.524 52.932-10.306 8.247-16.785 20-18.241 33.118-1.457 13.119 2.282 26.013 10.528 36.319 9.429 11.786 23.501 18.544 38.606 18.544 11.164 0 22.118-3.847 30.846-10.83 20.938-16.751 43.29-38.363 66.437-64.231 29.674-33.164 44.72-71.911 44.72-115.165l0.167-331.571c0.878-23.722-6.735-44.328-22.032-59.631C930.61 132.16 910.192 124 886.373 124h-94.456c-10.441 0-19.282 0.936-27.027 2.599-14.038 3.005-25.143 8.737-33.939 17.533-8.786 8.789-14.523 19.888-17.536 33.939-1.662 7.766-2.514 16.724-2.605 27.149L710.647 489H701v-447h192.309c27.245 0 49.412-22.254 49.412-49.502 0-27.246-22.166-49.498-49.412-49.498h-788.14zM602 44V715.834c0 6.103-4.996 11.166-11.096 11.166H228.02c-6.103 0-11.02-5.063-11.02-11.166V44h385zM309.699 407C285.059 407 265 427.259 265 451.902v171.72c0 24.64 20.059 45.378 44.699 45.378h196.689c24.64 0 44.612-20.737 44.612-45.378v-171.72C551 427.259 531.028 407 506.388 407H309.699zM453 506v63h-90v-63h90z"  horiz-adv-x="1024" />

    
    <glyph glyph-name="fengjingmingsheng" unicode="&#58943;" d="M373.07 667.21l181.423-254.166a100.002 100.002 0 0 1 158.068-6.096l44.335 52.955 52.666-97.769H212.427L373.07 667.21M363.211 834a27.088 27.088 0 0 1-22.048-12.754l-272.709-517.9a26.883 26.883 0 0 1-0.672-27.34c4.735-8.542 13.795-13.84 23.606-13.874h847.308a26.855 26.855 0 0 1 19.298 16.982 26.837 26.837 0 0 1-3.823 25.422L791.597 606.343l-0.035-0.041a27.065 27.065 0 0 1-42.517 0l-113.16-135.161L384.916 822.738A26.854 26.854 0 0 1 363.211 834zM847 95H177c-24.75 0-45 20.25-45 45s20.25 45 45 45h670c24.75 0 45-20.25 45-45s-20.25-45-45-45zM686-66H338c-24.75 0-45 20.25-45 45s20.25 45 45 45h348c24.75 0 45-20.25 45-45s-20.25-45-45-45z"  horiz-adv-x="1024" />

    
    <glyph glyph-name="chuku" unicode="&#58944;" d="M741.573 834H284.308a39.999 39.999 0 0 1-33.196-17.684L82.411 565.363A120.001 120.001 0 0 1 62 498.415V14c0-44.183 35.817-80 80-80h740c44.183 0 80 35.817 80 80V498.717a120 120 0 0 1-20.103 66.487L774.872 816.162A40 40 0 0 1 741.573 834zM842 34H182c-11.046 0-20 8.954-20 20V435h76c27.614 0 50 22.386 50 50s-22.386 50-50 50h-55.505l127.832 190.158A19.999 19.999 0 0 0 326.925 734h382.291l132.632-199H788c-27.614 0-50-22.386-50-50s22.386-50 50-50h74v-381c0-11.046-8.954-20-20-20zM452 497.843V280c0-11.046 8.954-20 20-20h82c11.046 0 20 8.954 20 20V497.843h49.142c19.306 0 27.407 24.649 11.864 36.101l-110.142 81.157a19.999 19.999 0 0 1-23.728 0l-110.142-81.157c-15.543-11.452-7.442-36.101 11.864-36.101H452zM643 107H383c-27.614 0-50 22.386-50 50s22.386 50 50 50h260c27.614 0 50-22.386 50-50s-22.386-50-50-50z"  horiz-adv-x="1024" />

    
    <glyph glyph-name="gongyingshangguanli" unicode="&#58945;" d="M934.109 692H709V795.646C709 811.42 696.213 824 680.567 824H343.428C327.786 824 315 811.096 315 795.646V692H89.89C61.966 692 62 663.677 62 663.677v-253.172c0-10.117 5-20.44 13-27.35v-367.834C75-23.844 107.083-56 146.253-56h731.493c18.82 0 37.056 7.629 50.359 20.946C941.407-21.742 949-3.498 949 15.322V383.057c8 6.861 13 17.161 13 27.448V663.677C962 679.093 949.521 692 934.109 692zM401 738h-0.159H623v-46H401v46zM148 606h728v-156.451l-251-62.494v1.956C625 400.838 614.845 410 602.925 410H421.069C409.155 410 399 400.838 399 389.012v-1.91l-251 62.447V606z m391-281v-52h-54v52h54zM161 30V357.929l238-59.132v-90.273c1-5.704 2.547-11.217 6.592-15.233 4.047-4.017 9.772-6.291 15.476-6.291h181.857c11.92 0 22.075 9.698 22.075 21.524v90.217l238 59.178V30H161z"  horiz-adv-x="1024" />

    
    <glyph glyph-name="wuzitongji" unicode="&#58946;" d="M741.573 834H284.308a39.999 39.999 0 0 1-33.196-17.684L82.411 565.363A120.001 120.001 0 0 1 62 498.415V14c0-44.183 35.817-80 80-80h740c44.183 0 80 35.817 80 80V498.717a120 120 0 0 1-20.103 66.487L774.872 816.162A40 40 0 0 1 741.573 834zM310.327 725.158A19.999 19.999 0 0 0 326.925 734h382.291l132.632-199H182.495l127.832 190.158zM162 54V435h700v-381c0-11.046-8.954-20-20-20H182c-11.046 0-20 8.954-20 20zM512 369c-82.843 0-150-67.157-150-150s67.157-150 150-150 150 67.157 150 150H512V369zM542 399v-150h150c0 82.843-67.157 150-150 150z"  horiz-adv-x="1024" />

    
    <glyph glyph-name="qitalianxiren" unicode="&#58947;" d="M137.51-79.934c-28.647 0-51.954 23.309-51.954 51.96 0 92.941 29.383 181.188 84.973 255.2 27.031 35.819 59.053 66.948 95.207 92.56a420.635 420.635 0 0 0 69.557 40.051c-22.542 18.813-42.104 41.137-57.625 65.93-27.479 43.703-42.017 94.317-42.017 146.331 0 152.384 123.971 276.357 276.352 276.357 152.387 0 276.363-123.973 276.363-276.357 0-47.456-12.331-94.362-35.661-135.647-16.34-28.915-37.844-54.674-63.246-75.97 23.763-10.931 46.583-24.091 68.188-39.34 36.616-25.933 68.663-57.142 95.277-92.781 55.649-74.044 85.085-162.293 85.085-255.151 0-28.647-23.307-51.953-51.954-51.953-28.646 0-51.952 23.306-51.952 51.953 0 85.942-33.444 166.795-94.171 227.666-58.263 58.543-135.116 91.978-216.718 94.363l-0.495-0.099c-3.771-0.752-7.466-1.135-10.983-1.135-1.102 0-2.2 0.038-3.279 0.113-84.468-0.233-164.282-33.745-224.824-94.426-60.716-61.137-94.175-142.003-94.175-227.666-0.001-28.65-23.304-51.959-51.948-51.959z m374.642 824.487c-95.089 0-172.45-77.361-172.45-172.451 0-95.087 77.361-172.445 172.45-172.445 95.087 0 172.446 77.358 172.446 172.445 0 95.09-77.359 172.451-172.446 172.451z"  horiz-adv-x="1024" />

    
    <glyph glyph-name="huiyishianpai" unicode="&#58948;" d="M86.36-37C61.528-37 41-16.698 41 8.255v2.675l37.822 138.297c1.582 23.3 21.292 41.773 45.094 41.773H166v17.98c0 38.608 31.665 70.02 70.587 70.02h75.111c18.75 0 36.26-7.33 49.306-20.639C373.898 245.205 381 227.668 381 208.98V191h35v17.98c0 38.608 31.834 70.02 70.965 70.02h75.11C600.632 279 632 247.589 632 208.98V191h22v17.98c0 38.608 31.77 70.02 70.818 70.02h75.115C838.568 279 870 247.589 870 208.98V191h30.079c23.805 0 43.517-18.474 45.099-41.773L983 10.93v-2.675c0-13.551-8.445-25.972-23.484-34.973-10.756-6.438-23.718-10.282-34.4-10.282H86.36z m805.253 78l-22.531 72H154.938l-22.577-71.951 759.252-0.049zM792 191v5.465c0 2.755-1.803 4.535-4.592 4.535h-50.075c-2.621 0-5.333-1.696-5.333-4.535V191h60z m-238 0v5.465c0 2.798-1.703 4.535-4.444 4.535H499.48c-2.636 0-5.48-1.733-5.48-4.535V191h60z m-250 0v5.465c0 3.133-2.422 4.535-4.822 4.535h-50.072c-3.082 0-6.106-2.246-6.106-4.535V191h61zM655.542 276.505c-16.782 0-31.471 9.082-36.77 22.665L586.245 376h-137l-32.306-75.397c-5.313-13.483-19.889-22.5-36.498-22.5-2.872 0-5.751 0.276-8.558 0.821-11.472 2.219-20.966 8.661-26.038 17.675-4.408 7.831-5.126 16.759-2.025 25.138l0.176 0.475L367.058 376H261.623c-18.726 0-36.435 7.439-49.864 20.947C198.372 410.411 191 428.129 191 446.838V734.767C191 772.942 222.681 804 261.623 804h500.75c18.701 0 36.191-7.112 49.249-20.025C824.763 770.979 832 753.502 832 734.767v-287.929c0-39.06-31.234-70.838-69.627-70.838h-93.222l23.373-55.105 0.168-0.457c3.104-8.44 2.377-17.416-2.048-25.272-5.101-9.057-14.684-15.548-26.293-17.811-2.888-0.564-5.853-0.85-8.809-0.85zM274.142 726c-0.526 0-5.142-0.105-5.142-3.752v-262.894c0-2.852 2.403-5.354 5.142-5.354h475.711c2.693 0 4.146 2.758 4.146 5.354V724.135c-0.9 1.054-2.403 1.865-4.146 1.865H274.142z"  horiz-adv-x="1024" />

    
    <glyph glyph-name="gongce" unicode="&#58949;" d="M298.035 483.94a142.455 142.455 0 0 0-100.723 41.764A142.46 142.46 0 0 0 155.62 626.46a142.465 142.465 0 0 0 142.415 142.571 142.458 142.458 0 0 0 100.693-41.839 142.465 142.465 0 0 0 41.62-100.783c0.028-78.643-63.669-142.437-142.313-142.52v0.051zM725.073 483.94a142.473 142.473 0 0 0-100.724 41.764 142.485 142.485 0 0 0-41.692 100.756c-0.055 78.662 63.65 142.483 142.313 142.571a142.46 142.46 0 0 0 100.708-41.804 142.46 142.46 0 0 0 41.656-100.767c0.027-78.644-63.669-142.436-142.313-142.52h0.052zM347.008 354.852l81.197-255.708H167.763l81.197 255.708h98.048m10.622 100H238.347c-37.238 0.004-70.192-24.097-81.475-59.586L66.429 110.438a85.488 85.488 0 0 1 81.474-111.294h300.211a85.448 85.448 0 0 1 68.932 34.967 85.45 85.45 0 0 1 12.492 76.328l-90.443 284.828c-11.282 35.485-44.234 59.585-81.465 59.585zM855.242 354.852l-81.195-255.708h-98.002l-81.241 255.708h260.438m-280.413 100a85.387 85.387 0 0 1-81.362-111.296l90.494-284.832c11.282-35.481 44.236-59.58 81.47-59.58h119.227c37.237-0.004 70.191 24.097 81.474 59.58l90.443 284.832a85.487 85.487 0 0 1-81.474 111.295h-300.16l-0.112 0.001z"  horiz-adv-x="1024" />

    
    <glyph glyph-name="xiaofanganquanzhongdianqiye" unicode="&#58950;" d="M445.24-81.599l-61.741 11.105C207.416-39.021 88.506 64.651 88.506 190.538c0 98.122 36.589 172.173 134.92 270.29 13.717 12.957 25.153 24.067 50.306 48.133 109.767 101.82 166.935 164.766 230.964 266.587L550.433 849.6l36.584-77.754c11.436-24.067 25.159-53.688 36.589-85.161 29.728-81.457 48.025-162.911 57.172-246.22 20.58 22.215 38.871 48.133 54.881 74.052 4.575 5.554 6.862 11.105 11.436 16.66l43.444 74.052 38.877-75.903c6.861-12.956 13.722-27.77 22.866-46.281 22.871-48.132 41.163-96.265 54.886-142.547 43.444-144.403 36.582-253.63-18.297-323.979-45.733-59.242-123.485-88.864-230.965-90.711H635.04l-13.722 14.809c-65.933 71.174-117.902 152.241-149.807 239.496-3.82 10.447-22.401 9.771-25.125-0.898-9.765-38.25-14.263-82.236-12.582-131.222 0-20.363 2.287-42.583 2.287-62.946 0-5.555 2.287-11.106 2.287-14.809l6.862-51.837z m-52.8 373.136c22.182 57.547 124.066 54.424 140.811-4.315l14.894-52.25c25.154-83.309 68.604-164.766 130.347-233.263 61.741 3.699 105.187 22.215 132.632 55.534 41.158 51.837 43.446 146.255 6.856 266.588-9.142 33.324-22.866 70.352-38.87 105.524-9.149-11.106-16.011-20.363-25.159-29.622l-72.437-81.55c-25.08-28.235-80.037-15.678-83.182 19.006l-9.028 99.571c-6.856 75.903-25.153 153.657-52.593 229.56-50.306-70.348-107.48-127.739-192.088-207.346-25.153-24.065-36.588-35.176-50.306-46.28-86.9-85.161-114.34-140.701-114.34-222.158 0-85.156 75.465-144.399 162.359-174.02v29.622c0 74.05 9.149 138.848 29.728 192.532l20.376 52.867z m80.241 208.167"  horiz-adv-x="1024" />

    
    <glyph glyph-name="gonggongjigouguanli" unicode="&#58951;" d="M86.416-40c-25.494 0-45.736 15.789-49.227 38.613-3.709 24.091 10.899 45.964 34.738 52.095 4.654 1.215 9.037 1.334 12.558 1.46l1.639 0.044 0.393-0.005c2.266 0.035 4.483 0.045 7.483 0.05v655.04c0 23.839 7.69 45.95 22.486 63.945 14.69 17.865 34.888 30.066 58.537 35.287 7.962 1.75 16.426 2.635 25.241 2.635 131.779 0.133 266.015 0.133 395.67 0.133C656.877 809.297 703 765.152 703 706.613V53h132V435.687c0 6.398-0.818 10.592-12.064 10.592-4.553 0-9.094-0.009-13.647-0.018-4.578-0.009-9.149-0.017-13.726-0.017-10.953 0-19.347 0.053-27.224 0.173-24.549 0.446-44.314 17.899-47.105 41.52-2.822 22.53 12.592 43.891 35.896 49.717l0.188 0.046c5.046 1.208 9.722 1.217 13.153 1.217a3745.93 3745.93 0 0 0 54.531-0.001c28.542-0.082 55.113-10.362 74.731-28.948 19.953-18.903 30.943-44.655 30.943-72.512 0.094-88.203 0.061-177.961 0.031-264.603-0.015-40.215-0.029-79.853-0.032-120.853h7.06c13.256 0 25.503-4.355 34.485-12.284 9.733-8.593 15.092-20.386 15.092-33.633 0-26.405-21.376-46.083-49.722-46.083H86.416zM607 53V705.936c0 5.843-1.277 10.064-12.222 10.064H200.644c-2.286 0-3.564 0.025-4.561-0.171-3.101-0.802-6.083-1.847-6.083-10.711V53h417zM311.755 176l-0.25-0.114c-26.181 0.674-46.884 20.757-47.179 45.821-0.21 12.253 4.652 23.954 13.697 33.009l0.196 0.179c8.7 8.466 20.803 13.329 33.226 13.369 16.69 0.24 34.469 0.353 54.349 0.353 9.72 0 20.079-0.029 31.668-0.086 8.208 0 16.502 0.022 24.791 0.044 8.314 0.023 16.624 0.045 24.934 0.045 14.507 0 26.362-0.071 37.308-0.224 16.859-0.222 31.961-8.816 40.384-22.987 8.042-13.532 8.471-29.802 1.152-43.741-8.649-16.63-24.46-25.668-44.523-25.668H311.755z m142.524 135.027c-9.45 0-18.9 0.015-28.35 0.03-9.429 0.014-18.858 0.029-28.288 0.029-9.383 0-18.767-0.015-28.152-0.029-9.404-0.015-18.809-0.03-28.212-0.03-10.565 0-19.814 0.02-28.273 0.06-17.126 0.108-32.611 8.2-41.452 21.648-8.252 12.552-9.594 27.777-3.688 41.79 7.648 18.558 23.78 29.198 44.28 29.198a17846.361 17846.361 0 0 0 170.82-0.001c13.105-0.104 25.179-4.889 34.058-13.475 9.097-8.796 14.046-20.713 13.935-33.554-0.239-25.79-20.963-45.391-48.205-45.606-8.562-0.04-17.856-0.06-28.473-0.06z m0.267 135.054c-9.489 0-18.984 0.015-28.488 0.029-9.505 0.015-19.019 0.03-28.55 0.03-9.386 0-18.772-0.015-28.158-0.03-9.403-0.015-18.806-0.029-28.208-0.029-10.565 0-19.812 0.019-28.271 0.06-15.3 0.112-29.246 6.535-38.311 17.625-8.593 10.511-11.994 24.357-9.332 37.988 4.136 21.363 23.353 36.891 45.687 36.891a37840.15 37840.15 0 0 0 173.222 0c12.535 0 24.29-4.761 33.055-13.404 8.786-8.666 13.626-20.259 13.626-32.642 0-25.823-20.93-46.229-47.649-46.457-8.614-0.042-17.952-0.061-28.623-0.061zM480.046 582c-27.452 0-55.179-0.263-81.994-0.263-9.349 0-18.683-0.217-28.008-0.232-9.324-0.015-18.638-0.131-27.946-0.131-10.469 0-19.631-0.03-28.01 0.012-24.687 0.209-44.179 15.084-48.572 37.05-2.747 13.532 0.58 27.359 9.136 37.902 9.082 11.19 23.095 17.664 38.445 17.772a6565.65 6565.65 0 0 0 30.258 0.059c10.064 0 20.133-0.017 30.196-0.033 10.033-0.015 20.062-0.032 30.076-0.032 8.797 0 17.596 0.015 26.389 0.03 8.806 0.016 17.608 0.031 26.398 0.031 9.867 0 18.495-0.02 26.376-0.062 20.726-0.023 38.549-11.948 45.436-30.397 6.988-18.497 1.2-39.369-14.418-51.962l-0.225 0.223c-8.923-6.978-19.861-9.968-33.44-9.968h-0.097z"  horiz-adv-x="1024" />

    
    <glyph glyph-name="weihuapinjingyingdian" unicode="&#58952;" d="M511.866 833.892c-248.075 0-449.194-201.225-449.3-449.405 0.105-248.075 201.225-449.194 449.3-449.194 248.18 0 449.3 201.225 449.3 449.3-0.111 248.185-201.119 449.299-449.3 449.299m268.153-717.563c-14.613-14.612-30.422-27.913-47.203-39.942-9.405-6.742-22.531-4.235-28.681 5.567L516.288 381.357 328.899 75.644c-5.913-9.647-18.682-12.528-28.084-6.233-20.543 13.754-39.715 29.445-57.107 46.918-63.416 63.325-104.288 148.823-110.317 243.955-0.731 11.529 8.414 21.289 19.966 21.289h362.61L342.117 700.57c-5.529 10.146-1.319 22.816 9.144 27.719 48.753 22.849 103.206 35.65 160.606 35.65 61.04 0 118.473-14.427 169.392-39.909 10.113-5.061 13.924-17.574 8.471-27.481L516.4 381.573h353.889c11.546 0 20.688-9.751 19.967-21.274-5.958-95.139-46.915-180.642-110.237-243.97"  horiz-adv-x="1024" />

    
    <glyph glyph-name="chengguanhangzhengchufa" unicode="&#58953;" d="M342 465v1c0 23.748 19.252 43 43 43h254c23.748 0 43-19.252 43-43v-1c0-23.748-19.252-43-43-43H385c-23.748 0-43 19.252-43 43zM342 609c0 23.748 19.252 43 43 43h254c23.748 0 43-19.252 43-43s-19.252-43-43-43H385c-23.748 0-43 19.252-43 43zM205.742-87C169.076-87 139-56.971 139-20.305V739.687C139 776.354 169.076 806 205.742 806h230.104c13.51 29 42.913 48.617 76.154 48.617S574.645 835 588.155 806h230.109C854.928 806 885 776.354 885 739.687v-759.992C885-56.971 854.928-87 818.265-87H205.742zM798 0V720H578.396c-15.753-21-40.273-32.746-66.495-32.746-26.22 0-50.741 11.746-66.494 32.746H226v-720h572zM502.704 90.366l-76.212-39.971c-14.634-7.675-31.721 4.749-28.931 21.036l14.529 84.834a19.953 19.953 0 0 1-5.741 17.657l-61.59 60.012c-11.845 11.542-5.311 31.657 11.056 34.033l85.174 12.369a19.95 19.95 0 0 1 15.021 10.909l38.089 77.116c7.322 14.823 28.461 14.82 35.778-0.005l38.098-77.185a19.949 19.949 0 0 1 15.021-10.913l85.094-12.366c16.366-2.378 22.899-22.491 11.054-34.033l-61.591-60.016a19.948 19.948 0 0 1-5.741-17.657l14.528-84.824c2.791-16.296-14.313-28.72-28.947-21.028l-76.14 40.022a19.948 19.948 0 0 1-18.549 0.01z"  horiz-adv-x="1024" />

    
    <glyph glyph-name="guyiweifaxingshibuzuwunian" unicode="&#58954;" d="M512 834C263.472 834 62 632.528 62 384s201.472-450 450-450 450 201.472 450 450S760.528 834 512 834z m0-800c-47.294 0-93.12 9.24-136.205 27.464-41.666 17.623-79.107 42.873-111.283 75.049s-57.426 69.616-75.049 111.282C171.24 290.88 162 336.706 162 384s9.24 93.12 27.464 136.205c11.098 26.238 25.226 50.796 42.197 73.424l116.822-117.004L341.306 353h86.163c8.217 9 16.342 15.084 24.376 20.263L599.23 225.969c-4.108-10.471-9.52-19.571-16.277-27.35-17.232-19.846-42.17-29.743-74.805-29.743-17.759 0-32.77 2.618-45.04 7.844-12.275 5.22-22.195 12.667-29.765 22.33-7.576 9.656-13.971 24.542-19.19 44.65l-90.079-8.223c8.09-45.694 27.348-80.226 57.768-103.59 30.414-23.364 71.212-35.052 122.39-35.052 61.617 0 109.857 16.841 144.713 50.523a161.712 161.712 0 0 1 13.819 15.169l58.866-58.866c-22.627-16.971-47.186-31.099-73.424-42.197C605.12 43.24 559.294 34 512 34z m280.339 140.371l-91.835 91.835c0.477 6.558 0.726 13.281 0.726 20.186 0 54.567-14.95 97.649-44.844 129.244-29.899 31.589-70.692 47.389-122.39 47.389-9.958 0-19.477-0.586-28.567-1.744L434.9 531.875 438.042 583H670v73H358.93l-2.677-45.792-53.882 54.006c22.627 16.971 47.186 31.162 73.424 42.26 43.085 18.224 88.911 27.495 136.205 27.495 47.294 0 93.12-9.224 136.205-27.448 41.666-17.623 79.107-42.865 111.282-75.041 32.176-32.176 57.426-69.612 75.049-111.279C852.76 477.116 862 431.292 862 383.998s-9.24-93.119-27.464-136.204c-11.097-26.238-25.225-50.795-42.197-73.423z"  horiz-adv-x="1024" />

    
    <glyph glyph-name="jianchajilu" unicode="&#58955;" d="M728.64-73.721c-32.931 0-60.591 5.135-87.046 16.162l-0.304 0.128-0.301 0.136c-25.056 11.391-48.105 27.51-68.506 47.911-21.269 21.27-36.987 44.458-48.047 70.885-11.846 26.18-18.367 56.449-18.367 85.273 0 27.723 5.967 55.515 18.241 84.963l0.274 0.657 0.318 0.635c11.51 23.029 25.188 47.371 47.154 69.474 18.594 20.771 41.988 37.121 69.54 48.603 29.049 12.103 58.335 18.24 87.044 18.24 27.711 0 55.502-5.966 84.962-18.24l0.306-0.128 0.302-0.137c25.047-11.386 48.095-27.505 68.503-47.906 21.354-21.353 37.111-44.642 48.178-71.2 12.274-29.446 18.24-57.239 18.24-84.961 0-27.719-5.966-55.512-18.24-84.968-10.994-26.377-26.615-49.529-47.749-70.762-18.516-20.689-41.805-36.996-69.236-48.476-23.914-10.809-52.599-16.289-85.266-16.289z m0 355.835c-75.776 0-137.423-61.647-137.423-137.423 0-75.777 61.647-137.426 137.423-137.426 75.777 0 137.426 61.649 137.426 137.426 0 75.776-61.649 137.423-137.426 137.423zM722.396 95C698.346 95 679 114.4 679 138.451V271.626c0 24.048 19.45 43.614 43.5 43.614 24.049 0 43.5-19.566 43.5-43.614V182h52.117c12.567 0 24.361-5.382 32.357-14.819 7.19-8.484 10.476-19.388 9.149-30.328-0.878-23.282-20.092-41.853-43.584-41.853h-93.643zM162.633-11C113.672-11 75 27.061 75 76.022V696.129C75 745.091 113.672 784 162.633 784h75.288c12.125 34 45.015 58 82.862 58h235.139c38.262 0 70.874-23 84.277-58h75.957C765.115 784 803 745.091 803 696.129v-350.015l-26.186 7.495C764.7 357.071 750.323 359 736.964 359H716V696.129c0 1.033-0.894 2.871-1.927 2.871h-74.245c-4.328-16-12.526-28.479-23.973-39.181C599.621 644.643 578.337 636 555.923 636h-235.14c-22.415 0-43.699 8.643-59.934 23.818C249.4 670.521 241.203 683 236.877 699h-74.243c-1.033 0-1.633-1.838-1.633-2.871v-618.03c0-1.03 0.601-2.099 1.633-2.099h363.952l5.043-13.476c5.175-13.798 12.303-26.7 22.431-40.89L577.45-11H162.633zM318 725.265c0-1.033 1.751-1.265 2.783-1.265h235.139c1.033 0 2.077 0.233 2.077 1.265v29.131c0 1.033-1.044 2.603-2.077 2.603H322.86c-1.032 0-2.86-1.571-2.86-2.603V734h-2v-8.735zM222.978 166c-12.582 0-24.307 4.871-33.015 14.092-8.058 8.533-12.679 19.872-12.679 31.292 0 12.583 5.078 24.77 14.298 33.477 8.532 8.057 19.975 13.14 31.395 13.14H408.18c12.58 0 24.303-5.591 33.012-14.81 8.059-8.534 12.682-20.234 12.682-31.653 0-12.583-5.078-24.23-14.298-32.936-8.532-8.058-19.975-12.6-31.395-12.6H222.978z m0 191c-12.582 0-24.307 5.091-33.014 14.311-8.058 8.532-12.679 19.982-12.679 31.403 0 12.582 5.077 24.101 14.296 32.809 8.533 8.06 19.977 12.477 31.397 12.477h428.666c12.583 0 24.136-4.867 32.845-14.087 8.06-8.533 12.51-19.769 12.51-31.192v-8.294l-0.232-2.031C692.527 371.233 675.334 357 653.728 357h-430.75z m0 169c-12.582 0-24.307 4.87-33.015 14.09-8.057 8.532-12.679 19.871-12.679 31.291 0 12.583 5.078 24.271 14.298 32.978 8.532 8.057 19.975 12.641 31.395 12.641h430.75c26.05 0 45.693-19.658 45.693-45.708 0-12.582-5.078-24.106-14.297-32.814-8.531-8.057-19.974-12.478-31.395-12.478h-430.75z"  horiz-adv-x="1024" />

    
    <glyph glyph-name="shehuizuzhiguanli" unicode="&#58956;" d="M838.641 150.217v0.188h-9.653l1.113 349.354h8.54a18.913 18.913 0 0 1 7.912 1.779 19.29 19.29 0 0 1 12.638 18.012c-0.039 10.713-8.716 19.396-19.437 19.427h-655.97a18.623 18.623 0 0 1-7.935-1.808 19.426 19.426 0 0 1-12.638-18.036c0-10.637 8.631-19.375 19.466-19.375h9.624l1.105-348.945h-9.622v-0.188a38.865 38.865 0 0 1-33.664-19.437 38.857 38.857 0 0 1 0-38.862 38.865 38.865 0 0 1 33.664-19.437H306.94l0.159-0.446h531.542a38.884 38.884 0 0 1 33.678 19.443 38.906 38.906 0 0 1 0 38.888 38.886 38.886 0 0 1-33.678 19.443z m-462.983 0.409h-104.29v349.39h104.289v-349.39z m194.258 0H453.241v349.39h116.675v-349.39z m182.57 0H647.72v349.39h104.766v-349.39z m191.905-130.993H78.033c-21.449 0-38.833-17.392-38.833-38.841 0-21.451 17.384-38.835 38.833-38.835H944.33a38.855 38.855 0 0 1 34.98 18.922 38.874 38.874 0 0 1 0.039 39.773 38.903 38.903 0 0 1-34.958 18.981zM122.848 573.692h778.037c19.02-0.045 35.277 13.706 38.395 32.466 3.119 18.763-7.806 37.025-25.818 43.142L527.615 822.693a39.1 39.1 0 0 1-31.823 0l-388.92-174.786c-16.725-7.435-25.925-25.599-22.011-43.474 3.794-17.945 19.641-30.778 37.987-30.741z m0 0M827 439H197c-27.5 0-50 22.5-50 50s22.5 50 50 50h630c27.5 0 50-22.5 50-50s-22.5-50-50-50z"  horiz-adv-x="1024" />

    
    <glyph glyph-name="jingjiyunhangshuju" unicode="&#58957;" d="M962.616-20.988c0 9.364-3.657 17.865-9.794 24.213h0.971v544.73c0 55.098-44.878 99.971-99.971 99.971-55.098 0-99.971-44.873-99.971-99.971V14.09h-27.765V185.733c0 55.098-44.873 99.971-99.971 99.971-55.098 0-99.971-44.873-99.971-99.971V14.09h-27.87V327.886c0 55.098-44.874 99.972-99.972 99.972-55.097 0-99.971-44.874-99.971-99.972V14.09h-28.3v56.176c0.537 55.098-44.337 99.971-99.436 99.971s-99.971-44.873-99.971-99.971v-67.472c-5.701-6.243-9.253-14.529-9.253-23.677 0-19.042 15.496-35.079 35.079-35.079h831.193c19.477 0 35.509 15.926 34.973 34.974zM818.308 547.954c0 19.584 15.927 35.509 35.514 35.509 19.584 0 35.51-15.925 35.51-35.509V14.09h-71.13V547.954h0.106zM590.605 185.733c0 19.583 15.926 35.509 35.51 35.509 19.583 0 35.509-15.926 35.509-35.509V14.09h-71.13V185.733h0.111zM362.788 327.886c0 19.589 15.932 35.516 35.514 35.516 19.584 0 35.51-15.927 35.51-35.516V14.09h-71.13V327.886h0.106zM170.06 105.775c19.583 0 35.509-15.927 35.509-35.509v-56.176h-71.13v56.176c0.105 19.583 16.031 35.509 35.621 35.509z m0 0M884.278 812.785c-11.303 13.346-31.963 14.959-45.31 3.657L565.962 583.033l-156.793 61.772c-8.071 3.226-16.678 3.01-24.102-0.11-5.165-1.398-10.116-4.088-14.098-8.071L98.93 364.474c-12.379-12.375-12.379-32.93 0-45.304 12.804-12.374 33.034-12.374 45.84 0l258.483 258.913 154.854-61.014c8.503-3.442 17.429-2.905 25.18 0.647 4.629 1.181 9.148 3.336 13.021 6.562L880.725 767.48c13.341 11.298 14.849 31.964 3.553 45.305z m0 0"  horiz-adv-x="1024" />

    
    <glyph glyph-name="meishuguanbowuguan" unicode="&#58958;" d="M522.973 684.063c16.739 0 33.345-0.919 49.384-2.734 36.327-4.102 71.536-12.484 104.648-24.913 32.333-12.136 62.112-27.921 88.51-46.915 52.174-37.54 89.031-86.253 106.577-140.848 10.409-32.418 13.728-65.755 9.863-99.086-3.808-32.85-14.466-65.174-31.677-96.077-22.145-39.761-55.121-76.41-95.365-105.985-43.679-32.099-94.479-55.502-150.983-69.556-37.389-9.298-75.748-14.013-114.012-14.013-68.424 0-135.174 15.076-193.036 43.597-53.581 26.412-97.336 63.326-126.911 106.997 33.437 1.696 71.507 4.198 104.444 9.555 42.307 6.881 94.55 20.694 123.256 66.822 19.683 31.629 22.356 69.732 7.339 104.548-20.263 46.998-69.107 84.131-125.664 127.128l-6.048 4.6-0.039 0.03c-18.135 13.787-31.973 25.311-42.236 35.176 8.365 7.017 20.899 16.532 39.537 28.907 69.625 46.245 161.626 72.767 252.413 72.767m0 97.307c-105.582 0-217.204-29.873-306.251-89.016-128.492-85.318-123.847-130.236-2.355-222.602 44.946-34.207 90.664-68.18 101.287-92.82 14.558-33.684-72.647-41.359-154.175-45.398-111.044-5.128-159.457-16.233-76.601-144.721 79.901-123.911 235.704-200.183 405.04-200.183 45.268 0 91.48 5.445 137.496 16.889 253.759 63.119 404.813 284.705 337.326 494.883-49.565 154.219-202.995 259.467-381.465 279.619-19.733 2.233-39.911 3.349-60.302 3.349zM370.88 558.411c-8.283 100.85 168.926 104.173 175.931 19.35 3.406-41.65-33.203-79.759-81.774-85.133-48.589-5.309-90.755 24.132-94.161 65.777l0.004 0.006zM469.699 111.461c-36.129 0-65.485 17.773-65.485 39.689s29.331 39.723 65.485 39.723c36.152 0 65.484-17.808 65.484-39.723s-29.331-39.689-65.488-39.689h0.004zM652.121 152.595c-36.166 0-65.459 17.778-65.459 39.694 0 21.916 29.285 39.718 65.459 39.718s65.484-17.778 65.484-39.718c0-21.944-29.31-39.694-65.488-39.694h0.004zM762.766 254.57c-36.171 0-65.485 17.749-65.485 39.695 0 21.944 29.285 39.694 65.485 39.694 36.165 0 65.459-17.778 65.459-39.694 0.001-21.916-29.285-39.695-65.459-39.695zM776.381 380.487c-36.166 0-65.459 17.754-65.459 39.689 0 21.941 29.286 39.723 65.459 39.723 36.132 0 65.488-17.778 65.488-39.723 0-21.939-29.356-39.699-65.488-39.699v0.01z"  horiz-adv-x="1024" />

    
    <glyph glyph-name="gonggongjigourenyuanxinxi" unicode="&#58959;" d="M268.84-13c-27.56 0-49.982 22.218-49.982 49.528 0 83.635 26.702 162.812 77.218 229.077a379.531 379.531 0 0 0 86.251 82.305 377.238 377.238 0 0 0 68.399 37.482c-49.29 42.334-78.613 104.642-78.613 170.917 0 124.122 100.977 225.104 225.095 225.104 124.127 0 225.112-100.981 225.112-225.104 0-66.271-29.318-128.572-78.606-170.905a377.24 377.24 0 0 0 68.372-37.452 379.441 379.441 0 0 0 86.233-82.251c50.502-66.212 77.22-145.34 77.266-228.831 0-27.503-22.387-49.869-49.904-49.869H268.84z m619.831 84c-24.79 143-148.442 251.483-291.194 251.483-142.67 0-266.3-108.483-291.149-251.483h582.343zM597.208 693.313c-75.489 0-136.903-61.414-136.903-136.903 0-75.495 61.414-136.915 136.903-136.915 75.498 0 136.919 61.42 136.919 136.915 0 75.489-61.421 136.903-136.919 136.903zM98.368 109c-27.5 0-49.909 22.485-49.953 49.985 0 104.363 55.663 199.939 144.305 251.949-39.935 39.135-63.017 92.799-63.017 149.591C129.703 676.183 223.799 770 339.459 770h0.846c27.553 0 49.967-22.153 49.982-49.69 0-13.916-5.734-26.248-16.147-34.869-8.969-7.425-20.985-11.441-33.835-11.441h-0.846c-62.528 0-121.645-54.974-121.645-113.262 0-57.503 57.98-109.738 121.645-109.738h0.846c27.56 0 49.982-22.406 49.982-49.868 0-12.756-4.75-24.523-13.375-33.964-9.073-9.931-21.734-15.168-34.734-15.168h-0.005c-1.169 0-2.354-0.445-3.521-0.355-5.86 0.451-11.4 0.434-17.066 0.434-119.43 0-172.586-97.01-172.586-192.909v-0.147C149 131.52 125.924 109 98.421 109h-0.053zM750.914 159.849H635.453c-20.9 0-38 17.1-38 38v6.209c0 20.9 17.1 38 38 38h115.461c20.9 0 38-17.1 38-38v-6.209c0-20.9-17.1-38-38-38z"  horiz-adv-x="1024" />

    
    <glyph glyph-name="moxingguanli" unicode="&#58960;" d="M84 154.999V613.005L512.001 839.167 940 613.005v-458.006L512.001-71.167 84 154.999z m472-93.583L843 215.56V523.353l-118-63.706v-197.012l-169-97.56v-103.659z m-93 4.289V169.698l-164 92.798V444.463l-118 55.095v-286.21l282-147.643z m93 206.208l76 43.199v94.254l-76-40.219v-97.234z m-93 2.474v91.626l-71 33.424v-84.357l71-40.693z m43.824 174.137l69.397 35.407-64.278 36.923-71.995-40.938 66.876-31.392z m-169.647 78.794L511.92 627.851l159.858-90.667 103.399 54.932-263.162 138.613-286.809-151.482 111.971-51.929z"  horiz-adv-x="1024" />

    
    <glyph glyph-name="jiabandengji" unicode="&#58961;" d="M625.596 156.942c-11.558 0-22.882 5.215-30.335 15.165L481.609 323.643c-4.938 6.546-7.583 14.501-7.583 22.713V535.774c0 20.94 16.925 37.882 37.883 37.882 20.958 0 37.883-16.942 37.883-37.882v-176.802l106.061-141.434c12.586-16.721 9.179-40.471-7.56-53.013-6.825-5.108-14.781-7.583-22.697-7.583M511.909-70.359c-229.764 0-416.719 186.933-416.719 416.715 0 229.781 186.96 416.718 416.719 416.718 229.758 0 416.719-186.938 416.719-416.718 0-60.267-12.621-118.496-37.462-172.995-8.728-19.046-31.185-27.296-50.2-18.824-19.054 8.766-27.43 31.258-18.793 50.272 20.389 44.581 30.69 92.193 30.69 141.548 0 188.009-152.945 340.953-340.953 340.953-188.014 0-340.953-152.945-340.953-340.953 0-188.019 152.939-340.953 340.953-340.953 84.814 0 166.168 31.37 228.966 88.307 15.498 13.985 39.435 12.916 53.529-2.623 14.06-15.499 12.877-39.475-2.606-53.534-76.842-69.593-176.209-107.913-279.89-107.913M208.803-70.359a37.822 37.822 0 0 0-16.891 3.992c-18.716 9.361-26.337 32.113-16.976 50.833l37.882 75.766c9.399 18.72 32.131 26.229 50.833 16.942 18.716-9.355 26.338-32.112 16.978-50.827l-37.883-75.77c-6.66-13.28-20.031-20.936-33.943-20.936M815.014-70.359c-13.985 0-27.469 7.76-34.019 21.156l-46.597 94.711c-9.213 18.79-1.478 41.472 17.276 50.72 18.794 9.174 41.547 1.478 50.724-17.276l46.553-94.711c9.252-18.79 1.523-41.468-17.272-50.72a37.886 37.886 0 0 0-16.665-3.88M196.3 517.976c-6.75 0-13.484 1.778-19.7 5.549-50.963 31.042-81.411 85.239-81.411 144.837 0 94.01 76.49 170.477 170.477 170.477 75.228 0 142.391-50.351 163.314-122.419 5.792-20.085-5.805-41.099-25.878-46.944-20.086-5.775-41.139 5.767-46.944 25.856-11.546 39.882-48.743 67.736-90.493 67.736-52.242 0-94.711-42.469-94.711-94.707 0-33.001 16.851-62.928 45.079-80.131 17.888-10.917 23.567-34.224 12.616-52.089-7.082-11.688-19.585-18.165-32.349-18.165M827.518 517.976c-12.759 0-25.267 6.477-32.35 18.166-10.952 17.865-5.272 41.173 12.611 52.089 28.227 17.203 45.084 47.13 45.084 80.131 0 52.238-42.47 94.707-94.711 94.707-41.745 0-78.952-27.854-90.488-67.736-5.849-20.09-26.828-31.631-46.948-25.856-20.069 5.844-31.666 26.859-25.878 46.944C615.759 788.489 682.923 838.84 758.151 838.84c93.991 0 170.477-76.467 170.477-170.477 0-59.599-30.448-113.795-81.411-144.837-6.212-3.772-12.945-5.55-19.699-5.55"  horiz-adv-x="1024" />

    
    <glyph glyph-name="kaoqintongji" unicode="&#58962;" d="M47 32V674c0 44.183 35.817 80 80 80h173v28.5c0 29.547 23.953 53.5 53.5 53.5S407 812.047 407 782.5V754h209v28.5c0 29.547 23.953 53.5 53.5 53.5h1c29.547 0 53.5-23.953 53.5-53.5V754h173c44.183 0 80-35.817 80-80v-642c0-44.183-35.817-80-80-80H127c-44.183 0-80 35.817-80 80z m822 46V457H155v-379c0-11.046 8.954-20 20-20h674c11.046 0 20 8.954 20 20z m0 486v62c0 11.046-8.954 20-20 20H724v-10.5c0-29.547-23.953-53.5-53.5-53.5h-1c-29.547 0-53.5 23.953-53.5 53.5V646H407v-10.5c0-29.547-23.953-53.5-53.5-53.5S300 605.953 300 635.5V646H175c-11.046 0-20-8.954-20-20v-62h714zM232.745 138.461c-20.868 20.914-20.85 54.779 0.041 75.67l115.166 115.17-0.199 0.198 19.219 19.217c31.243 31.239 81.894 31.237 113.134-0.004l90.228-90.229 136.523 136.528c20.891 20.892 54.757 20.911 75.672 0.043 20.948-20.901 20.968-54.832 0.043-75.757l-155.82-155.824c-31.267-31.268-81.97-31.239-113.202 0.064l-19.059 19.103 0.086 0.087-70.853 70.923-115.225-115.23c-20.923-20.924-54.853-20.906-75.754 0.041z"  horiz-adv-x="1024" />

    
    <glyph glyph-name="qitazhongdian" unicode="&#58963;" d="M512.004 246.89c-34.013 0-68.02-27.529-68.02-68.013 0-40.491 27.529-68.018 68.02-68.018 34.005 0 68.013 27.527 68.013 68.018-1.622 42.103-27.53 68.013-68.013 68.013zM563.753 642.141H458.984c-16.409 0-26.512-10.097-26.512-26.507l26.512-309.267c0-16.409 10.099-26.507 26.507-26.507h53.018c16.409 0 26.507 10.099 26.507 26.507l26.512 310.531c-1.262 15.145-11.367 25.243-27.775 25.243zM512 734c47.294 0 93.12-9.24 136.205-27.464 41.666-17.623 79.107-42.873 111.282-75.049s57.426-69.616 75.049-111.283C852.76 477.12 862 431.294 862 384s-9.24-93.12-27.464-136.205c-17.623-41.666-42.873-79.107-75.049-111.282s-69.616-57.426-111.282-75.049C605.12 43.24 559.294 34 512 34s-93.12 9.24-136.205 27.464c-41.666 17.623-79.107 42.873-111.283 75.049s-57.426 69.616-75.049 111.282C171.24 290.88 162 336.706 162 384s9.24 93.12 27.464 136.205c17.623 41.666 42.873 79.107 75.049 111.283s69.616 57.426 111.283 75.049C418.88 724.76 464.706 734 512 734m0 100C263.472 834 62 632.528 62 384s201.472-450 450-450 450 201.472 450 450S760.528 834 512 834z"  horiz-adv-x="1024" />

    
    <glyph glyph-name="shequjiaozhengrenyuanguanli" unicode="&#58964;" d="M927.001 526.856c-20.021 0-35.001-14.99-35.001-35.016v-115.012c-5-77.476-100.148-220.055-175.107-262.52-25.057-14.99-47.561-20.021-55.108-17.506-2.516 0-2.548 0-2.548 2.516-2.516 5.031 2.499 14.99 14.979 29.985 37.532 42.46 64.657 94.985 82.163 150.023 4.933 14.995 7.621 29.985 9.621 44.98V336.78c0 5.031 0.335 5.031-9.629 22.542-17.506 12.475-17.338 12.475-42.291 2.614-9.964-7.443-9.88-7.443-12.396-9.959-14.99-7.449-29.943-17.511-42.418-29.985l-11.421-18.601c-12.578-12.48-21.151-16.518-26.182-16.518l-7.541 9.964s0.003 9.959 5.034 24.954c5.031 15.093 10.063 27.568 30.09 72.548 2.412 9.963 7.444 17.509 9.96 27.468 14.995 35.016 37.434 55.042 94.986 100.018 14.995 12.48 22.542 17.407 32.501 24.954 50.011 42.464 42.563 119.939-12.474 227.504-5.031 12.479-17.511 20.026-29.985 20.026-44.979 0-89.954-7.448-130.002-24.954-35.021-14.995-70.038-39.949-105.053-79.997-79.992 92.471-174.978 120.044-282.541 79.997-102.541-39.949-180.016-177.498-162.51-317.459 17.148-173.926 154.17-338.19 418.203-462.286l6.824-10.237c24.149-14.507 76.479 3.781 154.619 54.778 32.986-10.883 68.414-0.572 108.015 22.702C846.879 111.793 955 274.295 962 376.828V491.84c0 20.026-14.974 35.016-34.999 35.016zM254.203 507h-32.501c-5.031 53 27.47 84.94 27.47 84.94 32.501 42.464 97.501 55 97.501 55l9.964-35.037c-22.439 2.516-74.964-37.458-74.964-37.458-32.501-24.954-27.47-67.445-27.47-67.445z"  horiz-adv-x="1024" />

    
    <glyph glyph-name="fenzuhaoyouguanli" unicode="&#58965;" d="M906.28 183.761c-21.813 33.728-50.388 62.229-83.803 83.819 37.269 23.949 68.252 56.327 90.754 95.121 50.379 86.853 50.379 194.757 0.001 281.604-24.635 42.471-60.146 77.871-102.693 102.373-42.532 24.494-90.953 37.44-140.028 37.44-0.563 0-1.123-0.001-1.686-0.005-24.482-0.044-44.39-19.976-44.39-44.47 0-3.418 0.401-6.742 1.134-9.94a323.497 323.497 0 0 1-13.623 14.52c-59.875 59.872-139.484 92.845-224.163 92.845-83.741 0-162.723-32.357-222.399-91.111l-0.111-0.111C120.794 701.36 90.799 645.234 78.53 583.534c-12.269-61.699-6.029-125.029 18.046-183.145 15.806-38.161 38.529-72.364 67.539-101.666 19.019-19.21 40.168-35.744 63.178-49.427-95.037-56.865-154.577-160.043-154.559-272.73 0-24.521 19.949-44.45 44.47-44.45s44.47 19.988 44.47 44.508c0 120.804 94.12 221.029 214.455 228.511 4.566-0.192 9.032-0.136 13.255-0.136h0.771c4.723 0 9.54-0.045 14.334 0.173 120.633-7.225 214.975-107.542 214.975-228.625 0-24.521 19.949-44.47 44.47-44.47s44.47 19.949 44.47 44.413c0.12 41.999-7.967 82.967-24.035 121.768s-39.314 73.49-69.053 103.065c-18.853 18.854-39.761 35.103-62.455 48.565 22.086 13.293 42.431 29.251 60.772 47.693l0.072 0.073c59.075 60.01 91.427 139.435 91.096 223.644-0.255 64.744-19.825 126.496-55.912 178.651a44.178 44.178 0 0 1 20.016-4.779l1.444 0.005c68.079 0 131.598-36.578 165.77-95.459 34.443-59.348 34.444-133.081 0-192.426-32.177-55.448-89.451-90.923-153.363-95.055a286.682 286.682 0 0 1-12.88 0.294c-9.332 0-18.265-2.877-25.866-8.326-12.266-8.296-19.573-22.029-19.573-36.837 0-24.495 19.907-44.429 44.393-44.47a284.13 284.13 0 0 1 13.806 0.262c100.817-6.591 179.638-90.715 179.638-191.967 0-24.521 19.949-44.47 44.47-44.47s44.47 19.949 44.47 44.47c-0.002 54.361-15.539 107.118-44.934 152.57zM579.082 395.002c-39.104-58.522-104.293-96.174-174.543-100.88a320.488 320.488 0 0 1-29.265-0.038c-25.148 1.561-49.737 7.284-73.107 16.963-100.203 41.502-157.575 148.887-136.417 255.259C186.903 672.681 280.977 750 389.491 750h0.641c59.83 0 118.344-24.443 160.579-66.907 76.691-76.689 88.623-197.913 28.371-288.091zM497.229 464.213c-11.922 0-23.118-4.653-31.549-13.127-25.726-25.943-50.202-39.098-72.748-39.098-1.363 0-2.741 0.049-4.107 0.146-33.597 2.369-58.021 33.852-58.263 34.167l-7.941 10.425C315.083 470.59 300.39 480 283.5 480c-24.577 0-44.5-19.923-44.5-44.5a44.282 44.282 0 0 1 8.225-25.76l-0.052-0.038 11.791-16.157c1.293-1.772 13.231-17.782 33.835-33.92 27.208-21.313 58-33.818 89.04-36.166 3.76-0.286 7.563-0.431 11.303-0.431 46.995 0 92.648 22.014 135.708 65.447 17.218 17.408 17.08 45.599-0.308 62.843-8.383 8.316-19.504 12.895-31.313 12.895z"  horiz-adv-x="1024" />

    
    <glyph glyph-name="weilahurenkou" unicode="&#58966;" d="M486.318 325.395l92.416-46.209-15.402 100.112 73.157 73.162-100.112 15.402-50.058 88.565-46.207-92.416L340 448.61l73.156-73.162-15.402-100.111 88.564 50.058z m0 0M583.317 244.963l70.71 70.71 232.636-232.636-70.71-70.71z"  horiz-adv-x="1024" />

    
    <glyph glyph-name="wanggeyuanxinxi" unicode="&#58967;" d="M518.292 314.257c143.785 0.039 260.362 116.554 260.475 260.341C778.766 718.742 662.16 835 518.292 835a260.083 260.083 0 0 1-184.17-76.213 260.132 260.132 0 0 1-76.171-184.189c0.081-143.756 116.593-260.259 260.341-260.341z m0 449.199c104.272-0.113 188.774-84.594 188.939-188.857-0.165-104.264-84.685-188.724-188.939-188.797-104.224 0.113-188.674 84.573-188.797 188.797 0.112 104.221 84.562 188.702 188.797 188.857zM461.515 124.752c0 16.3 1.797 32.248 4.788 47.677-46.776 37.44-99.395 100.656-99.395 100.656s-163.21-28.577-219.806-71.365C90.559 159.172 65.556-67 65.556-67h487.579c-57.783 47.833-91.433 117.404-91.62 191.752zM137.333-3c13.309 75 32.964 141.717 47.209 156.088 25.564 19.218 99.521 39.823 159.169 52.51 14.922-16.541 35.137-37.433 56.537-57.275C396.287 96.193 405.844 42 427.989-3H137.333zM958 181v62h-66v64h-63v-64H708v64h-62v-64h-61v-62h61v-120h-61v-64h61v-64h62v64h121v-64h63v64h66v64h-66V181h66zM829 61H708V181h121v-120z"  horiz-adv-x="1024" />

    
    <glyph glyph-name="laonianrenguanli" unicode="&#58968;" d="M565.596-89.611H162.139a36.96 36.96 0 0 0-34.506 24.645 46.743 46.743 0 0 0-5.421 20.454c-3.204 197.169 55.7 360.083 175.235 487.256a430.086 430.086 0 0 0 61.618 51.513l4.682 3.447c37.689 27.116 90.009 19.969 119.039-16.264 41.404-44.609 87.003-87.002 131.12-128.16 38.692-35.985 78.869-73.943 116.579-112.636a36.965 36.965 0 0 0 11.017-36.932 36.96 36.96 0 0 0-27.828-26.666 36.959 36.959 0 0 0-36.429 12.58c-36.476 37.71-75.665 73.938-113.866 109.674-45.1 41.903-91.684 85.525-134.816 131.861-8.377 8.874-15.276 11.091-21.194 6.899l-4.682-3.446a372.367 372.367 0 0 1-51.509-42.642C249.632 283.778 198.614 150.197 195.901-15.182h335.195c0 18.977-2.465 42.392-3.204 52.744-0.739 10.351 0 17.251-1.236 20.212V168.435a53.992 53.992 0 0 0 27.851 49.292c34.754 18.486 81.83-4.191 141.963-43.871l2.714-1.726a36.972 36.972 0 1 0-2.843-64.788 36.96 36.96 0 0 0-37.575 2.927l-2.962 1.968a416.24 416.24 0 0 1-55.451 32.042v-101.298c6.408-88.728 8.376-115.343-20.455-128.651a36.94 36.94 0 0 0-14.302-3.941z m0 0M642.004 409.473c-54.96 0-115.839 26.373-163.405 117.07a125.213 125.213 0 0 0-19.721-3.695 76.15 76.15 0 0 0-63.339 20.951 73.927 73.927 0 0 0-5.668 67.282 81.554 81.554 0 0 0 35.736 46.827c2.217 0 3.942 1.974 4.682 14.542 3.453 62.848 32.289 142.702 150.346 165.132l42.145 8.624c15.773 3.204 31.794 6.657 47.813 9.613 34.203 7.943 70.012-3.396 93.406-29.577 3.948-4.433 8.135-8.626 12.326-12.817 4.192-4.191 11.091-11.091 16.269-17.007 5.173-5.912 6.899-8.129 10.352-12.568 13.797-17.5 15.524-17.251 20.455-16.76a60.368 60.368 0 0 0 49.292-19.715l3.203-3.453a75.657 75.657 0 0 0 24.647-51.018c0-34.01-38.45-52.495-46.088-55.7a221.912 221.912 0 0 0-28.838-10.103c5.67-105.731-42.635-184.599-130.377-209.246a197.247 197.247 0 0 0-53.236-8.382zM518.77 616.259l12.815-30.315c46.336-108.942 100.807-109.433 142.952-98.59 84.78 24.647 79.856 119.783 73.938 159.959l-4.682 32.035 31.054 9.122 17.747 4.93 4.924 1.229a109.69 109.69 0 0 0-52.248 42.145 146.115 146.115 0 0 1-7.886 9.369c-2.714 2.956-8.873 9.365-13.555 14.047-4.683 4.682-10.103 10.103-14.792 15.282a24.638 24.638 0 0 1-24.645 6.65l-46.088-9.364-43.623-8.874c-60.383-11.332-87.251-40.17-90.449-96.366a89.493 89.493 0 0 0-26.868-64.077l10.847 3.447 30.559 9.371z m271.11-488.248v-212.94h73.937v212.94c0 61.257-49.653 110.91-110.91 110.91-61.251 0-110.904-49.653-110.904-110.91 0-20.415 16.551-36.967 36.967-36.967 20.421 0 36.972 16.551 36.972 36.967 0 20.421 16.551 36.972 36.965 36.972 20.422 0 36.973-16.551 36.973-36.972z m0 0"  horiz-adv-x="1024" />

    
    <glyph glyph-name="liudongrenkou" unicode="&#58969;" d="M637.499-89.6c-25.988 0-47.499 21.143-47.499 47.131V-39H434v-3.469c0-25.988-21.509-47.131-47.498-47.131-25.991 0-47.502 21.143-47.502 47.131V-39h-77.851c-32.692 0-63.807 12.517-86.922 35.633-23.116 23.11-36.227 53.63-36.227 86.323V609.744c0 32.69 13.111 63.358 36.227 86.476 23.116 23.116 54.231 35.78 86.922 35.78H315v53.34c0 19.294 7.19 37.651 20.828 51.289S367.282 858 386.575 858h250.85C677.246 858 709 825.161 709 785.34V732h53.85c32.691 0 63.805-12.664 86.922-35.779C872.89 673.102 886 642.434 886 609.744v-526.787c0-32.693-13.111-63.213-36.229-86.325C826.657-26.483 795.541-39 762.85-39H685v-3.469c0-25.987-21.513-47.131-47.501-47.131zM261.149 638c-7.514 0-14.59-2.991-19.9-8.301-5.311-5.311-8.249-12.44-8.249-19.956v-526.787C233 67.449 245.643 54 261.149 54H762.85c15.508 0 28.15 13.449 28.15 28.956V609.744C791 625.251 778.358 638 762.85 638H261.149zM616 732v31H408v-31h208zM612.503 161.25c-25.991 0-47.503 21.143-47.503 47.131V484.319c0 12.59 5.006 24.425 13.907 33.327 8.906 8.905 21.059 13.808 33.648 13.808 25.988 0 47.445-21.145 47.445-47.135V208.38c0-25.987-21.509-47.13-47.497-47.13z m-201.005 0c-25.988 0-47.498 21.143-47.498 47.13V484.319c0 25.99 21.407 47.135 47.395 47.135 12.593 0 24.666-4.906 33.568-13.814 8.896-8.889 14.037-20.727 14.037-33.322V208.38c0-25.987-21.512-47.13-47.502-47.13z"  horiz-adv-x="1024" />

    
    <glyph glyph-name="weixianpincongyerenyuanguanli" unicode="&#58970;" d="M911.861 69.871l-70.039 118.824-70.043 118.829c-11.625 19.82-32.582 31.582-55.86 31.582a64.218 64.218 0 0 1-55.933-31.582L519.837 69.895a61.474 61.474 0 0 1 0-63.272C531.482-13.166 552.814-25 575.771-25h280.25c22.949 0 44.277 11.822 55.93 31.599a61.472 61.472 0 0 1-0.09 63.272z m-195.684-63.476a34.631 34.631 0 0 0-30 17.325 34.632 34.632 0 0 0 0 34.644 34.64 34.64 0 0 0 30 17.319c19.138 0 34.649-15.512 34.649-34.644 0-19.134-15.511-34.644-34.649-34.644zM752 130.043c0-12.377-6.757-23.814-17.475-30.005-10.723-6.186-24.205-6.186-34.928 0C688.88 106.229 682 117.667 682 130.043V233.981c0 9.189 3.847 18.003 10.347 24.498 6.495 6.501 15.409 10.146 24.598 10.146 9.189 0 18.208-3.645 24.704-10.146 6.5-6.495 10.352-15.309 10.352-24.498v-103.938zM125.316-45.362a42.58 42.58 0 0 0-24.221 7.522c-12.952 8.901-19.929 24.041-18.308 39.638 10.437 167.394 117.844 312.574 271.911 372.926-56.787 46.562-90.748 116.829-90.712 191.579 0 66.113 25.749 128.278 72.503 175.033 46.755 46.755 108.92 72.504 175.044 72.504 66.124 0 128.289-25.749 175.045-72.504 46.756-46.755 72.505-108.919 72.505-175.042 0-66.125-25.749-128.291-72.505-175.046-46.755-46.756-108.921-72.505-175.045-72.505-181.406 0-332.26-141.894-343.433-322.765L166.941-23h-3.802c-3.947-7-10.105-13.538-17.897-17.644-6.116-3.223-13.007-4.718-19.926-4.718z m386.217 773.694c-89.349 0-162.039-72.69-162.039-162.039s72.69-162.039 162.039-162.039 162.039 72.69 162.039 162.039-72.69 162.039-162.039 162.039z"  horiz-adv-x="1024" />

    
    <glyph glyph-name="shiyourenkouguanli" unicode="&#58971;" d="M128.688 42.247c0-22.023-17.976-39.849-40.055-39.606-21.819 0.241-39.216 18.52-39.162 40.34 0.328 132.827 89.644 246.726 216.211 294.486-96.413 65.058-130.429 191.044-79.863 295.787 36.964 76.561 110.919 124.794 191.353 131.525 35.428 2.964 56.022-39.237 32.086-65.524l-0.636-0.699c-6.636-7.303-15.78-11.773-25.603-12.707-75.814-7.207-135.769-68.828-140.369-145.375-3.826-63.665 30.27-119.251 82.358-146.743 35.849-18.921 46.853-65.105 22.747-97.695a428.763 428.763 0 0 0-2.223-2.979c-8.364-11.11-20.046-19.296-33.357-23.323-106.565-32.24-183.487-121.884-183.487-227.487z m809.289-39.186H314.058c-20.776 1.259-36.979 18.48-36.967 39.293-0.16 132.875 89.252 247.054 216.002 294.957-85.034 58.013-122.325 164.67-91.97 263.027 30.358 98.358 121.273 165.445 224.211 165.445 102.935 0 193.849-67.088 224.208-165.445 30.355-98.357-6.936-205.014-91.966-263.027C883.9 289.514 973.683 175.334 973.683 42.248c-0.047-20.35-15.546-37.334-35.809-39.238l0.103 0.051z m0 0"  horiz-adv-x="1024" />

    
    <glyph glyph-name="liuchengguanli" unicode="&#58972;" d="M686.374 571.893c72.29-48.929 118.89-125.875 125.879-223.793 23.3 0 48.985-6.989 72.285-16.311-6.989 125.879-72.285 240.104-174.865 303.072-6.989-13.978-6.989-39.611-23.299-62.968zM637.388 45.028c-39.612-16.367-79.218-30.345-125.875-30.345-46.601 0-88.602 6.988-125.88 30.345-16.367-23.3-30.345-39.667-48.984-55.974 55.974-30.289 111.953-48.99 174.864-48.99 62.963 0 125.875 16.367 174.86 48.99-13.978 18.64-30.289 32.617-48.985 55.974zM208.442 350.429c5.909 89.81 52.198 172.103 125.875 223.793-6.989 23.3-16.306 48.99-23.3 72.29-102.575-65.296-167.871-184.126-174.86-312.39 23.295 9.317 46.595 16.307 72.285 16.307zM217.759 308.433c-88.765-0.156-160.695-72.06-160.881-160.826 0.156-88.769 72.06-160.695 160.826-160.886 88.791 0.125 160.756 72.039 160.942 160.83-2.329 88.653-74.619 160.882-160.887 160.882zM511.514 828.421c-88.792-0.186-160.705-72.151-160.83-160.942 0.186-88.744 72.082-160.638 160.83-160.825 88.744 0.187 160.638 72.081 160.825 160.825-0.156 88.77-72.06 160.7-160.825 160.887v0.055zM805.32 308.433c-88.791-0.125-160.751-72.038-160.942-160.826 0.155-88.791 72.094-160.729 160.886-160.886 88.766 0.156 160.695 72.06 160.881 160.83-0.156 88.765-72.06 160.695-160.825 160.882zM217.703 308.433c-88.745-0.186-160.639-72.081-160.826-160.826 0.156-88.769 72.06-160.695 160.826-160.886 88.791 0.125 160.756 72.039 160.942 160.83-2.329 88.653-74.618 160.881-160.887 160.881h-0.055z m0 0"  horiz-adv-x="1024" />

    
    <glyph glyph-name="menhuzidianguanli" unicode="&#58973;" d="M910.339 124.538c11.493 0 20.811 9.317 20.811 20.811V763.95c-0.703 26.656-11.75 51.441-31.113 69.768-19.307 18.294-44.527 27.995-71.141 27.318H192.559c-26.131 0-50.848-10.032-69.576-28.263-18.733-18.23-29.451-42.678-30.154-68.809v-705.725l0.014-0.447c1.346-41.41 18.665-79.871 48.785-108.307 29.154-27.532 66.981-42.554 106.933-42.554 1.27 0 2.547 0.021 3.816 0.049h631.099c26.341 0 47.695 21.354 47.695 47.695l-0.048 1.014c-1.32 18.657-15.188 34.005-33.619 37.191-30.961 5.646-54.022 32.549-54.87 64.077a62.313 62.313 0 0 0 19.327 47.156 74.301 74.301 0 0 0 48.378 20.425z m-65.305 638.668v-553.132h-592.74c-25.578 0.352-50.537-5.086-73.328-15.886V763.275a12.377 12.377 0 0 0 4.409 8.887 12.511 12.511 0 0 0 9.709 2.856l0.917-0.124h637.398l0.622 0.014a12.51 12.51 0 0 0 8.984-3.264c2.36-2.167 3.815-5.23 4.029-8.438zM189.446 92.989c12.083 19.633 33.114 31.266 55.838 31.266 1.89 0 3.787-0.09 5.692-0.242l0.594-0.055h517.748c-20.887-41.044-20.887-89.821 0-130.864H252.191l-1.201-0.057c-24.854-2.118-48.454 9.765-61.544 31.017-13.096 21.275-13.096 47.682 0 68.935z m0 0M309.474 398.127h405.025c23.782 0 43.061-19.279 43.061-43.061s-19.279-43.061-43.061-43.061H309.474c-23.782 0-43.061 19.279-43.061 43.061 0 23.781 19.279 43.061 43.061 43.061z m0 231.448h405.025c23.782 0 43.061-19.279 43.061-43.061s-19.279-43.061-43.061-43.061H309.474c-23.782 0-43.061 19.279-43.061 43.061s19.279 43.061 43.061 43.061z m-43.061 0"  horiz-adv-x="1024" />

    
    <glyph glyph-name="wupinguihuan" unicode="&#58974;" d="M955.796 336.838c-45.682 45.682-117.965 40.961-221.188-18.024-83.558-47.511-91.75-49.152-126.156-24.574-19.66 14.742-60.621 26.211-88.473 26.211-27.851 0-75.367 18.024-106.496 40.961-130.625 94.742-223.522 114.022-328.274 61.149-2.621-1.323-6.796-3.745-11.893-6.836-29.027-17.602-25.868-60.701 5.409-73.9 12.907-5.447 27.633-3.956 39.324 3.763 28.754 18.983 98.242 42.275 221.708-41.52 65.422-44.401 114.687-65.535 150.73-65.535 67.176 0 72.09-19.66 13.11-47.515-36.047-14.743-62.262-13.106-155.649 18.023-77.004 24.578-117.965 31.129-129.433 19.66-34.407-34.406 4.914-68.812 113.05-104.855 129.434-40.961 209.715-34.407 265.418 26.214 19.66 21.297 45.875 39.321 55.707 39.321 11.469 0 65.535 22.937 121.242 50.789 55.704 27.855 106.497 45.875 111.411 40.961 16.382-16.383-109.774-139.262-191.692-186.778-72.09-42.597-81.922-44.238-376.832-49.152-81.39-1.779-193.61-6.751-193.61-6.751l-5.172-0.011c-18.695-0.041-33.828-15.208-33.828-33.902 0-18.724 15.179-33.902 33.902-33.902H603.302c10.717 0 21.38 1.324 31.798 3.838 0.385 0.093 0.787 0.186 1.208 0.279 86.832 21.297 155.648 67.172 250.671 165.476 44.761 46.204 114.499 150.929 68.817 196.61zM813.209 677.365v-84c0-11.046-8.954-20-20-20h-464c-11.046 0-20 8.954-20 20v84c0 11.046 8.954 20 20 20h464c11.046 0 20-8.954 20-20z m-524 120c-44.183 0-80-35.817-80-80v-164c0-44.183 35.817-80 80-80h544c44.183 0 80 35.817 80 80v164c0 44.183-35.817 80-80 80h-544z"  horiz-adv-x="1024" />

    
    <glyph glyph-name="tudiguanli" unicode="&#58975;" d="M408.449 699.199l68.507-630.398H158.541l68.478 630.398h181.43m35.777 100H191.257c-30.698 0.005-56.468-23.113-59.789-53.633l-77.14-710.134a60.123 60.123 0 0 1 59.774-66.631H521.398a60.126 60.126 0 0 1 59.773 66.631l-77.17 710.108c-3.302 30.526-29.07 53.659-59.775 53.659zM832.68 284l31.156-215.199H761.211L732.649 284H832.68m34.509 100H687.148a60.148 60.148 0 0 1-45.244-20.514 60.109 60.109 0 0 1-14.371-47.551l39.141-294.908c3.965-29.892 29.457-52.226 59.613-52.226H909.898a60.132 60.132 0 0 1 45.461 20.776 60.134 60.134 0 0 1 14.039 48.001l-42.692 294.878C922.436 362.043 897.077 384 867.189 384zM774.531 699.199l26.351-155.869H699.161l-24.134 155.869h99.504m33.712 100H628.505a60.137 60.137 0 0 1-45.66-21.007 60.151 60.151 0 0 1-13.755-48.346l36.48-235.605c4.547-29.3 29.77-50.91 59.416-50.91H848.072a60.124 60.124 0 0 1 59.274 70.153l-39.831 235.604c-4.888 28.925-29.933 50.102-59.272 50.111z"  horiz-adv-x="1024" />

    
    <glyph glyph-name="wanggeyuanzhize" unicode="&#58976;" d="M323.272-51C259.798-51 208 0.559 208 63.933V539h-55.834c-27.878 0-54.25 11.097-74.184 30.984C58.029 589.892 47 616.352 47 644.228V676.56C47 755.101 111.212 819 190.037 819h551.086C796.132 819 841 773.996 841 718.677V207h62.047C943.228 207 976 174.72 976 134.437v-66.563C976 2.327 922.684-51 857.25-51H323.272z m-34.3 786c0.783-5 1.028-11.141 1.028-17.279v-653.789c0-17.648 14.506-32.004 32.279-32.004 12.13 0 24.721 0 24.721 29.366V123.07c0 46.55 38.223 83.93 85.145 83.93H758V718.677c0 9.355-7.292 16.323-16.877 16.323H288.972zM857.25 33c19.813 0 34.75 14.943 34.75 34.874V125H432.145c-1.195 0-2.145-1.515-2.145-1.93v-61.776c0-10.231-0.806-19.294-2.403-28.294H857.25zM190.071 736.024c-32.617 0-59.071-26.676-59.071-59.465v-32.331c0-11.79 9.293-21.228 21.163-21.228H208v94.721c0 10.092-7.998 18.303-17.929 18.303zM660 545H388c-24.301 0-44 19.699-44 44s19.699 44 44 44h272c24.3 0 44-19.699 44-44s-19.699-44-44-44zM660 353H388c-24.301 0-44 19.699-44 44s19.699 44 44 44h272c24.3 0 44-19.699 44-44s-19.699-44-44-44z"  horiz-adv-x="1024" />

    
    <glyph glyph-name="jiudian" unicode="&#58977;" d="M406.307 591.681c0 16.231-13.284 29.49-29.543 29.49h-28.68c-16.234 0-29.542-13.259-29.542-29.49v-81.133c0-16.227 13.308-29.511 29.542-29.511h28.68c16.259 0 29.564 13.284 29.564 29.511l-0.021 81.133z m-0.045-210.325c0 16.211-13.304 29.494-29.565 29.494h-28.655c-16.259 0-29.568-13.283-29.568-29.494v-81.149c0-16.21 13.308-29.494 29.568-29.494h28.655c16.26 0 29.569 13.284 29.569 29.494v81.149h-0.004z m157.971 0c0 16.211-13.305 29.494-29.565 29.494h-28.679c-16.235 0-29.543-13.283-29.543-29.494v-81.149c0-16.21 13.308-29.494 29.543-29.494h28.679c16.259 0 29.565 13.284 29.565 29.494v81.149z m0.045 210.193c0 16.231-13.309 29.514-29.569 29.514h-28.655c-16.259 0-29.543-13.283-29.543-29.514v-81.129c0-16.231 13.284-29.515 29.543-29.515h28.655c16.259 0 29.569 13.284 29.569 29.515v81.129z m360.244-548.837l-44.24-0.045v351.39c-0.174 28.647-23.468 51.808-52.164 51.808l-88.373-0.041V760.505c0.02 30.23-23.316 53.524-52.103 53.524l-492.598-0.066c-28.783 0-52.123-23.294-52.123-52.027l0.025-719.269H101.09c-25.898 0.045-45.543-19.587-45.543-43.795 0-23.876 19.149-43.294 42.96-43.789 0.954-0.025 825.968-0.025 825.968-0.025 24.902 0.653 43.94 20 43.94 43.84 0.001 24.181-19.644 43.814-43.893 43.814zM739.918 323.328v0.735h0.02c0.393 19.024 15.958 34.346 35.123 34.346 19.149 0 34.714-15.322 35.128-34.346v-246.142c0-19.371-15.719-35.081-35.128-35.081-19.363 0-35.077 15.623-35.143 34.933V323.328zM230.581 700.394c0 14.366 11.655 26.025 26.051 26.025 0.715 0 1.409-0.041 2.103-0.087l367.3-0.02h0.045c14.412 0 26.071-11.639 26.071-26.005v-657.641h-421.57V700.394z m0 0"  horiz-adv-x="1024" />

    
    <glyph glyph-name="minzhengshiwu" unicode="&#58978;" d="M911.843 11H112.442c-10.544 0-20.661-4.574-28.126-12.026-7.46-7.448-11.656-18.141-11.66-28.686 0-21.984 17.859-40.288 39.787-40.288h799.401c10.54 0 20.34 4.539 27.8 11.982 7.466 7.448 11.357 17.93 11.357 28.469v0.009C951-7.648 933.872 10 911.843 11zM891.672 272H708.404l-52.516 119.582c64.946 43.862 107.62 117.888 107.62 202.054 0 134.804-109.427 243.943-244.483 243.943-135.046 0-244.474-109.28-244.474-244.084 0-84.408 42.913-158.483 108.214-202.271L330.426 272H134.064C101.076 268 75 243.068 73 210.491v-98.886C75 78.555 102.153 52 136.005 51h755.371c31.53 2 56.623 26.889 59.623 57.644V215.936C947 245.641 922.427 268 891.672 272zM873 128H151v64h204.658c4.161 0 8.14 1.17 11.935 2.316 11.056 3.147 20.661 11.141 25.509 22.422l77.515 177.055c8.732 19.875-0.582 42.959-20.761 51.46-2.514 1.072-5.078 1.899-7.657 2.433C389.786 475.292 354 530.236 354 593.522c0 90.941 73.925 164.737 165.025 164.737 91.109 0 165.034-73.885 165.034-164.813 0-62.965-35.443-117.654-87.387-145.326a40.362 40.362 0 0 1-7.884-2.415c-20.18-8.603-29.396-31.624-20.761-51.406l77.705-177.503c5.723-13.094 17.86-21.998 31.237-23.82 2.037-0.278 4.072-0.976 6.11-0.976H873v-64z"  horiz-adv-x="1024" />

    
    <glyph glyph-name="shijianchuli" unicode="&#58979;" d="M424.116-85C394.535-85 370-60.437 370-30.893v165.18c-69 27.346-126.661 73.384-169.427 133.864-45.762 64.718-69.857 140.821-69.874 220.081 0.002 79.179 24.188 155.217 69.845 219.901C246.2 772.816 309.79 821.024 384.39 847.544l0.428 0.143 7.173 2.384a53.67 53.67 0 0 0 16.237 2.512c8.574 0 17.13-2.087 24.739-6.036 12.713-6.59 22.128-17.742 26.468-31.401A53.174 53.174 0 0 0 462 798.865V545h100V798.893c0 14.343 5.634 27.829 15.777 37.976C587.935 847.016 601.443 852.6 615.782 852.6c5.527 0 11.015-0.86 16.291-2.555l7.268-2.441c74.673-26.48 138.305-74.683 184.012-139.397 45.708-64.715 69.861-140.8 69.848-220.03-0.018-79.249-24.034-155.339-69.785-220.045C780.662 207.662 723 161.632 654 134.288v-165.145c0-29.58-24.477-54.143-54.021-54.143H424.116zM546 23V210.052l57.089 20.166c109.172 38.613 182.506 142.371 182.487 258.186-0.111 90.159-43.859 172.966-116.244 223.813l0.183-180.055c0-25.019-9.736-48.296-27.413-65.973C624.424 448.511 600.922 439 575.925 439H448.134c-24.996 0-48.272 9.511-65.949 27.189C364.509 483.865 355 507.142 355 532.139V712.244C282 661.4 238.606 578.578 238.495 488.38c-0.019-115.792 73.274-219.55 182.457-258.167L478 210.052V23h68z"  horiz-adv-x="1024" />

    
    <glyph glyph-name="xunjianrizhi" unicode="&#58980;" d="M234.461-92.401c-50.875 0-92.501 41.625-92.501 92.501v94.427c0 30.237 24.741 55.578 54.977 55.251 29.59-0.319 53.794-24.488 53.794-54.15v-61.346c0-11.046 8.954-20 20-20h531.054c11.046 0 20 8.954 20 20V556.516c0 6.261-4.872 11.353-11.133 11.353l-106.416-0.766c-14.723 0-28.062 5.653-38.757 16.352-9.937 9.937-15.386 23.691-15.386 38.725l0.02 0.372L654 740.505c0.092 2.941-0.914 5.463-2.862 7.621-2.081 2.305-5.125 3.502-8.231 3.502H270.732c-11.046 0-20-8.954-20-20v-77.293c0-29.721-23.731-54.45-53.452-54.672-30.05-0.224-54.272 24.155-54.272 54.152v114.2c0 50.811 41.572 92.383 92.383 92.383h430.942c28.455 0 55.833-11.924 75.127-32.837l159.037-172.546c17.465-18.93 26.924-43.51 26.924-69.264v-585.016c0-51.226-41.912-93.139-93.139-93.139H234.461z m0 0M382.845 86.447c-28.579 0-51.825 23.715-51.825 52.294 0 28.577 23.246 52.294 51.825 52.294h307.003c28.572 0 51.825-23.717 51.825-52.294 0-28.579-23.253-52.294-51.825-52.294H382.845z m0 161.065c-28.579 0-51.825 23.722-51.825 52.294 0 28.577 23.246 52.294 51.825 52.294h307.003c28.572 0 51.825-23.717 51.825-52.294 0-28.572-23.253-52.294-51.825-52.294H382.845z m0 158.976c-28.579 0-51.825 23.715-51.825 52.294 0 28.572 23.246 52.294 51.825 52.294h307.003c28.572 0 51.825-23.722 51.825-52.294 0-28.579-23.253-52.294-51.825-52.294H382.845zM149.799 158.612c-29.344 0-53.218 23.996-53.218 53.341 0 29.344 23.875 53.341 53.218 53.341h84.662c29.344 0 53.218-23.998 53.218-53.341 0-29.345-23.875-53.341-53.218-53.341h-84.662z m0 148.518c-29.344 0-53.218 24.002-53.218 53.862s23.875 53.862 53.218 53.862h84.662c29.344 0 53.218-24.002 53.218-53.862s-23.875-53.862-53.218-53.862h-84.662z m0 147.469c-29.344 0-53.218 23.992-53.218 53.341 0 29.344 23.875 53.336 53.218 53.336h84.662c29.344 0 53.218-23.993 53.218-53.336 0-29.349-23.875-53.341-53.218-53.341h-84.662z m0 0"  horiz-adv-x="1024" />

    
    <glyph glyph-name="difangzhengce" unicode="&#58981;" d="M511.238-46.238c-11.236 0.316-22.171 2.576-32.501 6.957L125.626 109.12l-0.248 0.086c-40.302 19.165-66.89 58.736-69.314 103.296l-0.064 0.31V750.937c-1 20.483 7.77 39.977 24.274 52.22 10.459 7.761 22.896 11.863 35.922 11.863 7.19 0 14.258-1.269 20.996-3.775l374.455-105.46L885.889 811.254a60.5 60.5 0 0 0 20.875 3.702c13.06 0 25.309-4.095 35.822-11.842C959.108 790.943 968 771.485 967 751.007V213.88l0.189-0.36c-2.677-44.349-29.086-83.899-69.094-103.213l-0.214-0.13-353.386-149.29c-10.404-4.666-21.437-6.887-32.851-6.887h-0.203l-0.203-0.238z m0.929 91.484l348.965 146.755c7.834 5.027 13.868 13.03 14.868 22.175V718.574L535.162 617.168l-22.494-6.555-22.535 6.534L148 718.587v-504.382c2-9.123 7.263-17.141 15.052-22.218l349.115-146.741zM592.774 174c-6.981 0-13.968 2.009-20.206 5.14-10.759 5.392-19.037 15.238-22.72 26.712-7.967 23.719 4.704 49.905 28.288 58.303l199.37 67.945c4.715 1.573 9.551 2.381 14.446 2.381 7.05 0 14.105-1.661 20.403-4.825 10.886-5.473 18.971-14.848 22.769-26.41 7.975-23.631-4.696-49.766-28.276-58.172l-199.375-68.255c-4.7-1.629-9.665-2.817-14.698-2.817 0.001-0.002 0-0.002-0.001-0.002zM254.87 360.93l-75.829 75.247 105.416 15.464 46.478 97.451 47.171-97.445 105.718-15.509-76.657-74.742 18.488-105.609-95.099 49.165-94.237-50.026zM593.05 309c-7.055 0-14.115 1.861-20.421 5.029-10.71 5.384-19.009 15.089-22.771 26.469-8.013 23.668 4.661 49.878 28.279 58.288l199.37 67.928c4.717 1.567 9.539 2.357 14.417 2.357a45.742 45.742 0 0 0 20.428-4.836c10.715-5.387 19.013-14.999 22.769-26.379 7.982-23.647-4.686-49.802-28.262-58.231l-199.384-68.09c-4.715-1.568-9.54-2.536-14.423-2.536l-0.002 0.001zM592.763 444.417a45.246 45.246 0 0 0-20.22 4.795c-10.77 5.407-19.038 15.092-22.7 26.583-7.954 23.715 4.716 49.805 28.292 58.202l199.371 67.906a45.565 45.565 0 0 0 14.417 2.345 45.748 45.748 0 0 0 20.428-4.842c10.715-5.387 19.013-15.003 22.769-26.383 8.016-23.658-4.655-49.822-28.276-58.234l-199.37-67.902a44.834 44.834 0 0 0-14.711-2.47z"  horiz-adv-x="1024" />

    
    <glyph glyph-name="huiyishiguanli" unicode="&#58982;" d="M63 412.726c0-27.237 22.263-49.396 49.501-49.396 27.237 0 49.499 22.159 49.499 49.396V683.494c1 28.41 25.566 50.535 54.08 50.535 0.869 0 1.579 0.031 2.451-0.01l0.544-0.019h584.926l0.622 0.019c0.872 0.041 1.968 0.108 2.838 0.108 28.51 0 52.539-22.224 54.539-50.634v-270.048c-1-13.406 3.575-26.705 12.72-36.588C884.04 366.794 896.908 361 910.622 361h0.175c13.717 0 26.874 5.795 36.201 15.864C956.137 386.74 961 400.039 960 413.445V684.523l0.043 0.384c-1.366 39.953-17.9 77.267-46.66 105.019-28.707 27.702-66.461 43.013-106.304 43.013-1.276 0-2.558 0.061-3.84 0.061H219.836c-1.285 0-2.553-0.061-3.833-0.061-39.842 0-77.589-15.365-106.298-43.068-28.763-27.755-45.346-65.042-46.711-104.992l0.006-0.356v-271.797zM845.835 184.935c14.081 18.769 24.088 40.325 29.357 63.487l0.106 0.494c8.371 41.399-1.14 84.612-26.094 118.67-17.69 27.156-42.781 48.175-72.624 60.829a49.744 49.744 0 0 1-20.462 4.438 49.053 49.053 0 0 1-20.242-4.339 49.34 49.34 0 0 1-26.127-28.037c-27.296 83.374-105.834 143.761-198.212 143.761-92.743 0-171.539-60.873-198.535-144.758-4.471 11.08-12.98 20.297-23.745 25.595a49.117 49.117 0 0 1-21.561 5.017 48.65 48.65 0 0 1-16.345-2.819l-0.151-0.055c-31.4-11.437-58.069-31.966-77.144-59.383-24.536-33.549-34.128-76.173-26.32-116.993l0.069-0.355 0.083-0.352c5.265-23.158 15.279-44.716 29.363-63.491C108.949 142.808 65.843 68.028 62.994-14.24l0.006-0.362v-0.361c0-27.237 22.141-49.396 49.379-49.396 26.966 0 48.934 21.72 49.369 48.585a154.587 154.587 0 0 0 102.598 134.953c22.104 6.935 38.157 26.207 40.96 49.238l0.017 0.144c2.684 23.397-8.623 46.354-28.868 58.52-15.97 9.522-27.572 25.323-31.886 43.401a50.406 50.406 0 0 0 9.752 39.917l0.369 0.476 0.342 0.497c7.195 10.475 17.257 18.397 29.116 22.93a48.418 48.418 0 0 1 19.161 12.082 211.112 211.112 0 0 1-0.268-10.644c0-62.212 27.398-118.138 70.751-156.372a241.024 241.024 0 0 1-30.651-25.933c-44.981-44.981-69.753-104.786-69.753-168.398 0-27.237 22.159-49.396 49.395-49.396 27.237 0 49.397 22.159 49.397 49.396 0 76.84 62.516 139.354 139.358 139.354 76.84 0 139.354-62.514 139.354-139.354 0-27.237 22.159-49.396 49.396-49.396 27.24 0 49.402 22.159 49.402 49.396 0 63.612-24.773 123.417-69.754 168.398a241.084 241.084 0 0 1-30.572 25.875 210.75 210.75 0 0 1 9.602 9.001c19.459 19.46 34.665 42.217 45.197 67.642s15.871 52.269 15.871 79.787c0 4.182-0.123 8.331-0.367 12.453 5.44-5.613 12.219-9.896 19.755-12.342 12.701-4.192 23.913-12.532 31.572-23.485l0.361-0.516 0.392-0.494a48.573 48.573 0 0 0 9.632-39.62c-4.289-18.123-15.905-33.97-31.909-43.513l-0.384-0.235c-19.844-12.421-30.777-34.612-28.529-57.915l0.023-0.26 0.028-0.259c2.794-22.954 18.75-42.179 40.749-49.173 57.292-21.58 96.444-74.872 99.931-136 0.353-26.936 22.349-48.741 49.367-48.741 27.239 0 49.345 22.159 49.345 49.396v0.442l0.037 0.442c-3.448 81.486-46.486 155.551-114.202 199.015zM410.139 377.106C427.154 418.311 466.955 445 511.537 445h0.001c60.227 0 109.44-49.059 109.703-109.287 0.193-44.58-26.26-84.529-67.393-101.726-13.48-5.635-27.705-8.508-42.283-8.507-29.228 0-56.727 11.376-77.429 31.988-31.592 31.455-41.012 78.43-23.997 119.638z"  horiz-adv-x="1024" />

    
    <glyph glyph-name="yanjiusuo" unicode="&#58983;" d="M852.5 494c0 187.777-152.223 340-340 340s-340-152.223-340-340c0-112.793 54.938-212.738 139.5-274.589v-84.187c0-110.28 89.72-200 200-200s200 89.72 200 200v83.457C797.128 280.474 852.5 380.763 852.5 494zM612 135.224c0-55.141-44.859-100-100-100-55.14 0-100 44.859-100 100v33.881C443.764 159.291 477.513 154 512.5 154c34.621 0 68.027 5.19 99.5 14.808v-33.584z m70.206 189.07C636.876 278.964 576.606 254 512.5 254s-124.376 24.964-169.706 70.294C297.464 369.624 272.5 429.894 272.5 494s24.964 124.376 70.294 169.706C388.124 709.036 448.394 734 512.5 734s124.376-24.964 169.706-70.294c45.33-45.33 70.294-105.6 70.294-169.706s-24.964-124.376-70.294-169.706z"  horiz-adv-x="1024" />

    
    <glyph glyph-name="jiatinglvguan" unicode="&#58984;" d="M287.64 384.001c46.711-0.034 88.845 28.091 106.738 71.239 17.879 43.156 8.009 92.828-25.023 125.86-33.023 33.035-82.707 42.905-125.863 25.012-43.145-17.891-71.272-60.013-71.239-106.727 0.001-63.613 51.698-115.384 115.387-115.384z m0 0M818.845 522.906H509.7c-22.943 0-41.542-18.599-41.542-41.542v-112.886c0-22.943-18.599-41.542-41.542-41.542H159.118c-22.943 0-41.542 18.599-41.542 41.542V680.126c0 24.213-19.629 43.842-43.842 43.842-24.213 0-43.842-19.629-43.842-43.842V87.85c0-24.2 19.618-43.818 43.818-43.818h0.048c24.2 0 43.818 19.618 43.818 43.818v28.076c0 22.943 18.599 41.542 41.542 41.542h705.811c22.943 0 41.542-18.599 41.542-41.542v-28.076c0-24.2 19.618-43.818 43.818-43.818s43.818 19.618 43.818 43.818V347.586a175.252 175.252 0 0 1-51.319 123.961 175.236 175.236 0 0 1-123.943 51.359z m0 0"  horiz-adv-x="1024" />

    
    <glyph glyph-name="yishanchu" unicode="&#58985;" d="M512 734c47.294 0 93.12-9.24 136.205-27.464 41.666-17.623 79.107-42.873 111.282-75.049s57.426-69.616 75.049-111.283C852.76 477.12 862 431.294 862 384s-9.24-93.12-27.464-136.205c-17.623-41.666-42.873-79.107-75.049-111.282s-69.616-57.426-111.282-75.049C605.12 43.24 559.294 34 512 34s-93.12 9.24-136.205 27.464c-41.666 17.623-79.107 42.873-111.283 75.049s-57.426 69.616-75.049 111.282C171.24 290.88 162 336.706 162 384s9.24 93.12 27.464 136.205c17.623 41.666 42.873 79.107 75.049 111.283s69.616 57.426 111.283 75.049C418.88 724.76 464.706 734 512 734m0 100C263.472 834 62 632.528 62 384s201.472-450 450-450 450 201.472 450 450S760.528 834 512 834zM582.711 384L709.99 511.279c19.526 19.526 19.526 51.184 0 70.711-19.526 19.526-51.184 19.526-70.711 0L512 454.711 384.721 581.99c-19.526 19.526-51.184 19.526-70.711 0-19.526-19.526-19.526-51.184 0-70.711L441.289 384 314.01 256.721c-19.526-19.526-19.526-51.184 0-70.711 19.526-19.526 51.184-19.526 70.711 0L512 313.289 639.279 186.01c19.526-19.526 51.184-19.526 70.711 0 19.526 19.526 19.526 51.184 0 70.711L582.711 384z"  horiz-adv-x="1024" />

    
    <glyph glyph-name="yuanpeizhi" unicode="&#58986;" d="M936.983 768.712c-0.068 44.928-36.469 81.334-81.397 81.397H166.857c-44.928-0.064-81.332-36.47-81.397-81.397v-739.81c0-61.195 49.516-110.845 110.706-111.011h666.262c42.014 0.051 76.067 34.099 76.113 76.117l-1.558 774.704z m-73.447-630.125h-535.39V776.575h219.015v-287.662a8.07 8.07 0 0 1 13.112-6.27l82.959 67.146a8.137 8.137 0 0 0 10.288 0l82.987-67.146a8.004 8.004 0 0 1 8.511-0.993 8.018 8.018 0 0 1 4.542 7.263V776.575h92.554c11.73 0 21.242-9.512 21.242-21.242l0.18-616.746z m-705.83-95.137c2.37 9.004 8.218 21.002 31.111 21.002h676.189v-38.733c0-18.937-15.353-34.293-34.293-34.293H199.71a44.14 44.14 0 0 0-34.775 17.162 39.825 39.825 0 0 0-7.262 34.775l0.033 0.087z m0 0"  horiz-adv-x="1024" />

    
    <glyph glyph-name="renyuanmijizhongdian" unicode="&#58987;" d="M531.884 252.646c14.409 0 27.006-0.045 38.51-0.136l0.194-0.001c29.02-0.175 51.213-8.393 71.955-26.645 13.522-11.969 22.705-25.401 28.202-41.458-19.046-1.639-39.653-1.829-61.078-2.026l-0.119-0.001c-9.571-0.091-20.087-0.135-32.15-0.135-10.906 0-22.082 0.035-32.89 0.069-10.928 0.034-22.228 0.07-33.378 0.07-12.006 0-24.094-0.036-35.785-0.07-11.51-0.034-23.412-0.069-35.052-0.069-12.819 0-24.053 0.044-34.335 0.134a1109.923 1109.923 0 0 0-52.399 1.997 91.21 91.21 0 0 0 6.271 13.844l0.095 0.171c12.756 23.025 29.643 37.606 54.756 47.277 0.259 0.1 0.519 0.201 0.777 0.303 10.991 4.338 23.711 6.538 37.806 6.538 13.238 0 26.628 0.036 39.578 0.07 12.819 0.033 26.072 0.068 39.042 0.068m0 100c-26.206 0-52.41-0.139-78.618-0.139-25.47 0-50.627-4.09-74.523-13.523-46.543-17.925-82.075-48.426-106.29-92.135-18.553-33.335-25.785-69.499-24.53-107.545 0.319-6.918 1.261-13.835 4.722-20.126 5.658-10.38 15.091-16.983 25.47-21.387 18.866-8.172 38.992-11.32 59.433-12.576a1204.944 1204.944 0 0 1 67.292-2.833c11.845-0.104 23.656-0.139 35.453-0.139 23.597 0 47.144 0.139 70.836 0.139 22.009 0 44.164-0.139 66.268-0.139 11.054 0 22.092 0.035 33.099 0.139 34.591 0.319 69.185 0.632 103.148 6.918 14.149 2.515 28.298 6.29 40.874 13.835 12.267 7.55 20.759 17.925 21.387 32.707 0.942 16.666 0.313 33.33-2.515 49.681-8.179 45.91-29.874 84.589-64.782 115.409-39.307 34.59-85.218 51.259-137.418 51.574-13.101 0.105-26.205 0.14-39.306 0.14zM506.156 586.424c17.647 0 30.462-7.007 38.104-12.885 7.436-5.719 17.167-15.897 21.303-31.904 0.076-0.295 0.154-0.589 0.233-0.884 0.841-3.135 1.619-7.158 1.619-15.295 0-11.291-3.773-22.32-10.911-31.895-7.749-10.394-18.718-18.103-31.72-22.295-6.463-2.084-13.06-3.14-19.609-3.14-26.602 0-49.888 16.868-57.944 41.974l-0.065 0.203c-7.124 22.038 0.902 47.577 19.517 62.106 0.233 0.182 0.465 0.365 0.697 0.549 9.721 7.727 19.72 11.878 31.467 13.064l0.368 0.038a67.291 67.291 0 0 0 6.941 0.364m-0.001 100c-5.732 0-11.52-0.298-17.353-0.909-31.134-3.143-59.119-14.778-83.649-34.276-51.567-40.248-73.268-109.433-53.141-171.695 21.765-67.826 84.681-111.419 153.162-111.419 16.609 0 33.536 2.562 50.293 7.964 67.291 21.695 111.947 82.387 111.947 149.366 0 15.409-1.574 28.304-5.031 41.194-18.097 70.043-82.241 119.775-156.228 119.775zM868.667 371.999h-87.419c-18.866 0-37.419-3.141-55.029-10.06-13.836-5.344-26.417-12.262-37.738-20.754 15.096-7.859 29.245-17.297 42.453-29.246 34.904-30.814 56.604-69.494 64.777-115.717 1.574-8.179 2.201-16.356 2.829-24.529h99.371c25.47 0.314 50.94 0.314 76.411 5.031 10.694 1.887 21.073 4.717 30.193 10.38 9.119 5.658 15.405 13.203 15.719 24.21 0.632 12.894 0.319 25.157-1.882 37.111v-0.005c-5.978 33.963-22.013 62.581-47.799 85.535-28.931 25.469-63.207 38.044-101.886 38.044zM857.346 389.611c49.687 16.037 82.707 61.007 82.707 110.374 0 11.32-1.259 21.072-3.775 30.505-14.469 55.658-68.239 94.024-128.298 87.732-22.956-2.515-43.714-11.007-61.947-25.157-38.052-29.872-54.089-80.814-39.307-127.038 20.126-62.267 87.104-96.857 150.625-76.417h-0.005zM242.265 371.999h-87.419c-18.871 0-37.423-3.147-55.034-10.06-34.276-13.208-60.688-35.85-78.613-67.925-13.836-24.843-19.184-51.572-18.238-79.558 0.313-5.344 0.942-10.38 3.456-14.782 4.402-7.86 11.007-12.576 18.871-15.719 14.15-5.976 28.932-8.177 44.024-9.438 16.664-1.255 33.334-1.882 49.685-2.201 8.699-0.105 17.435-0.14 26.181-0.14 17.494 0 35.033 0.14 52.432 0.14h27.044c1.574 30.191 9.119 59.118 24.216 86.162 21.067 36.797 49.999 64.463 86.157 82.707-27.039 20.755-58.172 30.814-92.762 30.814zM230.945 389.611c49.685 16.037 82.702 61.007 82.702 110.374 0 11.32-1.261 21.072-3.776 30.505-14.463 55.658-68.237 94.024-128.298 87.732-22.956-2.515-43.709-11.007-61.947-25.157-38.051-29.872-54.089-80.814-39.307-127.038 20.125-62.266 87.103-96.856 150.626-76.416z"  horiz-adv-x="1024" />

    
    <glyph glyph-name="yiyuan" unicode="&#58988;" d="M702.115 371.347c0-20.879-17-37.785-37.992-37.785h-63.414c-13.957 0.031-25.301-11.25-25.348-25.207v-88.297c0-20.883-16.988-37.785-37.988-37.785h-50.688c-21.004 0-38.066 16.895-38.066 37.785v88.297c-0.039 13.957-11.387 25.242-25.348 25.207h-63.34c-21.066 0-38.054 16.895-38.054 37.785v50.438c0 20.89 17 37.859 38.054 37.859h63.348c13.961-0.035 25.309 11.25 25.352 25.207v63.004c0 20.899 17.062 37.871 38.062 37.871h50.688a37.932 37.932 0 0 0 37.992-37.871v-63.004c0.039-13.957 11.387-25.242 25.348-25.207h63.414a37.922 37.922 0 0 0 37.988-37.859v-50.438h-0.008z m0 0"  horiz-adv-x="1024" />

    
    <glyph glyph-name="zhengcefagui" unicode="&#58989;" d="M136.429-67C94.943-67 61-33.057 61 8.429V665.5c0 24.024 19.476 43.5 43.5 43.5s43.5-19.476 43.5-43.5V40c0-11.046 8.954-20 20-20h562.5c24.024 0 43.5-19.476 43.5-43.5S754.524-67 730.5-67H136.429z m125.19 126C220.361 59 186 92.607 186 133.862V759.794C186 801.049 220.361 834 261.619 834H887.55C928.804 834 962 801.049 962 759.794v-625.932C962 92.607 928.804 59 887.55 59H261.619zM875 146V747H274v-601h601zM552.556 297.105l-58.763-32.519c-20.82-11.522-45.757 6.036-41.93 29.522l12.077 74.096a45.492 45.492 0 0 1-12.353 39.103l-51.393 52.626c-16.21 16.6-6.853 44.579 16.083 48.086l67.993 10.397a45.49 45.49 0 0 1 34.305 25.64l30.208 64.355c10.258 21.854 41.342 21.854 51.6-0.001l30.205-64.353a45.493 45.493 0 0 1 34.306-25.641l67.992-10.397c22.935-3.507 32.293-31.486 16.083-48.086l-51.393-52.627a45.495 45.495 0 0 1-12.353-39.103l12.077-74.096c3.828-23.486-21.11-41.044-41.93-29.521l-58.758 32.518a45.493 45.493 0 0 1-44.056 0.001z"  horiz-adv-x="1024" />

    
    <glyph glyph-name="yinhang" unicode="&#58990;" d="M180.05-69c-26.679 0-47.99 21.174-47.99 47.851 0 26.363 19.94 47.521 43.94 49.174V345.909l-17.647-19.517-0.632-0.756c-15.112-13.601-28.403-19.935-42.048-19.938-18.887-0.002-30.063 12.535-35.458 18.56-0.809 0.904-1.548 1.757-2.066 2.277-8.81 8.809-13.651 20.597-13.651 33.188 0 12.4 4.716 24.022 13.281 32.79L467.013 813.23l0.34 0.339c0.53 0.53 1.086 1.094 1.663 1.68 8.348 8.476 20.964 21.284 38.288 21.284 1.579 0 3.147-0.111 4.693-0.332a33.203 33.203 0 0 0 4.696 0.332c15.648 0 27.363-10.473 35.917-18.121 1.397-1.249 2.718-2.429 3.802-3.333l1.263-1.053 388.571-422.981c17.653-18.119 17.723-47.088 0.207-65.292-0.868-0.993-1.737-2.049-2.651-3.158-5.851-7.104-15.646-18.992-33.627-18.992-12.476 0-24.845 5.625-42.693 19.416l-1.911 1.3L851 339.999V26.6c25-1.604 44.58-22.154 44.58-47.75 0-26.677-20.669-47.851-47.345-47.851H180.05z m556.581 110c2.267 0 3.369 0.078 5.369 0.171V359.723c0 24.961 14.157 36.432 22.598 41.048 8.462 4.627 17.498 6.073 25.333 6.477L513.325 709.584 233.701 407.377c41.31-0.686 50.449-28.353 52.292-44.927l0.007-1.359v-319.322c1-0.243 3.867-0.768 6.709-0.768h174.18c-1.604 5-2.89 10.021-2.89 15.39V127h-70.762c-27.023 0-49.009 22.479-49.009 49.5s21.985 49.5 49.009 49.5H464v22h-70.762c-27.023 0-49.009 21.979-49.009 49.002 0 27.021 21.985 48.998 49.009 48.998h24.827l-58.318 58.201c-9.536 7.69-15.269 19.08-15.828 31.724-0.606 13.689 5.113 27.181 15.338 36.345 9.415 9.106 21.447 14.095 33.982 14.095 12.822 0 25.118-5.243 34.625-14.75l85.564-85.568 85.563 85.562c9.502 9.505 21.799 14.742 34.623 14.742s25.121-5.238 34.627-14.747c9.502-9.497 14.739-21.794 14.739-34.617 0-12.821-5.235-24.859-14.743-34.366L607.355 342h26.26c27.021 0 49.004-22.479 49.004-49.504 0-27.02-21.983-49.496-49.004-49.496H563v-22h70.616c27.021 0 49.004-21.477 49.004-48.498 0-27.023-21.983-48.502-49.004-48.502H563v-67.61c0-5.369-1.437-10.39-3.04-15.39h176.671z"  horiz-adv-x="1024" />

    
    </font>
</defs>
</svg>
